<ttFont>
          <CharString index="0">
            -105 callsubr
            -1 -645 rmoveto
            -159 -118 1 callsubr
            136 100 162 165 170 111 -168 -147 -133 -90 -154 -179 -8 hvcurveto
            return
          </CharString>
          <CharString index="1">
            rmoveto
            19 -14 13 -16 -19 -14 -13 -19 -19 14 -13 19 16 -104 callsubr
          </CharString>
          <CharString index="2">
            68 vstem
            382 670 rmoveto
            -219 -126 -175 -172 -172 126 -161 205 192 158 142 200 180 -129 158 -207 hvcurveto
            return
          </CharString>
          <CharString index="3">
            -103 callgsubr
            endchar
          </CharString>
          <CharString index="4">
            441 431 rmoveto
            -62 callgsubr
            -213 vlineto
            -29 -42 -71 -69 -64 -50 47 101 vhcurveto
            255 vlineto
            -62 callgsubr
            -143 vlineto
            -86 17 -121 155 61 38 35 29 20 vhcurveto
            return
          </CharString>
          <CharString index="5">
            -31 callgsubr
            22 26 -39 -20 13 hvcurveto
            161 -276 rlineto
            -250 -51 callsubr
            -13 36 19 hvcurveto
            259 vlineto
            156 270 rlineto
            25 15 22 31 20 57 callsubr
            3 17 -3 -21 3 hvcurveto
            43 callgsubr
            vhcurveto
            -144 -249 -150 263 rlineto
            -2 4 -1 4 3 vvcurveto
            13 10 7 9 1 vhcurveto
            10 -138 vlineto
            return
          </CharString>
          <CharString index="6">
            634 rmoveto
            61 76 -19 -84 16 hvcurveto
            10 111 hlineto
            -16 -16 3 7 -20 hvcurveto
            8 -28 -35 10 -44 hhcurveto
            -245 -117 -176 -165 -164 118 -175 233 47 42 10 9 35 hvcurveto
            7 27 21 6 20 hhcurveto
            111 -10 vlineto
            -91 -29 -89 -16 -49 hhcurveto
            -167 -131 154 158 140 93 156 197 hvcurveto
            return
          </CharString>
          <CharString index="7">
            69 vstem
            450 177 rmoveto
            124 -102 38 -92 35 vhcurveto
            -80 29 -72 30 74 vvcurveto
            46 25 82 107 92 54 -20 -69 3 vhcurveto
            10 103 hlineto
            -20 -21 4 5 -23 hvcurveto
            7 -28 -30 5 -35 hhcurveto
            -102 -100 -55 -117 -112 93 -34 91 -35 hvcurveto
            80 -32 81 -28 -88 vvcurveto
            -68 -49 -74 -115 -33 -122 13 101 vhcurveto
            -10 -114 hlineto
            17 17 -5 -7 21 hvcurveto
            -9 32 37 -14 -33 callsubr
            return
          </CharString>
          <CharString index="8">
            rmoveto
            -122 103 -122 -103 2 -5 120 59 121 -59 rlineto
            endchar
          </CharString>
          <CharString index="9">
            rmoveto
            -23 15 -15 23 23 16 15 23 23 -16 15 -23 -23 -15 -15 -23 vhcurveto
            endchar
          </CharString>
          <CharString index="10">
            -60 9 -43 22 43 vvcurveto
            15 4 15 15 9 vhcurveto
            -28 36 49 -15 49 hhcurveto
            108 86 72 85 29 -12 29 -9 20 hvcurveto
            46 36 -72 hlineto
            31 -35 -53 21 -56 hhcurveto
            -107 -85 -74 -96 -31 8 -25 23 -27 hvcurveto
            -27 -21 -11 -26 -25 vvcurveto
            -43 25 -44 47 -24 vhcurveto
            -48 -31 -20 -30 -35 vvcurveto
            -78 93 -41 101 vhcurveto
            return
          </CharString>
          <CharString index="11">
            34 callgsubr
            274 vlineto
            15 -3 17 -2 15 -1 59 -88 59 -92 60 -88 rrcurveto
            -35 23 32 -30 53 hhcurveto
            43 10 hlineto
            -30 -26 34 27 -19 hvcurveto
            -35 55 -36 50 -35 53 -72 110 rcurveline
            85 16 71 50 101 vvcurveto
            101 -76 53 -133 vhcurveto
            -174 -10 -74 callgsubr
            -40 callgsubr
            -72 callsubr
            -5 -10 141 10 hlineto
            -22 616 rmoveto
            115 80 -23 -101 -100 -81 -32 -55 -35 -23 1 1 -11 hvcurveto
            -5 254 hlineto
            return
          </CharString>
          <CharString index="12">
            66 vstem
            443 hmoveto
            142 11 callgsubr
            533 vlineto
            19 13 33 20 vhcurveto
            5 -4 callsubr
            -13 vlineto
            -332 -449 rlineto
            462 vlineto
            18 11 31 58 callgsubr
            10 -142 -10 -87 callgsubr
            -29 callgsubr
            -80 callgsubr
            9 vlineto
            332 449 rlineto
            -458 -47 callsubr
            hlineto
            return
          </CharString>
          <CharString index="13">
            rmoveto
            -15 -5 -19 -50 -82 hhcurveto
            -80 -24 50 15 -2 hvcurveto
            -6 hlineto
            -48 50 -56 63 67 44 60 44 vhcurveto
            endchar
          </CharString>
          <CharString index="14">
            rmoveto
            -19 -11 -14 -16 -21 -33 -41 39 -33 hhcurveto
            -27 -25 -21 -56 -19 47 callsubr
            34 52 -40 32 hhcurveto
            28 12 13 60 16 hvcurveto
            endchar
          </CharString>
          <CharString index="15">
            21 12 -33 -19 hvcurveto
            -533 -47 callsubr
            -10 return
          </CharString>
          <CharString index="16">
            67 vstem
            44 -6 callsubr
            -3 11 -30 -19 vvcurveto
            9 callgsubr
            141 10 -5 hlineto
            -89 callgsubr
            255 38 vlineto
            108 118 65 112 104 -78 59 -148 hvcurveto
            -142 hlineto
            118 -35 rmoveto
            136 47 -66 -76 -64 -59 -64 -108 hvcurveto
            -30 270 hlineto
            return
          </CharString>
          <CharString index="17">
            23 9 16 21 21 hhcurveto
            10 -97 -91 callgsubr
            return
          </CharString>
          <CharString index="18">
            51 60 -27 -51 13 hvcurveto
            10 76 hlineto
            -12 -11 4 7 -12 hvcurveto
            11 -21 -29 14 -49 hhcurveto
            -144 -84 -103 -114 return
          </CharString>
          <CharString index="19">
            78 callsubr
            -20 -12 35 20 hvcurveto
            return
          </CharString>
          <CharString index="20">
            -10 vlineto
            41 callgsubr
            -293 -22 callsubr
            127 -54 callsubr
            7 vlineto
            238 233 rlineto
            -240 -22 callsubr
            128 10 vlineto
            -18 -14 -80 callgsubr
            return
          </CharString>
          <CharString index="21">
            -20 hstemhm
            hintmask 11011000
            791 660 rmoveto
            -109 -10 hlineto
            11 13 -12 -19 hvcurveto
            -5 -3 -11 -3 vvcurveto
            -132 -423 rlineto
            hintmask 10111000
            -153 489 -159 -490 -130 424 rlineto
            -1 5 -1 5 3 vvcurveto
            21 13 16 17 vhcurveto
            hintmask 11011000
            10 -142 -10 vlineto
            21 18 -30 -25 7 hvcurveto
            183 -600 156 493 156 -492 182 600 rlineto
            27 7 19 27 27 hhcurveto
            return
          </CharString>
          <CharString index="22">
            -20 hstemhm
            hintmask 11011000
            658 420 rmoveto
            -99 -10 hlineto
            16 -1 6 -11 -11 vvcurveto
            -4 -2 -7 -3 -10 vhcurveto
            -99 -246 rlineto
            hintmask 10111000
            -127 311 -126 -311 -98 242 rlineto
            -3 7 -2 10 3 vvcurveto
            20 19 8 9 vhcurveto
            hintmask 11011000
            77 callsubr
            vlineto
            23 13 -28 -23 9 hvcurveto
            148 -366 128 315 129 -316 151 378 rlineto
            27 11 10 13 24 hhcurveto
            return
          </CharString>
          <CharString index="23">
            rmoveto
            -142 107 -26 -45 166 -68 rlineto
            endchar
          </CharString>
          <CharString index="24">
            30 callsubr
            44 callsubr
            return
          </CharString>
          <CharString index="25">
            -33 -19 hvcurveto
            return
          </CharString>
          <CharString index="26">
            21 11 -82 callsubr
            -85 callgsubr
            -5 hlineto
            43 callsubr
            272 320 return
          </CharString>
          <CharString index="27">
            -20 hstem
            82 35 389 35 vstem
            150 10 rmoveto
            -38 callgsubr
            509 vlineto
            362 -574 rlineto
            62 598 hlineto
            19 12 33 21 vhcurveto
            5 10 -112 -10 5 hlineto
            20 14 -82 callsubr
            -510 vlineto
            -363 572 rlineto
            -101 -10 5 hlineto
            28 7 -82 callsubr
            -40 callgsubr
            -20 -13 -13 callgsubr
            -32 callsubr
            return
          </CharString>
          <CharString index="28">
            68 vstem
            44 hmoveto
            180 hlineto
            233 118 165 162 173 -126 160 -212 hvcurveto
            -193 -10 5 hlineto
            21 11 -82 callsubr
            -533 -26 callsubr
            463 302 rmoveto
            -189 -162 -88 -144 vhcurveto
            -53 590 51 hlineto
            177 131 -142 -171 hvcurveto
            return
          </CharString>
          <CharString index="29">
            hmoveto
            174 hlineto
            131 101 72 117 144 -122 47 -124 hvcurveto
            -56 215 hlineto
            19 11 33 19 3 vhcurveto
            7 10 -141 -10 5 hlineto
            20 12 -35 -20 hvcurveto
            -40 callgsubr
            -19 -13 -33 -19 vhcurveto
            -5 hlineto
            104 25 rmoveto
            311 33 vlineto
            131 68 -66 -95 -93 -62 -57 -155 hvcurveto
            return
          </CharString>
          <CharString index="30">
            rmoveto
            -38 callgsubr
            509 vlineto
            362 -574 rlineto
            62 598 hlineto
            19 12 33 21 vhcurveto
            5 10 -112 -10 5 hlineto
            20 14 -82 callsubr
            -510 vlineto
            -363 572 rlineto
            -101 -10 5 hlineto
            28 7 -82 callsubr
            -40 callgsubr
            -20 -13 -13 callgsubr
            -32 callsubr
            hlineto
            return
          </CharString>
          <CharString index="31">
            -112 178 hlineto
            -100 -32 -10 callgsubr
            1 -23 -23 vvcurveto
            -89 -56 -34 56 -227 vlineto
            -76 0 -83 97 39 16 14 9 11 vhcurveto
            return
          </CharString>
          <CharString index="32">
            -42 0 33 310 32 252 33 hstemhm
            82 67 191 65 -24 68 hintmask 11110100
            45 hmoveto
            179 hlineto
            115 110 50 138 71 -35 86 -112 21 hvcurveto
            hintmask 11111000
            43 21 60 46 77 vvcurveto
            91 -74 59 -124 vhcurveto
            -164 -10 5 hlineto
            22 12 -34 -19 hvcurveto
            -532 -26 callsubr
            hintmask 11110100
            336 161 rmoveto
            -87 -66 -51 -108 vhcurveto
            -58 310 56 hlineto
            107 58 -58 -103 11 hvcurveto
            hintmask 11111000
            -41 312 rmoveto
            -53 -28 -66 -111 vhcurveto
            -52 252 50 hlineto
            84 53 -49 -77 4 hvcurveto
            endchar
          </CharString>
          <CharString index="33">
            hstem
            445 hmoveto
            113 -10 vlineto
            -32 -21 -46 -43 vhcurveto
            -257 hlineto
            332 625 rlineto
            -403 -112 10 hlineto
            32 21 45 43 vhcurveto
            232 hlineto
            -332 -625 rlineto
            return
          </CharString>
          <CharString index="34">
            -63 -11 callsubr
            34 623 37 hstemhm
            199 67 -31 56 hintmask 11101000
            236 -34 29 callgsubr
            -21 13 -6 11 -7 hvcurveto
            45 callgsubr
            42 16 60 40 vvcurveto
            90 callgsubr
            62 44 rmoveto
            hintmask 11110000
            -35 callgsubr
            endchar
          </CharString>
          <CharString index="35">
            -20 -12 -13 callgsubr
            return
          </CharString>
          <CharString index="36">
            rmoveto
            200 40 -200 hlineto
            endchar
          </CharString>
          <CharString index="37">
            180 hmoveto
            -88 callgsubr
            601 vlineto
            -101 -31 -10 callgsubr
            2 -24 -23 vvcurveto
            -512 vlineto
            -20 -12 -35 -21 vhcurveto
            -10 vlineto
            return
          </CharString>
          <CharString index="38">
            -82 callsubr
            -40 callgsubr
            -21 return
          </CharString>
          <CharString index="39">
            66 vstem
            15 311 rmoveto
            8 hlineto
            43 16 34 39 71 hhcurveto
            85 70 -68 -88 11 hvcurveto
            -134 hlineto
            -31 -22 9 23 -1 hvcurveto
            -10 -100 10 hlineto
            21 3 20 14 31 hhcurveto
            135 hlineto
            -84 -3 -57 -93 -116 hhcurveto
            -52 -43 19 53 -23 hvcurveto
            -8 -73 hlineto
            12 11 -3 -7 12 hvcurveto
            -11 21 29 -12 55 hhcurveto
            133 95 99 127 121 -98 87 -120 -61 -32 -17 -12 -21 hvcurveto
            -5 -9 -10 -6 -11 hhcurveto
            return
          </CharString>
          <CharString index="40">
            -75 callgsubr
            19 13 -62 callsubr
            endchar
          </CharString>
          <CharString index="41">
            71 vstem
            659 351 rmoveto
            140 -95 177 -255 -51 -71 -20 -16 -54 vhcurveto
            -11 -35 -29 -9 -16 hhcurveto
            -102 10 vlineto
            84 16 161 39 62 hhcurveto
            184 102 -139 -125 hvcurveto
            -549 hlineto
            -252 116 -125 187 217 100 174 185 vhcurveto
            -321 -329 rmoveto
            -173 -62 161 145 -3 hvcurveto
            490 hlineto
            -137 -56 -161 -196 -8 vhcurveto
            return
          </CharString>
          <CharString index="42">
            -322 -187 -21 690 94 hstemhm
            63 88 -65 65 hintmask 11010000
            52 399 rmoveto
            -9 vlineto
            32 -1 2 -25 -23 vvcurveto
            -335 vlineto
            -72 -28 -51 -27 -33 vhcurveto
            -16 -20 -18 -16 -20 -13 4 -9 rcurveline
            31 13 29 18 25 22 rrcurveto
            42 37 43 57 82 vvcurveto
            410 vlineto
            hintmask 11100000
            -88 97 rmoveto
            -27 21 -19 27 27 20 19 27 27 -20 21 -27 -27 -21 -21 -27 vhcurveto
            endchar
          </CharString>
          <CharString index="43">
            rmoveto
            -35 31 -24 41 41 32 24 35 35 -32 25 -41 -41 -31 -25 -35 vhcurveto
            28 6 rmoveto
            21 17 18 21 27 25 -24 -24 return
          </CharString>
          <CharString index="44">
            -10 vlineto
            41 callgsubr
            -6 vlineto
            -238 -233 rlineto
            239 vlineto
            19 10 33 20 vhcurveto
            return
          </CharString>
          <CharString index="45">
            13 19 vhcurveto
            return
          </CharString>
          <CharString index="46">
            20 12 -82 callsubr
            return
          </CharString>
          <CharString index="47">
            -38 callgsubr
            495 vlineto
            245 -571 258 602 rlineto
            -526 -26 callsubr
            return
          </CharString>
          <CharString index="48">
            rmoveto
            -19 -10 -15 -16 -21 -33 -41 39 -33 hhcurveto
            -26 -27 -22 -55 -18 47 callsubr
            36 49 -40 33 hhcurveto
            28 12 13 60 16 hvcurveto
            endchar
          </CharString>
          <CharString index="49">
            -46 0 -47 callgsubr
            return
          </CharString>
          <CharString index="50">
            62 vstem
            37 218 rmoveto
            -130 65 -95 133 149 63 112 100 155 -105 67 -119 -75 -42 -23 -16 -27 vhcurveto
            -8 -13 -10 -6 -9 hhcurveto
            -75 10 vlineto
            59 16 76 35 60 hhcurveto
            108 68 -84 -91 hvcurveto
            -146 -192 rmoveto
            -91 -48 79 77 hvcurveto
            285 hlineto
            -75 -53 -81 -93 vhcurveto
            return
          </CharString>
          <CharString index="51">
            rmoveto
            -98 3 -54 101 92 vvcurveto
            80 50 91 89 52 71 -47 -75 vhcurveto
            -137 vlineto
            -60 -54 -48 -56 vhcurveto
            return
          </CharString>
          <CharString index="52">
            -74 -7 38 -10 -21 395 32 return
          </CharString>
          <CharString index="53">
            10 vlineto
            -19 -11 -80 callgsubr
            return
          </CharString>
          <CharString index="54">
            -55 97 10 vlineto
            -21 -10 -20 callsubr
            return
          </CharString>
          <CharString index="55">
            342 hmoveto
            141 10 -7 hlineto
            -20 -11 -20 callsubr
            281 vlineto
            60 34 -38 -47 24 hvcurveto
            80 -161 rlineto
            -52 26 24 -48 73 hhcurveto
            47 10 hlineto
            -51 -35 71 31 -15 hvcurveto
            -78 160 rlineto
            64 -32 -41 36 -84 hhcurveto
            225 237 19 21 25 17 23 3 rlinecurve
            return
          </CharString>
          <CharString index="56">
            -47 callsubr
            -10 143 10 -5 hlineto
            -20 return
          </CharString>
          <CharString index="57">
            -27 callgsubr
            92 43 16 59 40 vvcurveto
            35 return
          </CharString>
          <CharString index="58">
            hvcurveto
            112 -152 -121 -164 rlineto
            -21 -15 -23 -18 -19 hhcurveto
            -10 94 10 vlineto
            -7 -4 3 7 7 7 11 4 5 hvcurveto
            return
          </CharString>
          <CharString index="59">
            41 callgsubr
            -232 vlineto
            -225 251 rlineto
            -7 8 -3 6 5 vvcurveto
            7 4 5 8 2 vhcurveto
            10 -97 -10 vlineto
            16 19 -17 -19 17 hvcurveto
            189 -211 -199 -332 -9 -12 -9 -10 -9 -9 rlinecurve
            -15 -15 -20 -15 -15 hhcurveto
            -10 return
          </CharString>
          <CharString index="60">
            -36 callsubr
            -5 return
          </CharString>
          <CharString index="61">
            33 20 vhcurveto
            5 10 return
          </CharString>
          <CharString index="62">
            10 -130 -10 vlineto
            20 -2 callgsubr
            -20 vhcurveto
            -10 return
          </CharString>
          <CharString index="63">
            101 74 -79 -92 -91 -84 -57 -84 -64 -62 33 75 -24 hvcurveto
            -10 -111 9 hlineto
            15 13 -4 -7 16 hvcurveto
            -11 25 return
          </CharString>
          <CharString index="64">
            -40 callgsubr
            -20 -11 -13 callgsubr
            -5 return
          </CharString>
          <CharString index="65">
            -91 callgsubr
            6 5 26 callgsubr
            -132 -10 vlineto
            28 13 -27 -16 7 hvcurveto
            148 -334 rlineto
            return
          </CharString>
          <CharString index="66">
            -32 2 callsubr
            return
          </CharString>
          <CharString index="67">
            -309 463 -21 113 -20 hstem
            192 -12 callsubr
          </CharString>
          <CharString index="68">
            rmoveto
            5 hlineto
            -52 callgsubr
            -235 vlineto
            return
          </CharString>
          <CharString index="69">
            410 hmoveto
            10 vlineto
            -23 -14 28 27 hvcurveto
            198 vlineto
            83 -24 81 -148 vhcurveto
            -88 -33 -42 -25 hhcurveto
            -78 9 vlineto
            44 14 37 44 69 hhcurveto
            41 79 -19 -104 5 hvcurveto
            -172 -42 -101 -41 -92 vvcurveto
            return
          </CharString>
          <CharString index="70">
            64 33 37 49 63 vvcurveto
            87 -72 74 -125 -49 -34 -11 -8 -25 vhcurveto
            -5 -15 -13 -4 -11 hhcurveto
            -9 return
          </CharString>
          <CharString index="71">
            vlineto
            -21 -12 -34 -21 vhcurveto
            return
          </CharString>
          <CharString index="72">
            11 vvcurveto
            29 5 23 53 50 vhcurveto
            -6 9 rlineto
            -92 -45 -17 -58 -39 vvcurveto
            -35 17 -31 39 vhcurveto
            endchar
          </CharString>
          <CharString index="73">
            8 hhcurveto
            10 -86 -43 callgsubr
            return
          </CharString>
          <CharString index="74">
            53 hhcurveto
            104 117 51 134 hvcurveto
            return
          </CharString>
          <CharString index="75">
            -5 -10 111 10 return
          </CharString>
          <CharString index="76">
            -24 -16 -17 -23 -28 -23 22 28 vhcurveto
            endchar
          </CharString>
          <CharString index="77">
            -36 -224 38 290 34 254 35 return
          </CharString>
          <CharString index="78">
            hstem
            78 66 238 65 vstem
            return
          </CharString>
          <CharString index="79">
            8 -5 8 -5 -11 vvcurveto
            -29 -4 -22 -53 -27 callgsubr
            return
          </CharString>
          <CharString index="80">
            10 hlineto
            71 21 57 32 55 hhcurveto
            68 70 -49 -80 -79 -69 -47 -80 hvcurveto
            -41 -34 36 hlineto
            return
          </CharString>
          <CharString index="81">
            vlineto
            -72 callsubr
            -5 hlineto
            return
          </CharString>
          <CharString index="82">
            -7 -9 37 -7 -21 431 -20 return
          </CharString>
          <CharString index="83">
            59 21 -21 292 34 return
          </CharString>
          <CharString index="84">
            -21 660 -20 return
          </CharString>
          <CharString index="85">
            vlineto
            -21 -11 -34 -20 vhcurveto
            -10 return
          </CharString>
          <CharString index="86">
            210 209 -34 callgsubr
            -7 -4 -7 -7 -7 8 callsubr
            return
          </CharString>
          <CharString index="87">
            36 19 hvcurveto
            return
          </CharString>
          <CharString index="88">
            15 callsubr
            -11 -14 -2 -16 hhcurveto
            -51 return
          </CharString>
          <CharString index="89">
            446 358 rmoveto
            19 9 33 23 vhcurveto
            return
          </CharString>
          <CharString index="90">
            hvcurveto
            -254 -252 rlineto
            return
          </CharString>
          <CharString index="91">
            -8 -7 78 callgsubr
            return
          </CharString>
          <CharString index="92">
            650 rmoveto
            return
          </CharString>
          <CharString index="93">
            -265 473 40 hstem
            29 473 -71 callsubr
          </CharString>
          <CharString index="94">
            61 72 -33 -60 -57 -64 -27 -61 -67 -63 33 56 -5 hvcurveto
            -9 -81 hlineto
            18 48 -41 89 hhcurveto
            93 88 43 84 44 -30 44 -75 16 hvcurveto
            return
          </CharString>
          <CharString index="95">
            448 -84 callsubr
          </CharString>
          <CharString index="96">
            -221 -21 208 return
          </CharString>
          <CharString index="97">
            21 60 callsubr
            return
          </CharString>
          <CharString index="98">
            64 52 63 return
          </CharString>
          <CharString index="99">
            11 -27 -34 8 -33 hhcurveto
            -128 -96 -89 -131 -72 30 -61 51 -39 hvcurveto
            -28 -45 rlineto
            51 hlineto
            5 7 5 10 5 7 rrcurveto
            return
          </CharString>
          <CharString index="100">
            vlineto
            -84 -28 -68 -28 -47 vhcurveto
            -17 -28 -18 -25 -20 -21 7 -7 rcurveline
            return
          </CharString>
          <CharString index="101">
            -31 callgsubr
            20 return
          </CharString>
          <CharString index="102">
            32 22 -20 -24 -26 callgsubr
            -10 hlineto
            -25 -23 -22 -31 vhcurveto
            -166 253 205 12 callgsubr
            return
          </CharString>
          <CharString index="103">
            10 -142 -10 5 hlineto
            -52 callgsubr
            return
          </CharString>
          <CharString index="104">
            258 427 rmoveto
            -49 -38 -19 -32 -27 hvcurveto
            return
          </CharString>
          <CharString index="105">
            -21 208 -20 hstemhm
            return
          </CharString>
          <CharString index="106">
            20 68 callgsubr
            return
          </CharString>
          <CharString index="107">
            32 -1 2 -25 -23 vvcurveto
            -277 -23 callgsubr
            -10 return
          </CharString>
          <CharString index="108">
            165 147 return
          </CharString>
          <CharString index="109">
            rlineto
            -9 vlineto
            return
          </CharString>
          <CharString index="110">
            -120 -8 36 366 33 return
          </CharString>
          <CharString index="111" raw="1">
            9f996a0b   
          </CharString>
          <CharString index="112">
            vvcurveto
            365 vlineto
            -96 -32 rlineto
            -5 vlineto
            31 -3 3 -25 -23 vvcurveto
            -277 vlineto
            -20 -11 -34 -21 -3 vhcurveto
            -6 vlineto
            return
          </CharString>
          <CharString index="113">
            21 11 -82 callsubr
            -206 vlineto
            -222 238 rlineto
            -3 4 -1 3 2 vvcurveto
            5 4 4 7 2 vhcurveto
            return
          </CharString>
          <CharString index="114">
            10 73 hlineto
            -4 -7 3 6 -9 hvcurveto
            9 -15 -20 12 -31 hhcurveto
            -65 -50 -60 -104 hvcurveto
            -81 -77 -34 77 return
          </CharString>
          <CharString index="115">
            -17 callsubr
            93 callgsubr
            return
          </CharString>
          <CharString index="116">
            13 10 rlineto
            5 7 7 5 7 hhcurveto
            10 -76 -10 vlineto
            4 2 -2 -3 -4 -5 -7 -5 -5 hvcurveto
            return
          </CharString>
          <CharString index="117">
            -37 -3 41 70 hvcurveto
            241 vlineto
            return
          </CharString>
          <CharString index="118">
            59 40 -17 callgsubr
            return
          </CharString>
          <CharString index="119">
            -10 vlineto
            32 -3 0 -22 -24 vvcurveto
            return
          </CharString>
          <CharString index="120">
            50 169 -20 hstem
            206 49 vstem
            255 664 rmoveto
            -49 -169 -169 -50 169 return
          </CharString>
          <CharString index="121">
            vhcurveto
            10 -126 -10 vlineto
            24 7 -35 -20 hvcurveto
            -322 -182 327 vlineto
            16 10 34 return
          </CharString>
          <CharString index="122">
            -25 60 28 27 -32 callgsubr
            return
          </CharString>
          <CharString index="123">
            143 13 -21 428 -20 31 -20 return
          </CharString>
          <CharString index="124">
            -79 21 -21 320 35 270 35 return
          </CharString>
          <CharString index="125">
            1 21 -21 394 37 return
          </CharString>
          <CharString index="126">
            -10 callsubr
            hstem
            return
          </CharString>
          <CharString index="127">
            hstemhm
            84 66 225 66 return
          </CharString>
          <CharString index="128">
            251 386 rmoveto
            34 -113 95 vlineto
            72 8 43 39 28 33 -29 -39 7 vhcurveto
            return
          </CharString>
          <CharString index="129">
            rmoveto
            -83 67 -68 84 84 68 68 83 85 -68 68 -84 -84 -67 -68 -85 vhcurveto
            endchar
          </CharString>
          <CharString index="130">
            27 27 -21 50 callsubr
            endchar
          </CharString>
          <CharString index="131">
            17 15 hhcurveto
            10 -97 -10 vlineto
            9 -2 4 -4 -7 vvcurveto
            -5 -3 -7 -7 -8 vhcurveto
            return
          </CharString>
          <CharString index="132">
            10 vlineto
            67 callgsubr
            return
          </CharString>
          <CharString index="133">
            44 66 callsubr
            93 return
          </CharString>
          <CharString index="134">
            126 -10 36 609 35 return
          </CharString>
          <CharString index="135">
            -10 59 callsubr
            return
          </CharString>
          <CharString index="136">
            -19 -13 5 -9 rcurveline
            31 15 29 17 25 23 rrcurveto
            43 38 43 59 84 vvcurveto
            return
          </CharString>
          <CharString index="137">
            189 63 callgsubr
            367 vlineto
            -100 -41 callsubr
            return
          </CharString>
          <CharString index="138">
            52 27 -61 -29 hvcurveto
            10 123 return
          </CharString>
          <CharString index="139">
            -95 -7 34 366 34 return
          </CharString>
          <CharString index="140">
            -31 -20 -27 -31 -32 vvcurveto
            return
          </CharString>
          <CharString index="141">
            -41 -8 35 608 35 return
          </CharString>
          <CharString index="142">
            49 51 61 67 47 -51 -63 vhcurveto
            -137 vlineto
            -72 -28 -54 -27 -36 vhcurveto
            return
          </CharString>
          <CharString index="143">
            10 -76 -10 vlineto
            9 15 -11 -7 7 hvcurveto
            -1 1 -1 2 vhcurveto
            129 return
          </CharString>
          <CharString index="144">
            hstemhm
            44 36 -36 63 255 65 -25 43 return
          </CharString>
          <CharString index="145">
            -58 callsubr
            43 return
          </CharString>
          <CharString index="146">
            133 vlineto
            43 25 -42 -29 hvcurveto
            10 104 return
          </CharString>
          <CharString index="147">
            27 callgsubr
            8 hhcurveto
            10 return
          </CharString>
          <CharString index="148">
            10 -128 -10 vlineto
            return
          </CharString>
          <CharString index="149">
            27 27 -21 21 -27 return
          </CharString>
          <CharString index="150">
            -20 -11 -80 callgsubr
            return
          </CharString>
          <CharString index="151">
            0 callsubr
            vlineto
            return
          </CharString>
          <CharString index="152">
            -48 35 -45 rlinecurve
            8 -10 4 -7 -5 vvcurveto
            -8 -8 -6 -11 vhcurveto
            return
          </CharString>
          <CharString index="153">
            -53 rlinecurve
            7 -9 8 -8 8 -7 rrcurveto
            -12 15 17 -12 21 hhcurveto
            return
          </CharString>
          <CharString index="154">
            hvcurveto
            5 -1 rlineto
            24 17 12 16 20 return
          </CharString>
          <CharString index="155">
            -68 -28 -50 -47 -50 -42 53 67 vhcurveto
            return
          </CharString>
          <CharString index="156">
            -7 33 -5 -21 393 34 return
          </CharString>
          <CharString index="157">
            21 -27 -27 -20 -21 -27 vhcurveto
            return
          </CharString>
          <CharString index="158">
            -21 337 35 288 -20 return
          </CharString>
          <CharString index="159">
            -20 20 callsubr
            return
          </CharString>
          <CharString index="160">
            vhcurveto
            91 callgsubr
            return
          </CharString>
          <CharString index="161">
            hstemhm
            36 64 209 64 return
          </CharString>
          <CharString index="162">
            -20 -12 -35 -21 vhcurveto
            -5 return
          </CharString>
          <CharString index="163">
            hstemhm
            77 66 -66 178 return
          </CharString>
          <CharString index="164">
            hhcurveto
            10 -107 -10 vlineto
            return
          </CharString>
          <CharString index="165">
            hlineto
            -344 -680 rlineto
            49 hlineto
            260 168 rmoveto
            76 return
          </CharString>
          <CharString index="166">
            35 610 35 return
          </CharString>
          <CharString index="167">
            -21 420 -20 return
          </CharString>
          <CharString index="168">
            51 hlineto
            177 131 -142 -171 hvcurveto
            endchar
          </CharString>
          <CharString index="169">
            61 hhcurveto
            38 10 hlineto
            -32 -41 39 29 -16 hvcurveto
            endchar
          </CharString>
          <CharString index="170">
            19 24 23 -14 5 -11 7 hvcurveto
            return
          </CharString>
          <CharString index="171">
            27 20 29 23 20 return
          </CharString>
          <CharString index="172">
            10 -109 -10 vlineto
            return
          </CharString>
          <CharString index="173">
            94 callgsubr
            10 return
          </CharString>
          <CharString index="174">
            99 callsubr
            -10 return
          </CharString>
          <CharString index="175">
            -21 108 -20 return
          </CharString>
          <CharString index="176">
            -9 19 24 -11 24 hhcurveto
            43 35 25 51 25 hvcurveto
            return
          </CharString>
          <CharString index="177">
            12 -23 -21 12 -23 hhcurveto
            -15 -17 -6 -5 -15 hvcurveto
            return
          </CharString>
          <CharString index="178">
            149 vlineto
            33 -3 35 -25 12 -31 48 -94 rcurveline
            return
          </CharString>
          <CharString index="179">
            -17 callgsubr
            endchar
          </CharString>
          <CharString index="180">
            -102 0 36 349 35 return
          </CharString>
          <CharString index="181">
            vhcurveto
            10 -124 -10 vlineto
            return
          </CharString>
          <CharString index="182">
            vhcurveto
            41 callsubr
            return
          </CharString>
          <CharString index="183">
            vlineto
            -61 callsubr
            return
          </CharString>
          <CharString index="184">
            10 -137 -10 return
          </CharString>
          <CharString index="185">
            -68 callgsubr
            130 10 vlineto
            return
          </CharString>
          <CharString index="186">
            10 vlineto
            -22 -9 33 20 hvcurveto
            142 vlineto
            39 return
          </CharString>
          <CharString index="187">
            hvcurveto
            -10 -102 hlineto
            12 17 -6 -5 15 hvcurveto
            -11 return
          </CharString>
          <CharString index="188">
            411 366 rmoveto
            23 9 16 21 21 hhcurveto
            return
          </CharString>
          <CharString index="189">
            -10 vlineto
            19 11 -82 callsubr
            return
          </CharString>
          <CharString index="190">
            36 319 34 255 36 return
          </CharString>
          <CharString index="191">
            -6 callsubr
            12 return
          </CharString>
          <CharString index="192">
            rrcurveto
            42 50 43 73 94 vvcurveto
            return
          </CharString>
          <CharString index="193">
            34 177 33 156 34 return
          </CharString>
          <CharString index="194">
            -165 21 -21 387 33 return
          </CharString>
          <CharString index="195">
            -20 hstemhm
            37 64 262 66 return
          </CharString>
          <CharString index="196">
            -20 hstemhm
            78 66 260 66 return
          </CharString>
          <CharString index="197">
            0 35 303 34 return
          </CharString>
          <CharString index="198">
            0 34 352 34 return
          </CharString>
          <CharString index="199">
            0 33 172 33 return
          </CharString>
          <CharString index="200">
            -280 21 -21 return
          </CharString>
          <CharString index="201" raw="1">
            0713cf81 07b41d0b  
          </CharString>
          <CharString index="202">
            rlineto
            49 -7 28 -24 -21 vvcurveto
            -28 -42 -27 return
          </CharString>
          <CharString index="203">
            -8 -7 33 -15 -21 404 33 3 -20 return
          </CharString>
          <CharString index="204">
            -64 133 53 416 -20 hstem
            427 return
          </CharString>
          <CharString index="205">
            -251 21 -21 386 34 210 34 return
          </CharString>
          <CharString index="206">
            -11 -33 -20 vhcurveto
            return
          </CharString>
        <CharString name=".notdef">
          -271 endchar
        </CharString>
        <CharString name="A">
          -24 callsubr
          354 -20 hstem
          -107 callgsubr
          endchar
        </CharString>
        <CharString name="AE">
          -79 callgsubr
        </CharString>
        <CharString name="AEacute">
          269 90 callsubr
          52 -20 221 35 43 -21 113 -20 hstem
          415 67 vstem
          681 289 rmoveto
          10 135 -10 -5 hlineto
          -25 -23 -22 -31 vhcurveto
          -145 253 184 hlineto
          43 94 callgsubr
          -5 10 98 -363 -10 5 vlineto
          15 18 -18 -19 hvcurveto
          -334 -549 rlineto
          -27 -17 -23 -27 -20 -65 callgsubr
          -12 -6 6 12 35 callgsubr
          -14 -33 -20 vhcurveto
          -5 -10 388 129 -10 -5 hlineto
          -35 -23 -54 -51 vhcurveto
          -198 303 145 hlineto
          32 22 -20 -24 hvcurveto
          -373 78 rmoveto
          107 178 rlineto
          -178 vlineto
          47 310 -97 callgsubr
        </CharString>
        <CharString name="Aacute">
          -24 callsubr
          469 -20 hstem
          -107 callgsubr
          17 356 -97 callgsubr
        </CharString>
        <CharString name="Abreve">
          -24 callsubr
          365 39 65 -20 hstem
          184 224 vstem
          -107 callgsubr
          204 469 -94 callsubr
        </CharString>
        <CharString name="Acircumflex">
          -24 callsubr
          467 -20 hstem
          -107 callgsubr
          220 364 -99 callsubr
        </CharString>
        <CharString name="Adieresis">
          -24 callsubr
          360 64 hstem
          207 -9 callsubr
          vstem
          -107 callgsubr
          188 392 -106 callsubr
        </CharString>
        <CharString name="Agrave">
          -24 callsubr
          469 -20 hstem
          -107 callgsubr
          182 362 -84 callsubr
        </CharString>
        <CharString name="Amacron">
          59 21 -21 713 40 hstem
          -107 callgsubr
          -2 387 -71 callsubr
        </CharString>
        <CharString name="Aogonek">
          59 -139 149 11 -21 292 34 354 -20 hstemhm
          412 48 hintmask 01111000
          575 hmoveto
          hintmask 10111000
          10 -5 vlineto
          -21 -20 33 25 -11 hvcurveto
          -224 604 -229 -610 rlineto
          -27 -11 -18 -25 -17 hhcurveto
          -5 hlineto
          hintmask 01111000
          -10 111 vlineto
          hintmask 10111000
          10 -5 vlineto
          -11 -11 11 17 5 1 5 2 5 hvcurveto
          87 239 rlineto
          175 hlineto
          90 -243 rlineto
          2 -6 1 -6 -5 vvcurveto
          -15 -8 -7 -16 vhcurveto
          -5 hlineto
          hintmask 01111000
          -10 43 vlineto
          33 callsubr
          hintmask 10111000
          -31 26 -19 callsubr
          -16 24 25 hvcurveto
          hintmask 01111000
          64 callsubr
          vhcurveto
          -228 535 rmoveto
          77 -209 rlineto
          -154 hlineto
          endchar
        </CharString>
        <CharString name="Aring">
          -24 callsubr
          364 119 hstem
          224 28 90 27 vstem
          -107 callgsubr
          26 423 -64 callsubr
          -24 -16 -17 -23 -28 -23 22 28 vhcurveto
          endchar
        </CharString>
        <CharString name="Atilde">
          59 21 -21 694 39 1 38 hstem
          -107 callgsubr
          208 442 -59 callsubr
        </CharString>
        <CharString name="B">
          -75 callsubr
        </CharString>
        <CharString name="C">
          56 callgsubr
          hstem
          39 68 vstem
          397 -101 callsubr
          endchar
        </CharString>
        <CharString name="CR">
          -271 endchar
        </CharString>
        <CharString name="Cacute">
          56 callgsubr
          33 -21 113 -20 hstem
          39 68 vstem
          397 -101 callsubr
          -167 48 -97 callgsubr
        </CharString>
        <CharString name="Ccaron">
          89 -10 36 608 36 33 42 callgsubr
          36 68 vstem
          394 -101 callsubr
          -140 152 -92 callgsubr
        </CharString>
        <CharString name="Ccedilla">
          89 -179 208 -38 38 605 36 hstemhm
          36 68 304 49 hintmask 01111000
          395 -10 rmoveto
          41 3 42 8 32 8 rrcurveto
          7 27 22 6 20 hhcurveto
          111 -10 vlineto
          -88 -31 -89 -16 -47 hhcurveto
          -167 -131 148 161 140 93 156 197 61 76 -19 -84 16 hvcurveto
          10 111 hlineto
          -16 -16 3 7 -20 hvcurveto
          8 -28 -35 10 -44 hhcurveto
          -245 -117 -176 -165 -161 109 -166 218 -11 hvcurveto
          -32 -52 rlineto
          49 -7 28 -23 -23 vvcurveto
          -28 -41 -26 -51 24 callgsubr
          35 35 28 -26 24 -60 7 hvcurveto
          7 14 8 13 9 13 rrcurveto
          endchar
        </CharString>
        <CharString name="Ccircumflex">
          56 callgsubr
          36 42 callgsubr
          39 68 vstem
          397 -101 callsubr
          104 56 -99 callsubr
        </CharString>
        <CharString name="Cdotaccent">
          56 callgsubr
          33 76 hstem
          39 68 236 77 vstem
          397 -101 callsubr
          -54 107 -98 callsubr
        </CharString>
        <CharString name="D">
          85 92 callgsubr
          hstem
          81 67 359 -79 callsubr
          endchar
        </CharString>
        <CharString name="Dcaron">
          85 92 callgsubr
          43 42 callgsubr
          81 67 359 -79 callsubr
          -438 474 -92 callgsubr
        </CharString>
        <CharString name="Dcroat">
          85 0 35 276 40 274 35 hstem
          82 66 359 68 70 callgsubr
          -247 -51 -40 51 -246 vlineto
          -72 callsubr
          -5 -10 179 hlineto
          233 118 165 162 173 -126 160 -212 hvcurveto
          -192 hlineto
          462 -348 rmoveto
          -189 -162 -88 -144 vhcurveto
          -53 276 175 40 -175 274 61 callsubr
        </CharString>
        <CharString name="Delta">
          154 0 42 644 -20 hstem
          13 hmoveto
          656 hlineto
          -328 686 rlineto
          230 -644 rmoveto
          -488 hlineto
          246 525 rlineto
          endchar
        </CharString>
        <CharString name="E">
          -58 callsubr
          hstem
          84 67 vstem
          45 hmoveto
          -105 callgsubr
          endchar
        </CharString>
        <CharString name="Eacute">
          38 callsubr
          -21 113 -20 hstem
          84 67 vstem
          45 hmoveto
          -105 callgsubr
          116 672 -97 callgsubr
        </CharString>
        <CharString name="Ebreve">
          -58 callsubr
          31 39 65 -20 hstemhm
          84 67 -21 224 hintmask 11111100
          45 hmoveto
          -105 callgsubr
          303 785 rmoveto
          -15 -5 -19 -50 -82 hhcurveto
          -80 -24 50 15 -2 hvcurveto
          hintmask 11111010
          -6 hlineto
          -48 50 -56 63 67 44 60 44 vhcurveto
          endchar
        </CharString>
        <CharString name="Ecaron">
          38 callsubr
          42 callgsubr
          84 67 vstem
          45 hmoveto
          -105 callgsubr
          74 776 -92 callgsubr
        </CharString>
        <CharString name="Ecircumflex">
          -58 callsubr
          46 42 callgsubr
          84 67 vstem
          45 hmoveto
          -105 callgsubr
          319 680 -99 callsubr
        </CharString>
        <CharString name="Edieresis">
          -58 callsubr
          26 64 hstem
          84 67 1 -9 callsubr
          vstem
          45 hmoveto
          -105 callgsubr
          286 708 -106 callsubr
        </CharString>
        <CharString name="Edotaccent">
          38 callsubr
          76 hstem
          84 67 53 77 vstem
          45 hmoveto
          -105 callgsubr
          159 731 -98 callsubr
        </CharString>
        <CharString name="Egrave">
          38 callsubr
          -21 113 -20 hstem
          84 67 vstem
          45 hmoveto
          -105 callgsubr
          281 683 rmoveto
          -142 102 -26 -45 166 -63 rlineto
          endchar
        </CharString>
        <CharString name="Emacron">
          -58 callsubr
          53 40 hstem
          84 67 vstem
          45 hmoveto
          -105 callgsubr
          97 703 -71 callsubr
        </CharString>
        <CharString name="Eng">
          97 -226 -21 268 -23 callsubr
          hstemhm
          83 34 362 61 -34 34 hintmask 11111000
          150 10 rmoveto
          -38 callgsubr
          509 vlineto
          362 -574 rlineto
          -75 -32 -57 16 callgsubr
          34 16 30 20 27 23 rrcurveto
          45 40 46 61 88 vvcurveto
          597 vlineto
          19 12 33 21 vhcurveto
          5 10 -111 -10 5 hlineto
          hintmask 11110100
          20 14 -82 callsubr
          -510 vlineto
          -363 572 rlineto
          -98 -10 5 hlineto
          29 4 -82 callsubr
          -40 callgsubr
          -20 -13 -13 callgsubr
          -5 -10 110 10 -5 hlineto
          endchar
        </CharString>
        <CharString name="Eogonek">
          -46 -139 174 -35 -47 callgsubr
          hstemhm
          84 67 146 48 hintmask 01111100
          45 hmoveto
          310 hlineto
          33 callsubr
          hintmask 10111100
          -31 26 -19 callsubr
          -16 24 25 hvcurveto
          hintmask 01111100
          64 callsubr
          vhcurveto
          67 124 -10 hlineto
          4 callgsubr
          303 166 hlineto
          -5 callsubr
          -385 -94 callgsubr
          endchar
        </CharString>
        <CharString name="Eth">
          85 0 35 276 40 274 35 hstem
          82 66 359 68 70 callgsubr
          -247 -51 -40 51 -246 vlineto
          -72 callsubr
          -5 -10 179 hlineto
          233 118 165 162 173 -126 160 -212 hvcurveto
          -192 hlineto
          462 -348 rmoveto
          -189 -162 -88 -144 vhcurveto
          -53 276 175 40 -175 274 61 callsubr
        </CharString>
        <CharString name="Euro">
          2 -10 37 227 38 93 39 208 37 hstem
          432 134 rmoveto
          -9 hlineto
          -72 -11 -50 -35 -37 hhcurveto
          -95 -55 113 114 -29 hvcurveto
          270 38 -277 hlineto
          -5 25 -2 28 27 vvcurveto
          13 285 39 -282 vlineto
          104 16 61 104 80 hhcurveto
          46 50 -19 -78 19 hvcurveto
          10 108 hlineto
          -13 -15 4 7 -19 hvcurveto
          7 -23 -24 8 -21 hhcurveto
          -100 -95 -90 -155 -29 hvcurveto
          -66 -39 61 hlineto
          -3 -17 1 -21 -17 vvcurveto
          -15 1 -12 1 -11 vhcurveto
          -61 -38 64 hlineto
          -165 24 104 -99 106 hhcurveto
          36 27 12 9 19 hvcurveto
          6 3 rlineto
          7 13 10 3 11 hhcurveto
          endchar
        </CharString>
        <CharString name="F">
          49 callgsubr
          hstem
          84 67 vstem
          184 10 rmoveto
          57 callgsubr
          275 166 vlineto
          -5 callsubr
          -384 -10 5 hlineto
          22 11 -82 callsubr
          -535 21 callgsubr
          -5 -10 143 10 -5 hlineto
          endchar
        </CharString>
        <CharString name="G">
          27 callsubr
          hstem
          37 67 409 67 vstem
          475 338 -39 callsubr
          -99 callgsubr
          endchar
        </CharString>
        <CharString name="Gbreve">
          27 callsubr
          21 39 65 -20 hstem
          37 67 160 224 25 67 vstem
          475 338 -39 callsubr
          -99 callgsubr
          7 447 -94 callsubr
        </CharString>
        <CharString name="Gcircumflex">
          27 callsubr
          36 42 callgsubr
          37 67 409 67 vstem
          475 338 -39 callsubr
          -99 callgsubr
          39 342 -99 callsubr
        </CharString>
        <CharString name="Gdotaccent">
          27 callsubr
          33 76 hstem
          37 67 247 77 85 67 vstem
          475 338 -39 callsubr
          -99 callgsubr
          -124 393 -98 callsubr
        </CharString>
        <CharString name="H">
          91 21 51 callsubr
          hstem
          94 67 320 67 vstem
          444 hmoveto
          140 10 -5 hlineto
          -18 -13 -80 callgsubr
          533 vlineto
          19 10 33 21 vhcurveto
          5 10 -140 -10 5 hlineto
          -81 callsubr
          -272 28 callgsubr
          hlineto
          endchar
        </CharString>
        <CharString name="Hbar">
          91 21 -21 338 34 104 32 -32 184 hstemhm
          82 67 320 67 hintmask 11101100
          45 -31 callgsubr
          21 11 -82 callsubr
          -90 -54 -32 54 -411 28 callgsubr
          -10 140 10 -5 hlineto
          43 callsubr
          273 320 48 callgsubr
          -10 140 10 -5 hlineto
          -18 -14 -80 callgsubr
          411 49 32 -49 90 vlineto
          19 11 33 21 vhcurveto
          5 hlineto
          hintmask 11011100
          10 -140 -10 5 vlineto
          41 callgsubr
          hintmask 11101100
          -90 -320 90 vlineto
          19 10 33 21 vhcurveto
          5 hlineto
          hintmask 11011100
          10 -140 vlineto
          104 -288 rmoveto
          104 320 -104 vlineto
          endchar
        </CharString>
        <CharString name="Hcircumflex">
          91 21 51 callsubr
          153 -20 hstem
          89 67 320 67 vstem
          439 hmoveto
          140 10 -5 hlineto
          -18 -13 -80 callgsubr
          533 vlineto
          19 10 33 21 vhcurveto
          5 10 -140 -10 5 hlineto
          -81 callsubr
          -272 28 callgsubr
          hlineto
          -7 680 -99 callsubr
        </CharString>
        <CharString name="I">
          -288 -16 callgsubr
          87 68 vstem
          -84 callgsubr
          143 10 -5 hlineto
          -72 callgsubr
          10 -143 hlineto
          endchar
        </CharString>
        <CharString name="Iacute">
          -288 -44 callgsubr
          63 -21 113 -20 hstem
          87 68 vstem
          -84 callgsubr
          143 10 -5 hlineto
          -72 callgsubr
          10 -143 hlineto
          -9 22 -97 callgsubr
        </CharString>
        <CharString name="Ibreve">
          -288 21 -21 660 75 callgsubr
          9 224 -146 68 hintmask 11110100
          -84 callgsubr
          143 10 -5 hlineto
          -72 callgsubr
          10 -143 hlineto
          178 135 rmoveto
          -15 -5 -19 -50 -82 hhcurveto
          -80 -24 50 15 -2 hvcurveto
          hintmask 11111000
          -6 hlineto
          -48 50 -56 63 67 44 60 44 vhcurveto
          endchar
        </CharString>
        <CharString name="Icircumflex">
          -288 -44 callgsubr
          66 42 callgsubr
          87 68 vstem
          -84 callgsubr
          143 10 -5 hlineto
          -72 callgsubr
          10 -143 hlineto
          194 30 -99 callsubr
        </CharString>
        <CharString name="Idieresis">
          -288 21 -21 650 100 -90 -20 46 64 hstemhm
          31 64 -8 68 -8 63 hintmask 11000100
          -84 callgsubr
          143 10 -5 hlineto
          -72 callgsubr
          hlineto
          hintmask 10111010
          10 -143 vlineto
          hintmask 11001010
          161 58 rmoveto
          19 -14 13 -16 -19 -14 -13 -19 vhcurveto
          hintmask 10111010
          -19 14 -13 19 16 -104 callsubr
        </CharString>
        <CharString name="Idotaccent">
          -288 21 -21 650 129 -119 -20 63 76 hstemhm
          87 68 hintmask 11001000
          -84 callgsubr
          143 10 -5 hlineto
          -72 callgsubr
          hlineto
          hintmask 10111000
          10 -143 vlineto
          hintmask 11001000
          34 81 rmoveto
          hintmask 10111000
          -23 15 -15 23 23 16 15 23 23 -16 15 -23 -23 -15 -15 -23 vhcurveto
          endchar
        </CharString>
        <CharString name="Igrave">
          -288 -44 callgsubr
          63 -21 113 -20 hstem
          87 68 vstem
          -84 callgsubr
          143 10 -5 hlineto
          -72 callgsubr
          10 -143 hlineto
          156 28 -84 callsubr
        </CharString>
        <CharString name="Imacron">
          -288 -44 callgsubr
          73 40 hstem
          87 68 vstem
          -84 callgsubr
          143 10 -5 hlineto
          -72 callgsubr
          10 -143 hlineto
          -28 53 -71 callsubr
        </CharString>
        <CharString name="Iogonek">
          -288 -139 149 11 -23 callsubr
          hstemhm
          43 48 -4 68 hintmask 01110000
          49 hmoveto
          52 hlineto
          33 callsubr
          hintmask 10110000
          -31 26 15 callsubr
          -12 -14 -2 -15 hhcurveto
          -51 -16 24 25 hvcurveto
          hintmask 01110000
          64 callsubr
          vhcurveto
          58 hlineto
          hintmask 10101000
          10 -5 vlineto
          -72 callgsubr
          10 -143 -10 5 hlineto
          21 12 -33 -19 hvcurveto
          -533 -47 callsubr
          hlineto
          endchar
        </CharString>
        <CharString name="Itilde">
          -288 21 -21 650 83 -73 -20 54 39 1 38 hstemhm
          87 68 hintmask 11001100
          -84 callgsubr
          143 10 -5 hlineto
          -72 callgsubr
          hlineto
          hintmask 10111100
          10 -143 vlineto
          hintmask 11001100
          182 108 rmoveto
          -19 -11 -14 -16 -21 -33 -41 39 -33 hhcurveto
          -27 -25 -21 -56 -19 hvcurveto
          hintmask 10111100
          5 -1 rlineto
          24 17 12 16 20 34 52 -40 32 hhcurveto
          28 12 13 60 16 hvcurveto
          endchar
        </CharString>
        <CharString name="J">
          -261 -189 -21 870 -20 hstem
          112 68 vstem
          75 84 callsubr
          -34 -19 hvcurveto
          -572 vlineto
          -73 -32 -56 -31 -39 vhcurveto
          -18 -23 -21 -19 -23 -17 5 -8 rcurveline
          35 17 32 20 27 25 rrcurveto
          47 42 47 62 84 vvcurveto
          557 vlineto
          19 14 34 20 vhcurveto
          5 10 -144 hlineto
          endchar
        </CharString>
        <CharString name="Jcircumflex">
          -261 -189 -21 870 -20 66 42 callgsubr
          112 68 vstem
          75 84 callsubr
          -34 -19 hvcurveto
          -572 vlineto
          -73 -32 -56 -31 -39 vhcurveto
          -18 -23 -21 -19 -23 -17 5 -8 rcurveline
          35 17 32 20 27 25 rrcurveto
          47 42 47 62 84 vvcurveto
          557 vlineto
          19 14 34 20 vhcurveto
          5 10 -144 hlineto
          191 30 -99 callsubr
        </CharString>
        <CharString name="K">
          35 -16 callgsubr
          83 67 vstem
          183 10 rmoveto
          -20 -13 -20 callsubr
          250 vlineto
          42 43 194 -293 rlineto
          -47 31 25 -18 80 hhcurveto
          24 10 hlineto
          -40 -41 55 6 -3 hvcurveto
          -221 335 210 209 rlineto
          -24 callgsubr
          5 10 -122 -10 5 hlineto
          8 4 -5 -11 -6 -2 -5 -4 -5 -42 callgsubr
          5 10 -143 -10 5 hlineto
          30 callgsubr
          -5 hlineto
          endchar
        </CharString>
        <CharString name="L">
          -66 0 37 623 -20 hstem
          84 67 vstem
          45 hmoveto
          33 callgsubr
          4 callgsubr
          561 hlineto
          -6 callgsubr
          -94 callgsubr
          endchar
        </CharString>
        <CharString name="Lacute">
          -66 0 37 623 -20 63 -21 113 -20 hstem
          84 67 vstem
          45 hmoveto
          33 callgsubr
          4 callgsubr
          561 hlineto
          -6 callgsubr
          -94 callgsubr
          -8 672 -97 callgsubr
        </CharString>
        <CharString name="Lcaron">
          -66 0 37 622 -20 21 -20 hstemhm
          84 67 42 97 -57 57 hintmask 10111000
          45 hmoveto
          33 callgsubr
          4 callgsubr
          561 hlineto
          -6 callgsubr
          -94 callgsubr
          hintmask 11011000
          189 649 29 callgsubr
          -23 13 -5 11 -7 hvcurveto
          hintmask 11010100
          -71 callgsubr
        </CharString>
        <CharString name="Ldot">
          -66 0 37 108 95 420 -20 hstem
          84 67 34 95 vstem
          45 hmoveto
          33 callgsubr
          4 callgsubr
          561 hlineto
          -6 callgsubr
          -94 callgsubr
          140 182 31 callgsubr
          endchar
        </CharString>
        <CharString name="Lslash">
          -66 0 37 623 -20 hstem
          84 67 vstem
          45 -6 callsubr
          14 -82 callsubr
          -392 vlineto
          -58 -41 23 -30 12 8 11 10 12 8 rlinecurve
          -98 vlineto
          -20 -14 -33 -20 vhcurveto
          -5 -10 33 callgsubr
          4 callgsubr
          171 hlineto
          112 81 -22 30 -28 -21 -34 -23 -28 -21 rlinecurve
          344 vlineto
          -6 callgsubr
          hlineto
          endchar
        </CharString>
        <CharString name="M">
          246 2 -21 40 -23 callsubr
          hstem
          82 35 503 67 vstem
          583 hmoveto
          142 10 -5 hlineto
          -38 callgsubr
          533 vlineto
          19 12 33 21 vhcurveto
          5 10 -113 hlineto
          -232 -547 -232 547 rlineto
          -102 -10 5 hlineto
          41 callgsubr
          9 callgsubr
          109 10 -5 hlineto
          -60 callsubr
          endchar
        </CharString>
        <CharString name="N">
          97 21 -21 660 -80 callsubr
          -5 hlineto
          endchar
        </CharString>
        <CharString name="NULL">
          -531 endchar
        </CharString>
        <CharString name="Nacute">
          97 -44 callgsubr
          63 -21 113 -80 callsubr
          hlineto
          77 672 -97 callgsubr
        </CharString>
        <CharString name="Ncaron">
          97 -44 callgsubr
          63 -21 108 -80 callsubr
          hlineto
          35 776 -92 callgsubr
        </CharString>
        <CharString name="Ntilde">
          97 -44 callgsubr
          54 39 1 38 hstem
          82 35 389 35 vstem
          150 10 -77 callsubr
          268 758 -93 callsubr
        </CharString>
        <CharString name="O">
          28 callsubr
          hstem
          37 67 546 -107 callsubr
          endchar
        </CharString>
        <CharString name="OE">
          362 -11 35 -23 23 313 34 253 -20 30 35 hstemhm
          45 66 380 67 hintmask 10111110
          842 123 rmoveto
          -35 -24 -54 -51 vhcurveto
          -209 303 157 hlineto
          31 22 -20 -24 -26 callgsubr
          -10 hlineto
          -25 -22 -22 -31 vhcurveto
          -157 253 195 12 callgsubr
          -362 hlineto
          7 -27 -29 3 -29 hhcurveto
          -219 -116 -174 -173 -172 115 -161 206 hvcurveto
          hintmask 01111110
          31 31 4 8 30 hvcurveto
          394 122 hlineto
          -741 213 rmoveto
          136 90 162 166 43 45 -9 -25 36 vhcurveto
          -549 vlineto
          -15 -32 -40 -12 -40 hhcurveto
          -160 -108 1 callsubr
          hvcurveto
          endchar
        </CharString>
        <CharString name="Oacute">
          28 callsubr
          33 -21 113 -20 hstem
          37 67 546 -107 callsubr
          -82 657 -97 callgsubr
        </CharString>
        <CharString name="Obreve">
          28 callsubr
          21 39 65 -20 hstem
          37 67 164 224 158 -107 callsubr
          105 770 -94 callsubr
        </CharString>
        <CharString name="Ocircumflex">
          28 callsubr
          36 42 callgsubr
          37 67 546 -107 callsubr
          121 665 -99 callsubr
        </CharString>
        <CharString name="Odieresis">
          28 callsubr
          16 64 hstem
          37 67 186 -9 callsubr
          181 -107 callsubr
          88 693 -106 callsubr
        </CharString>
        <CharString name="Ograve">
          28 callsubr
          33 -21 113 -20 hstem
          37 67 546 -107 callsubr
          83 663 -84 callsubr
        </CharString>
        <CharString name="Ohungarumlaut">
          28 callsubr
          36 -21 171 -20 hstem
          37 67 546 -107 callsubr
          -112 661 -83 callgsubr
        </CharString>
        <CharString name="Omacron">
          28 callsubr
          43 40 hstem
          37 67 546 -107 callsubr
          -101 688 -71 callsubr
        </CharString>
        <CharString name="Oslash">
          -40 -21 51 59 callsubr
          44 -20 hstem
          37 67 546 68 vstem
          382 670 rmoveto
          -219 -126 -175 -172 -131 78 -129 128 -51 hvcurveto
          -27 -73 rlineto
          41 hlineto
          23 62 rlineto
          -7 29 30 -4 29 hhcurveto
          192 158 142 200 135 -77 125 -125 53 hvcurveto
          26 69 rlineto
          -40 hlineto
          -22 -58 rlineto
          9 -31 -33 5 -34 hhcurveto
          -278 -333 rmoveto
          136 100 162 165 34 32 -7 -13 31 vhcurveto
          -206 -555 rlineto
          -93 56 -63 118 103 vvcurveto
          277 -312 rmoveto
          -29 -29 5 11 -29 hvcurveto
          205 556 rlineto
          93 -59 58 -115 -103 vvcurveto
          -133 -90 -154 -179 -8 vhcurveto
          endchar
        </CharString>
        <CharString name="Oslashacute">
          -40 -21 51 59 callsubr
          125 -20 hstem
          37 67 546 -107 callsubr
          158 679 97 callgsubr
          42 743 -97 callgsubr
        </CharString>
        <CharString name="Otilde">
          28 callsubr
          24 39 1 38 hstem
          37 67 546 -107 callsubr
          109 743 -93 callsubr
        </CharString>
        <CharString name="P">
          17 callsubr
          hstem
          80 68 197 -91 callsubr
          endchar
        </CharString>
        <CharString name="Q">
          240 -168 53 105 59 callsubr
          hstem
          40 67 546 67 vstem
          384 670 rmoveto
          -217 -127 -175 -172 -168 140 -165 186 60 75 17 29 45 hvcurveto
          34 -36 rlineto
          -131 123 122 -37 123 hhcurveto
          123 135 50 96 88 hvcurveto
          -6 9 rlineto
          -72 -91 -116 -30 -88 hhcurveto
          -103 -147 55 97 -105 hvcurveto
          -33 37 rlineto
          63 58 52 83 119 vvcurveto
          164 -129 172 -207 vhcurveto
          -1 -645 rmoveto
          -160 -116 165 148 135 99 162 166 168 113 -168 -148 -132 -90 -154 -180 -8 hvcurveto
          endchar
        </CharString>
        <CharString name="R">
          9 21 -21 626 34 hstem
          82 67 210 69 vstem
          181 10 -96 callsubr
          endchar
        </CharString>
        <CharString name="Racute">
          9 21 -21 626 34 43 -21 113 -20 hstem
          82 67 210 69 vstem
          181 10 -96 callsubr
          39 56 -97 callgsubr
        </CharString>
        <CharString name="Rcaron">
          9 21 -21 626 34 43 42 callgsubr
          82 67 210 69 vstem
          181 10 -96 callsubr
          -3 160 -92 callgsubr
        </CharString>
        <CharString name="S">
          34 callsubr
          hstem
          36 68 277 -100 callsubr
          endchar
        </CharString>
        <CharString name="Sacute">
          34 callsubr
          33 -21 113 -20 hstem
          36 68 277 -100 callsubr
          -287 505 -97 callgsubr
        </CharString>
        <CharString name="Scaron">
          34 callsubr
          33 42 callgsubr
          36 68 277 -100 callsubr
          -329 609 -92 callgsubr
        </CharString>
        <CharString name="Scedilla">
          -41 -179 206 -35 35 608 35 hstemhm
          36 68 168 48 61 69 hintmask 10111100
          261 -6 rmoveto
          93 8 96 55 120 vvcurveto
          124 -102 38 -92 35 vhcurveto
          -80 29 -72 30 74 vvcurveto
          46 25 82 107 92 54 -20 -69 3 vhcurveto
          10 103 hlineto
          -20 -21 4 5 -23 hvcurveto
          7 -28 -30 5 -35 hhcurveto
          -102 -100 -55 -117 -112 93 -34 91 -35 hvcurveto
          80 -32 81 -28 -88 vvcurveto
          -68 -49 -74 -115 -33 -122 13 101 vhcurveto
          -10 -114 hlineto
          17 16 -5 -9 27 hvcurveto
          hintmask 01111100
          -11 31 35 -10 49 hhcurveto
          -32 -53 rlineto
          49 -7 28 -23 -23 vvcurveto
          -28 -42 -26 -51 vhcurveto
          -11 -8 hlineto
          4 5 -1 7 hhcurveto
          hintmask 10111100
          -1 8 8 -1 8 hhcurveto
          72 40 35 35 28 -25 24 -59 7 hvcurveto
          endchar
        </CharString>
        <CharString name="Scircumflex">
          34 callsubr
          36 42 callgsubr
          36 68 277 -100 callsubr
          -84 513 -99 callsubr
        </CharString>
        <CharString name="T">
          -63 21 -21 623 37 hstem
          199 67 vstem
          298 10 rmoveto
          -90 callgsubr
          -5 hlineto
          endchar
        </CharString>
        <CharString name="Tbar">
          -63 21 -21 429 37 157 37 hstem
          199 67 vstem
          298 10 34 callgsubr
          364 122 37 -122 157 118 vlineto
          43 21 -41 -31 hvcurveto
          10 109 -449 -109 10 hlineto
          31 21 41 43 vhcurveto
          116 -157 -114 -37 114 -364 hlineto
          55 callsubr
          -10 142 10 -5 hlineto
          endchar
        </CharString>
        <CharString name="Tcaron">
          -63 21 -21 623 37 43 42 callgsubr
          199 67 vstem
          298 10 rmoveto
          -35 callgsubr
          -191 776 -92 callgsubr
        </CharString>
        <CharString name="Thorn">
          -73 21 -21 240 35 270 35 -35 115 hstemhm
          82 68 196 67 hintmask 11101100
          182 10 34 callgsubr
          175 37 vlineto
          108 118 64 114 104 -78 58 -148 hvcurveto
          -37 18 hlineto
          -1 callsubr
          5 hlineto
          hintmask 11011100
          10 -143 -10 5 vlineto
          -92 callsubr
          143 10 hlineto
          -37 265 rmoveto
          270 13 vlineto
          136 47 -64 -78 -64 -59 -64 -108 hvcurveto
          endchar
        </CharString>
        <CharString name="U">
          -15 callgsubr
          hstem
          82 67 313 35 70 callgsubr
          -395 vlineto
          -169 90 -44 120 113 92 41 173 vhcurveto
          394 vlineto
          19 12 -46 callsubr
          -109 -10 -74 callgsubr
          -397 vlineto
          -84 -19 -94 -133 -121 -40 76 104 vhcurveto
          395 vlineto
          19 12 33 21 vhcurveto
          5 10 -142 hlineto
          endchar
        </CharString>
        <CharString name="Uacute">
          -15 callgsubr
          63 -21 113 -20 hstem
          82 67 313 35 70 callgsubr
          -395 vlineto
          -169 90 -44 120 113 92 41 173 vhcurveto
          394 vlineto
          19 12 -46 callsubr
          -109 -10 -74 callgsubr
          -397 vlineto
          -84 -19 -94 -133 -121 -40 76 104 vhcurveto
          395 vlineto
          19 12 33 21 vhcurveto
          5 10 -142 hlineto
          165 22 -97 callgsubr
        </CharString>
        <CharString name="Ubreve">
          -15 callgsubr
          51 39 65 -20 hstem
          82 67 30 224 59 35 70 callgsubr
          -395 vlineto
          -169 90 -44 120 113 92 41 173 vhcurveto
          394 vlineto
          19 12 -46 callsubr
          -109 -10 -74 callgsubr
          -397 vlineto
          -84 -19 -94 -133 -121 -40 76 104 vhcurveto
          395 vlineto
          19 12 33 21 vhcurveto
          5 10 -142 hlineto
          352 135 -94 callsubr
        </CharString>
        <CharString name="Ucircumflex">
          -15 callgsubr
          66 42 callgsubr
          82 67 313 35 70 callgsubr
          -395 vlineto
          -169 90 -44 120 113 92 41 173 vhcurveto
          394 vlineto
          19 12 -46 callsubr
          -109 -10 -74 callgsubr
          -397 vlineto
          -84 -19 -94 -133 -121 -40 76 104 vhcurveto
          395 vlineto
          19 12 33 21 vhcurveto
          5 10 -142 hlineto
          368 30 -99 callsubr
        </CharString>
        <CharString name="Udieresis">
          -15 callgsubr
          46 64 hstem
          82 67 53 -9 callsubr
          81 35 70 callgsubr
          -395 vlineto
          -169 90 -44 120 113 92 41 173 vhcurveto
          394 vlineto
          19 12 -46 callsubr
          -109 -10 -74 callgsubr
          -397 vlineto
          -84 -19 -94 -133 -121 -40 76 104 vhcurveto
          395 vlineto
          19 12 33 21 vhcurveto
          5 10 -142 hlineto
          336 58 -106 callsubr
        </CharString>
        <CharString name="Ugrave">
          -15 callgsubr
          63 -21 113 -20 hstem
          82 67 313 35 70 callgsubr
          -395 vlineto
          -169 90 -44 120 113 92 41 173 vhcurveto
          394 vlineto
          19 12 -46 callsubr
          -109 -10 -74 callgsubr
          -397 vlineto
          -84 -19 -94 -133 -121 -40 76 104 vhcurveto
          395 vlineto
          19 12 33 21 vhcurveto
          5 10 -142 hlineto
          330 28 -84 callsubr
        </CharString>
        <CharString name="Uhungarumlaut">
          -15 callgsubr
          66 -21 171 -20 hstem
          82 67 313 35 70 callgsubr
          -395 vlineto
          -169 90 -44 120 113 92 41 173 vhcurveto
          394 vlineto
          19 12 -46 callsubr
          -109 -10 -74 callgsubr
          -397 vlineto
          -84 -19 -94 -133 -121 -40 76 104 vhcurveto
          395 vlineto
          19 12 33 21 vhcurveto
          5 10 -142 hlineto
          136 26 -83 callgsubr
        </CharString>
        <CharString name="Umacron">
          -15 callgsubr
          73 40 hstem
          82 67 313 35 70 callgsubr
          -395 vlineto
          -169 90 -44 120 113 92 41 173 vhcurveto
          394 vlineto
          19 12 -46 callsubr
          -109 -10 -74 callgsubr
          -397 vlineto
          -84 -19 -94 -133 -121 -40 76 104 vhcurveto
          395 vlineto
          19 12 33 21 vhcurveto
          5 10 -142 hlineto
          146 53 -71 callsubr
        </CharString>
        <CharString name="Uogonek">
          53 -139 162 -32 32 637 -20 hstemhm
          82 67 76 48 189 35 hintmask 01111100
          45 650 rmoveto
          -74 callgsubr
          -395 vlineto
          -160 79 -47 109 -5 vhcurveto
          -27 -20 -18 -27 -27 vvcurveto
          hintmask 10111100
          -31 25 -19 callsubr
          -15 24 25 23 13 24 19 19 hvcurveto
          105 3 87 45 166 vvcurveto
          394 vlineto
          19 12 -46 callsubr
          -109 -10 -74 callgsubr
          -397 vlineto
          -84 -19 -94 -133 -121 -40 76 104 vhcurveto
          395 vlineto
          19 12 33 21 vhcurveto
          5 10 -142 hlineto
          endchar
        </CharString>
        <CharString name="Uring">
          -15 callgsubr
          50 119 hstem
          82 67 70 28 90 27 98 35 70 callgsubr
          -395 vlineto
          -169 90 -44 120 113 92 41 173 vhcurveto
          394 vlineto
          19 12 -46 callsubr
          -109 -10 -74 callgsubr
          -397 vlineto
          -84 -19 -94 -133 -121 -40 76 104 vhcurveto
          395 vlineto
          19 12 33 21 vhcurveto
          5 10 -142 hlineto
          174 89 -64 callsubr
          -24 -16 -17 -23 -28 -23 22 28 vhcurveto
          endchar
        </CharString>
        <CharString name="Utilde">
          -15 callgsubr
          54 39 1 38 hstem
          82 67 313 35 70 callgsubr
          -395 vlineto
          -169 90 -44 120 113 92 41 173 vhcurveto
          394 vlineto
          19 12 -46 callsubr
          -109 -10 -74 callgsubr
          -397 vlineto
          -84 -19 -94 -133 -121 -40 76 104 vhcurveto
          395 vlineto
          19 12 33 21 vhcurveto
          5 10 -142 hlineto
          356 108 -93 callsubr
        </CharString>
        <CharString name="V">
          58 9 -21 672 -20 hstem
          127 625 rmoveto
          16 14 9 12 vhcurveto
          10 -142 -10 vlineto
          23 -1 15 -17 8 -20 234 -624 rcurveline
          229 627 rlineto
          25 9 18 10 20 hhcurveto
          65 callsubr
          11 16 -7 -16 -3 -2 -6 -1 -3 hvcurveto
          -176 -479 -176 474 rlineto
          -2 6 -1 5 4 vvcurveto
          endchar
        </CharString>
        <CharString name="W">
          17 callgsubr
          hstemhm
          hintmask 11000000
          791 660 rmoveto
          -109 -10 hlineto
          11 13 -12 -19 hvcurveto
          -5 -3 -11 -3 vvcurveto
          -132 -423 rlineto
          hintmask 10100000
          -153 489 -159 -490 -130 424 rlineto
          -1 5 -1 5 3 vvcurveto
          21 13 16 17 vhcurveto
          hintmask 11000000
          10 -142 -10 vlineto
          21 18 -30 -25 7 hvcurveto
          183 -600 156 493 156 -492 182 600 rlineto
          27 7 19 27 27 hhcurveto
          endchar
        </CharString>
        <CharString name="Wacute">
          17 callgsubr
          57 -21 113 -86 callsubr
          -470 32 -97 callgsubr
        </CharString>
        <CharString name="Wcircumflex">
          17 callgsubr
          60 -21 108 -86 callsubr
          -267 40 -99 callsubr
        </CharString>
        <CharString name="Wdieresis">
          275 16 -21 665 -20 46 64 hstem
          313 -9 callsubr
          vstem
          791 660 rmoveto
          -109 -10 hlineto
          11 13 -12 -19 hvcurveto
          -5 -3 -11 -3 vvcurveto
          -132 -423 -153 489 -159 -490 -130 424 rlineto
          -1 5 -1 5 3 vvcurveto
          21 13 16 17 vhcurveto
          10 -142 -10 vlineto
          21 18 -30 -25 7 hvcurveto
          183 -600 156 493 156 -492 182 600 rlineto
          27 7 19 27 27 hhcurveto
          -299 68 -106 callsubr
        </CharString>
        <CharString name="Wgrave">
          17 callgsubr
          57 -21 113 -86 callsubr
          -305 38 -84 callsubr
        </CharString>
        <CharString name="X">
          -78 callgsubr
        </CharString>
        <CharString name="Y">
          -2 -16 callgsubr
          230 67 vstem
          3 -102 callsubr
          endchar
        </CharString>
        <CharString name="Yacute">
          -2 -44 callgsubr
          63 -21 113 -20 hstem
          230 67 vstem
          3 -102 callsubr
          180 22 -97 callgsubr
        </CharString>
        <CharString name="Ycircumflex">
          -2 -44 callgsubr
          66 42 callgsubr
          230 67 vstem
          3 -102 callsubr
          383 30 -99 callsubr
        </CharString>
        <CharString name="Ydieresis">
          -2 -44 callgsubr
          46 64 hstemhm
          174 64 -8 67 -7 63 hintmask 11101000
          3 -102 callsubr
          hintmask 11110100
          350 58 -106 callsubr
        </CharString>
        <CharString name="Ygrave">
          -2 -44 callgsubr
          63 -21 113 -20 hstem
          230 67 vstem
          3 -102 callsubr
          345 28 -84 callsubr
        </CharString>
        <CharString name="Z">
          -61 92 callgsubr
          -74 callsubr
          endchar
        </CharString>
        <CharString name="Zacute">
          -61 92 callgsubr
          43 -21 113 -20 -74 callsubr
          136 682 -97 callgsubr
        </CharString>
        <CharString name="Zcaron">
          -61 92 callgsubr
          43 -21 108 -20 -74 callsubr
          94 786 -92 callgsubr
        </CharString>
        <CharString name="Zdotaccent">
          -61 92 callgsubr
          43 76 -74 callsubr
          179 741 -98 callsubr
        </CharString>
        <CharString name="a">
          -55 callsubr
          54 callsubr
          hintmask 01111000
          -102 callgsubr
          hintmask 10111000
          -77 callgsubr
          hintmask 01111000
          -20 callgsubr
          hintmask 10111000
          -93 callgsubr
          endchar
        </CharString>
        <CharString name="aacute">
          -55 callsubr
          36 -21 113 -20 54 callsubr
          hintmask 01111110
          -102 callgsubr
          hintmask 10111110
          -77 callgsubr
          hintmask 01111110
          -20 callgsubr
          hintmask 10111110
          -93 callgsubr
          -162 347 -97 callgsubr
        </CharString>
        <CharString name="abreve">
          -55 callsubr
          24 39 65 -20 hstemhm
          36 64 16 224 -31 64 hintmask 01111101
          -102 callgsubr
          hintmask 10111101
          -77 callgsubr
          hintmask 01111101
          -20 callgsubr
          hintmask 10111101
          -93 callgsubr
          25 460 rmoveto
          -15 -5 -19 -50 -82 hhcurveto
          -80 -24 50 15 -2 hvcurveto
          hintmask 10111110
          -6 hlineto
          -48 50 -56 63 67 44 60 44 vhcurveto
          endchar
        </CharString>
        <CharString name="acircumflex">
          -55 callsubr
          126 -20 54 callsubr
          hintmask 01111100
          -102 callgsubr
          hintmask 10111100
          -77 callgsubr
          hintmask 01111100
          -20 callgsubr
          hintmask 10111100
          -93 callgsubr
          11 355 -99 callsubr
        </CharString>
        <CharString name="acute">
          -309 463 -21 113 -20 hstem
          27 442 -97 callgsubr
        </CharString>
        <CharString name="acutecomb">
          -309 463 -21 113 -20 hstem
          27 442 -97 callgsubr
        </CharString>
        <CharString name="adieresis">
          -55 callsubr
          33 64 hstemhm
          36 64 10 -9 callsubr
          20 64 hintmask 01111111
          -102 callgsubr
          hintmask 10111111
          -77 callgsubr
          hintmask 01111111
          -20 callgsubr
          hintmask 10111111
          -93 callgsubr
          -20 397 -106 callsubr
        </CharString>
        <CharString name="ae">
          228 -6 38 171 36 156 33 -96 callgsubr
          endchar
        </CharString>
        <CharString name="aeacute">
          228 -6 38 171 36 156 33 149 -20 -96 callgsubr
          -27 353 -97 callgsubr
        </CharString>
        <CharString name="agrave">
          -55 callsubr
          36 -21 113 -20 54 callsubr
          hintmask 01111110
          -102 callgsubr
          hintmask 10111110
          -77 callgsubr
          hintmask 01111110
          -20 callgsubr
          hintmask 10111110
          -93 callgsubr
          3 353 -84 callsubr
        </CharString>
        <CharString name="amacron">
          -55 callsubr
          46 40 54 callsubr
          hintmask 01111100
          -102 callgsubr
          hintmask 10111100
          -77 callgsubr
          hintmask 01111100
          -20 callgsubr
          hintmask 10111100
          -93 callgsubr
          -181 378 -71 callsubr
        </CharString>
        <CharString name="ampersand">
          237 -9 35 -5 -21 631 32 hstemhm
          39 63 -11 60 0 191 0 52 0 154 hintmask 10101001
          596 109 rmoveto
          -29 24 -32 26 -27 25 29 45 20 67 12 56 7 33 6 33 4 35 rrcurveto
          19 3 17 14 13 hhcurveto
          10 -103 -10 vlineto
          16 16 -17 -17 -29 -11 -112 -54 -107 hvcurveto
          -64 51 -67 56 -61 51 rrcurveto
          76 44 27 57 49 vvcurveto
          76 -55 75 -101 -84 -63 -66 -77 -56 36 -51 64 -53 vhcurveto
          hintmask 10110010
          -109 -52 -43 -61 -92 vvcurveto
          -86 71 -78 120 93 74 39 97 72 vhcurveto
          99 -78 rlineto
          hintmask 01110101
          -27 35 36 -22 51 hhcurveto
          56 10 hlineto
          -19 -25 16 16 -23 hvcurveto
          -13 9 -13 11 -14 12 rrcurveto
          -486 449 rmoveto
          -3 7 1 6 7 vvcurveto
          48 28 40 44 80 39 -67 -63 -41 -29 -50 -52 -21 vhcurveto
          -49 41 -50 46 -9 47 rrcurveto
          hintmask 10110010
          106 -497 rmoveto
          -89 3 -68 75 71 vvcurveto
          59 38 61 81 39 vhcurveto
          224 -186 rlineto
          -72 -53 -68 -50 -65 hhcurveto
          endchar
        </CharString>
        <CharString name="aogonek">
          -74 -138 169 -38 38 -10 -21 395 32 hstemhm
          36 64 158 48 3 64 hintmask 00111110
          373 52 callgsubr
          64 callsubr
          hvcurveto
          57 10 hlineto
          -20 -13 28 27 hvcurveto
          198 vlineto
          83 -24 81 -148 -63 -30 -17 -12 -21 vhcurveto
          -12 25 callgsubr
          36 48 68 hhcurveto
          41 79 -19 -104 5 hvcurveto
          -172 -42 -101 -41 -92 vvcurveto
          hintmask 01011110
          -77 callgsubr
          hintmask 00111110
          -51 7 vlineto
          33 callsubr
          hintmask 10011110
          -29 26 -26 60 28 27 -32 callgsubr
          -12 -14 -2 -15 hhcurveto
          -75 207 rmoveto
          -93 callgsubr
          endchar
        </CharString>
        <CharString name="aring">
          -55 callsubr
          -32 94 -15 119 hstemhm
          36 64 27 28 90 27 37 64 hintmask 0110111110000000
          -102 callgsubr
          hintmask 1010111110000000
          -77 callgsubr
          hintmask 0110111110000000
          -20 callgsubr
          hintmask 1010111110000000
          -93 callgsubr
          -182 438 -64 callsubr
          vhcurveto
          hintmask 1001011110000000
          -31 callsubr
        </CharString>
        <CharString name="asciicircum">
          -128 464 -21 214 -20 hstem
          199 657 rmoveto
          -177 -176 38 -38 139 139 137 -139 40 38 rlineto
          endchar
        </CharString>
        <CharString name="asciitilde">
          25 268 48 29 50 hstem
          502 383 rmoveto
          -53 -21 -44 -14 -41 hhcurveto
          -37 -32 18 19 -33 hvcurveto
          21 -37 -37 21 -49 hhcurveto
          -39 -55 -14 -99 -40 hvcurveto
          10 -2 rlineto
          54 19 56 11 39 hhcurveto
          35 30 -18 -17 32 hvcurveto
          -21 37 40 -21 48 hhcurveto
          64 44 41 72 21 hvcurveto
          endchar
        </CharString>
        <CharString name="asterisk">
          -208 423 -21 262 -20 hstem
          135 571 rmoveto
          -91 28 -1 -2 69 -65 -69 -63 1 -2 91 27 22 -92 rlineto
          2 hlineto
          22 92 90 -27 1 2 -69 63 69 65 -1 2 -90 -28 -22 93 rlineto
          -2 hlineto
          endchar
        </CharString>
        <CharString name="at">
          352 -203 41 161 41 -41 70 292 38 147 34 hstemhm
          49 67 121 78 165 74 209 60 hintmask 1101111110000000
          823 295 rmoveto
          164 -103 121 -220 -244 -207 -213 -244 -224 151 -102 180 137 110 59 53 56 vhcurveto
          -6 9 rlineto
          -51 -72 -91 -29 -88 hhcurveto
          -160 -150 89 204 232 192 183 189 185 81 -147 -133 -119 -61 -107 -104 -32 -12 47 61 94 26 123 29 60 hvcurveto
          -46 6 -8 -12 -4 -9 -4 -9 rlinecurve
          -1 -1 -1 -1 vvcurveto
          -3 -3 1 -6 -3 -4 rrcurveto
          9 -23 -20 5 -23 hhcurveto
          -123 -115 -116 -180 -73 35 -28 35 53 80 61 67 40 hvcurveto
          -19 vlineto
          -53 18 -59 64 155 106 158 138 vhcurveto
          -336 -91 rmoveto
          hintmask 1011111110000000
          -44 -31 -75 -91 -37 hhcurveto
          -15 -14 14 40 87 55 151 93 17 23 -6 -12 19 hvcurveto
          -16 -47 -8 -37 -11 -55 rrcurveto
          endchar
        </CharString>
        <CharString name="atilde">
          -55 callsubr
          45 39 1 38 54 callsubr
          hintmask 01111110
          -102 callgsubr
          hintmask 10111110
          -77 callgsubr
          hintmask 01111110
          -20 callgsubr
          hintmask 10111110
          -93 callgsubr
          10 451 -93 callsubr
        </CharString>
        <CharString name="b">
          -17 -7 34 -6 -21 392 35 237 -20 hstemhm
          78 66 265 61 hintmask 10111100
          259 427 rmoveto
          -38 -47 -19 -30 -30 hvcurveto
          286 -66 callgsubr
          -510 -68 callgsubr
          vlineto
          hintmask 01111100
          98 46 hlineto
          -29 24 44 -24 50 hhcurveto
          137 71 112 109 107 -68 106 -143 hvcurveto
          10 -400 rmoveto
          -59 -66 47 77 hvcurveto
          124 vlineto
          64 54 53 57 99 55 -96 -95 vhcurveto
          hintmask 10111100
          -85 -45 -83 -95 -6 vhcurveto
          endchar
        </CharString>
        <CharString name="backslash">
          -198 -40 -21 775 -20 hstem
          287 -61 rmoveto
          37 12 -282 763 -37 -10 rlineto
          endchar
        </CharString>
        <CharString name="bar">
          -375 -67 -21 831 -20 hstem
          45 65 vstem
          110 -88 rmoveto
          831 -65 -831 vlineto
          endchar
        </CharString>
        <CharString name="braceleft">
          -274 -67 -21 830 -20 hstem
          114 56 vstem
          249 -88 rmoveto
          10 vlineto
          -74 3 -5 38 65 vvcurveto
          116 vlineto
          109 -2 49 -91 24 vhcurveto
          83 27 10 55 109 vvcurveto
          118 vlineto
          58 5 40 74 vhcurveto
          9 -12 vlineto
          -121 -2 -33 -120 hvcurveto
          -121 vlineto
          -89 -6 -38 -99 -8 vhcurveto
          -10 vlineto
          99 -8 6 -37 -90 vvcurveto
          -108 vlineto
          -132 1 -36 124 vhcurveto
          endchar
        </CharString>
        <CharString name="braceright">
          -274 -67 -21 830 -20 hstem
          84 57 vstem
          15 -88 rmoveto
          125 1 36 132 hvcurveto
          108 vlineto
          90 6 37 98 8 vhcurveto
          10 vlineto
          -98 8 -6 38 89 vvcurveto
          121 vlineto
          120 -1 33 -123 vhcurveto
          -12 -9 hlineto
          74 5 -40 -58 hvcurveto
          -118 vlineto
          -109 8 -58 85 -24 vhcurveto
          -92 -24 -1 -50 -108 vvcurveto
          -116 vlineto
          -65 -5 -38 -74 -3 vhcurveto
          -10 vlineto
          endchar
        </CharString>
        <CharString name="bracketleft">
          -363 -88 32 766 32 hstemhm
          33 55 -55 123 hintmask 11010000
          156 -88 rmoveto
          hintmask 11100000
          32 -68 vlineto
          766 68 32 -123 -830 vlineto
          endchar
        </CharString>
        <CharString name="bracketright">
          -357 -88 32 766 32 hstemhm
          14 125 -55 55 hintmask 11100000
          139 -88 rmoveto
          830 -125 vlineto
          hintmask 11010000
          -32 70 vlineto
          hintmask 11100000
          -766 -70 -32 vlineto
          endchar
        </CharString>
        <CharString name="breve">
          -250 451 39 65 -20 hstem
          28 224 vstem
          246 555 -94 callsubr
        </CharString>
        <CharString name="brokenbar">
          -372 -67 -21 830 -20 hstem
          45 65 vstem
          110 368 rmoveto
          374 -65 -374 vlineto
          -82 vmoveto
          -374 65 374 vlineto
          endchar
        </CharString>
        <CharString name="bullet">
          -324 148 90 hstem
          56 102 vstem
          158 148 rmoveto
          90 -102 -90 vlineto
          endchar
        </CharString>
        <CharString name="c">
          32 callsubr
          hstem
          36 65 vstem
          414 114 rmoveto
          -10 hlineto
          -38 -5 -49 -49 -76 hhcurveto
          -21 callgsubr
          -123 99 -94 137 56 32 18 13 23 hvcurveto
          7 12 8 5 11 hhcurveto
          endchar
        </CharString>
        <CharString name="cacute">
          32 callsubr
          61 -21 113 -20 hstem
          36 65 vstem
          414 114 rmoveto
          -10 hlineto
          -38 -5 -49 -49 -76 hhcurveto
          -21 callgsubr
          -123 99 -94 137 56 32 18 13 23 hvcurveto
          7 12 8 5 11 hhcurveto
          -250 431 -97 callgsubr
        </CharString>
        <CharString name="caron">
          -231 463 42 callgsubr
          12 546 -92 callgsubr
        </CharString>
        <CharString name="ccaron">
          32 callsubr
          50 42 callgsubr
          36 65 vstem
          414 114 rmoveto
          -10 hlineto
          -38 -5 -49 -49 -76 hhcurveto
          -21 callgsubr
          -123 99 -94 137 56 32 18 13 23 hvcurveto
          7 12 8 5 11 hhcurveto
          -284 524 -92 callgsubr
        </CharString>
        <CharString name="ccedilla">
          -95 -179 206 -33 33 366 34 hstemhm
          36 65 197 49 hintmask 10111000
          288 -6 rmoveto
          45 3 28 16 21 61 callgsubr
          -48 -49 -69 hhcurveto
          -8 hlineto
          -21 callgsubr
          hvcurveto
          hintmask 01111000
          -120 92 -88 127 -8 vhcurveto
          -34 -55 95 callsubr
          -50 24 callgsubr
          36 35 27 -25 24 -60 7 hvcurveto
          endchar
        </CharString>
        <CharString name="ccircumflex">
          32 callsubr
          58 42 callgsubr
          36 65 vstem
          414 114 rmoveto
          -10 hlineto
          -38 -5 -49 -49 -76 hhcurveto
          -21 callgsubr
          -123 99 -94 137 56 32 18 13 23 hvcurveto
          7 12 8 5 11 hhcurveto
          -44 433 -99 callsubr
        </CharString>
        <CharString name="cdotaccent">
          32 callsubr
          49 76 hstem
          36 65 121 77 vstem
          414 114 rmoveto
          -10 hlineto
          -38 -5 -49 -49 -76 hhcurveto
          -21 callgsubr
          -123 99 -94 137 56 32 18 13 23 hvcurveto
          7 12 8 5 11 hhcurveto
          -192 478 -98 callsubr
        </CharString>
        <CharString name="cedilla">
          -299 -159 -21 182 -20 hstem
          143 48 vstem
          138 2 rmoveto
          -33 hlineto
          -39 -63 95 callsubr
          -51 vhcurveto
          -11 -8 hlineto
          -3 12 11 -1 12 hhcurveto
          61 56 33 39 27 -26 25 -58 6 hvcurveto
          endchar
        </CharString>
        <CharString name="cent">
          -95 -67 -21 81 34 477 -20 hstemhm
          36 65 130 39 -39 167 -167 183 hintmask 11111000
          270 -88 rmoveto
          hintmask 11110100
          81 vlineto
          54 1 37 17 22 13 rrcurveto
          1 hlineto
          7 12 9 5 9 hhcurveto
          hintmask 11111000
          78 -10 vlineto
          -38 -5 -49 -49 -68 hhcurveto
          -12 hlineto
          hintmask 11110010
          366 vlineto
          49 -3 55 -28 14 -47 rrcurveto
          10 hlineto
          hintmask 11111000
          76 vlineto
          -12 -11 6 6 -13 hvcurveto
          -19 10 -31 12 -42 2 rrcurveto
          77 -39 -79 vlineto
          -122 -16 -73 -94 -105 vvcurveto
          -110 82 -86 113 -18 vhcurveto
          -84 vlineto
          -130 313 rmoveto
          75 44 75 86 15 vhcurveto
          -358 vlineto
          -76 27 -54 85 81 vvcurveto
          endchar
        </CharString>
        <CharString name="circumflex">
          -263 466 42 callgsubr
          258 450 -99 callsubr
        </CharString>
        <CharString name="colon">
          -330 -4 95 201 95 hstem
          52 95 vstem
          52 339 31 callgsubr
          -296 vmoveto
          -27 20 -20 27 27 21 20 23 callsubr
        </CharString>
        <CharString name="comma">
          14 callgsubr
          -21 13 -6 11 -7 hvcurveto
          hintmask 11010000
          8 -5 8 -5 -11 10 callgsubr
        </CharString>
        <CharString name="copyright">
          215 -1 38 91 32 337 31 90 37 hstem
          41 41 84 67 423 41 vstem
          -58 callgsubr
          432 -87 rmoveto
          -10 1 rlineto
          -36 -5 -44 -44 -70 hhcurveto
          -97 -55 93 88 79 42 77 101 46 54 -27 -45 13 hvcurveto
          10 71 hlineto
          -11 -10 4 7 -12 hvcurveto
          11 -20 -26 10 -44 hhcurveto
          -133 -77 -94 -106 -112 93 -88 124 56 27 16 12 20 hvcurveto
          7 11 8 5 9 hhcurveto
          endchar
        </CharString>
        <CharString name="currency">
          203 61 49 -32 -21 474 50 4 -20 hstemhm
          102 49 422 49 hintmask 10011100
          97 100 rmoveto
          hintmask 10101100
          44 -43 62 61 rlineto
          hintmask 01011100
          -40 49 60 -17 50 hhcurveto
          50 61 17 40 48 hvcurveto
          62 -61 44 43 -62 61 rlineto
          26 28 31 52 79 vvcurveto
          81 -31 52 -26 28 vhcurveto
          62 60 rlineto
          hintmask 10101100
          -44 44 -62 -61 rlineto
          hintmask 01101100
          40 -48 -61 17 -50 hhcurveto
          -50 -60 -17 -40 -49 hvcurveto
          -62 61 -44 -44 62 -60 rlineto
          -26 -28 -31 -52 -81 vvcurveto
          -79 31 -52 26 -28 vhcurveto
          -8 159 rmoveto
          118 95 93 116 117 94 -93 -118 vhcurveto
          hintmask 10101100
          -116 -94 -94 -117 -116 -95 94 116 vhcurveto
          endchar
        </CharString>
        <CharString name="d">
          -18 49 callsubr
          239 88 callsubr
          hintmask 01111100
          -61 callgsubr
          hintmask 10111100
          -3 callgsubr
          vhcurveto
          hintmask 01111100
          -44 vlineto
          hintmask 10111100
          -110 26 -56 callsubr
          endchar
        </CharString>
        <CharString name="dagger">
          -64 -67 -21 533 13 callsubr
          -533 49 533 170 50 -170 hlineto
          endchar
        </CharString>
        <CharString name="daggerdbl">
          -64 -67 -21 169 49 315 13 callsubr
          -315 -169 -49 169 -169 49 169 170 49 -170 315 170 50 -170 hlineto
          endchar
        </CharString>
        <CharString name="dcaron">
          45 49 callsubr
          236 -20 23 88 callsubr
          50 97 -57 57 hintmask 0110111100000000
          -61 callgsubr
          hintmask 1011011100000000
          -3 callgsubr
          vhcurveto
          hintmask 0111011100000000
          -44 vlineto
          hintmask 1011011100000000
          -110 26 -56 callsubr
          267 637 29 callgsubr
          -23 13 -5 11 -7 hvcurveto
          hintmask 1011011010000000
          -71 callgsubr
        </CharString>
        <CharString name="dcroat">
          -18 49 callsubr
          69 36 134 88 callsubr
          hintmask 10111110
          198 496 rmoveto
          165 -114 hlineto
          27 -25 -49 18 -45 hhcurveto
          -137 -70 -111 -108 -3 callgsubr
          hvcurveto
          hintmask 01111110
          -44 98 -88 callgsubr
          431 71 36 -71 134 -66 callgsubr
          -45 -165 vlineto
          hintmask 10111110
          55 -506 -56 callsubr
          endchar
        </CharString>
        <CharString name="degree">
          -287 475 34 126 33 hstem
          25 34 124 35 vstem
          25 571 rmoveto
          -55 41 -41 55 53 44 41 55 54 -44 43 -53 -55 -41 -42 -55 vhcurveto
          34 hmoveto
          35 27 29 35 33 29 -29 -35 -35 -29 -27 -33 -35 -27 27 35 vhcurveto
          endchar
        </CharString>
        <CharString name="dieresis">
          -352 446 64 hstem
          0 -9 callsubr
          vstem
          179 478 rmoveto
          18 -14 14 -16 -19 -14 -14 -18 -18 14 -14 19 16 14 14 18 vhcurveto
          -115 hmoveto
          18 -14 14 -18 -18 -14 -14 -18 -18 14 -14 18 18 14 14 18 vhcurveto
          endchar
        </CharString>
        <CharString name="divide">
          -36 136 95 71 49 81 95 hstem
          179 94 vstem
          445 302 rmoveto
          49 -423 -49 vlineto
          157 178 rmoveto
          -27 21 -21 25 27 21 21 27 27 -21 20 -27 -25 -21 -20 -27 vhcurveto
          -297 vmoveto
          -27 21 -20 25 27 21 20 42 callsubr
          -25 -21 -21 -27 vhcurveto
          endchar
        </CharString>
        <CharString name="dollar">
          -41 -67 -21 721 35 75 -20 hstemhm
          36 68 -52 205 -34 34 -34 172 -14 68 hintmask 11101001
          257 -88 rmoveto
          82 vlineto
          96 11 96 52 120 vvcurveto
          120 -101 40 -91 35 vhcurveto
          261 vlineto
          77 -3 48 -22 3 -63 rrcurveto
          hintmask 11110010
          10 103 hlineto
          -20 -21 4 5 -23 hvcurveto
          hintmask 11101001
          -23 5 -25 4 -26 2 rrcurveto
          75 vlineto
          hintmask 11110101
          -34 -75 hlineto
          -96 -5 -91 -56 -109 vvcurveto
          -112 98 -39 89 -32 vhcurveto
          -288 -6 vlineto
          -33 -122 13 100 hvcurveto
          hintmask 11101001
          -10 -113 hlineto
          16 19 -5 -7 20 hvcurveto
          hintmask 11110101
          29 -11 40 -9 47 -3 rrcurveto
          -80 vlineto
          158 257 rmoveto
          -60 -40 -63 -84 -16 vhcurveto
          273 vlineto
          62 -27 62 -37 -70 vvcurveto
          -277 338 rmoveto
          42 29 76 90 8 vhcurveto
          -248 vlineto
          -64 27 -55 30 65 vvcurveto
          endchar
        </CharString>
        <CharString name="dotaccent">
          -12 callgsubr
        </CharString>
        <CharString name="dotlessi">
          93 callsubr
          432 -20 hstem
          91 66 vstem
          -83 callsubr
          endchar
        </CharString>
        <CharString name="e">
          -60 callgsubr
          hstem
          385 -106 callgsubr
          endchar
        </CharString>
        <CharString name="eacute">
          -60 callgsubr
          69 -21 113 -20 hstem
          385 -106 callgsubr
          -74 81 -97 callgsubr
        </CharString>
        <CharString name="ebreve">
          -60 callgsubr
          56 39 65 -20 hstem
          139 224 22 -106 callgsubr
          112 193 -94 callsubr
        </CharString>
        <CharString name="ecaron">
          -60 callgsubr
          69 42 callgsubr
          385 -106 callgsubr
          -114 185 -92 callgsubr
        </CharString>
        <CharString name="ecircumflex">
          -60 callgsubr
          74 42 callgsubr
          385 -106 callgsubr
          130 91 -99 callsubr
        </CharString>
        <CharString name="edieresis">
          -60 callgsubr
          52 64 hstem
          160 -9 callsubr
          46 -106 callgsubr
          94 117 -106 callsubr
        </CharString>
        <CharString name="edotaccent">
          -60 callgsubr
          67 76 hstem
          216 77 92 -106 callgsubr
          -29 138 -98 callsubr
        </CharString>
        <CharString name="egrave">
          -60 callgsubr
          58 -21 113 -20 hstem
          385 -106 callgsubr
          86 76 -84 callsubr
        </CharString>
        <CharString name="eight">
          -28 -10 37 565 33 hstemhm
          22 64 -32 61 249 58 -16 50 hintmask 11100100
          456 163 rmoveto
          88 -59 55 -83 24 vhcurveto
          hintmask 11011000
          64 27 44 56 60 vvcurveto
          101 -95 51 -91 -92 -90 -51 -98 -67 34 -43 76 -35 vhcurveto
          hintmask 11100100
          -99 -29 -43 -65 -76 vvcurveto
          -115 109 -56 109 116 100 56 117 vhcurveto
          hintmask 11011000
          -92 295 rmoveto
          -47 -37 -36 -60 -24 vhcurveto
          -76 24 -76 48 73 vvcurveto
          64 55 32 52 69 73 -53 -81 vhcurveto
          hintmask 11100100
          42 -316 rmoveto
          -70 -83 -45 -71 -85 -81 65 82 61 57 47 69 24 vhcurveto
          106 -33 88 -55 -76 vvcurveto
          endchar
        </CharString>
        <CharString name="ellipsis">
          81 -4 95 hstem
          52 95 106 94 111 94 vstem
          52 43 31 callgsubr
          201 hmoveto
          -27 19 -20 27 27 21 20 42 callsubr
          -27 -19 -21 -27 vhcurveto
          205 hmoveto
          -27 19 -20 27 27 21 20 42 callsubr
          -27 -19 -21 -27 vhcurveto
          endchar
        </CharString>
        <CharString name="emacron">
          -60 callgsubr
          46 40 hstem
          385 -106 callgsubr
          -103 79 -71 callsubr
        </CharString>
        <CharString name="emdash">
          360 206 50 hstem
          868 206 rmoveto
          50 -838 -50 vlineto
          endchar
        </CharString>
        <CharString name="endash">
          37 callgsubr
        </CharString>
        <CharString name="eng">
          1 -226 -21 268 -21 394 37 -29 callsubr
          447 258 rmoveto
          -63 callgsubr
          55 vlineto
          -100 -41 callsubr
          32 -1 2 -25 -23 vvcurveto
          -276 -88 callsubr
          222 vlineto
          56 60 51 59 60 59 -46 -97 vhcurveto
          -263 vlineto
          -72 -32 -57 -31 -39 vhcurveto
          -18 -23 -21 -19 -23 -17 5 -8 rcurveline
          35 17 30 21 27 25 rrcurveto
          46 43 47 60 84 vvcurveto
          endchar
        </CharString>
        <CharString name="eogonek">
          -46 -138 165 -33 33 175 36 156 33 hstemhm
          37 207 -47 47 141 62 hintmask 01111010
          311 52 callgsubr
          23 16 28 19 19 hvcurveto
          63 3 37 20 25 15 rrcurveto
          8 15 7 6 11 hhcurveto
          75 -9 vlineto
          -59 -16 -77 -35 -59 hhcurveto
          -108 -57 83 92 -11 hvcurveto
          347 hlineto
          130 -64 95 -134 -148 -64 -112 -100 -148 95 -68 112 -5 vhcurveto
          hintmask 10110110
          -27 -21 -20 -28 -28 vvcurveto
          -29 26 -26 59 28 27 -32 callgsubr
          -12 -14 -2 -15 hhcurveto
          -66 518 rmoveto
          91 46 -79 -77 3 hvcurveto
          -285 hlineto
          75 8 45 81 92 hhcurveto
          endchar
        </CharString>
        <CharString name="equal">
          -64 230 48 102 50 hstem
          425 380 rmoveto
          50 -390 -50 vlineto
          390 -150 rmoveto
          48 -390 -48 vlineto
          endchar
        </CharString>
        <CharString name="eth">
          -10 -11 78 callgsubr
          236 -20 hstem
          39 65 314 62 vstem
          352 659 rmoveto
          -53 hlineto
          -48 -63 rlineto
          31 -57 -70 21 -65 hhcurveto
          -19 -9 hlineto
          71 -8 65 -30 53 -35 -86 -112 rcurveline
          52 hlineto
          21 28 22 32 23 27 49 -39 31 -41 31 -63 rrcurveto
          17 -31 -37 8 -41 hhcurveto
          -128 -96 -89 -131 -122 86 -92 132 163 60 114 115 152 -78 125 -115 80 hvcurveto
          -20 -553 rmoveto
          -99 -64 93 99 85 51 91 96 113 54 -101 -88 -85 -51 -94 -100 hvcurveto
          endchar
        </CharString>
        <CharString name="exclam">
          -280 -9 95 573 -20 hstemhm
          80 94 -68 40 hintmask 11010000
          58 649 rmoveto
          20 13 -82 callsubr
          30 -483 rlineto
          12 hlineto
          26 483 rlineto
          20 1 10 32 17 hhcurveto
          10 -129 vlineto
          hintmask 11100000
          22 -621 rmoveto
          -27 20 -20 27 27 20 20 27 27 -20 50 callsubr
          endchar
        </CharString>
        <CharString name="exclamdown">
          93 callsubr
          573 95 hstemhm
          80 94 -68 39 hintmask 11010000
          122 528 rmoveto
          -31 -466 rlineto
          -19 -13 -33 -20 vhcurveto
          -10 132 10 vlineto
          -20 -11 32 20 hvcurveto
          -27 466 rlineto
          hintmask 11100000
          -52 93 rmoveto
          -27 20 -21 27 27 20 21 27 27 -20 20 -27 -27 -20 -20 -27 vhcurveto
          endchar
        </CharString>
        <CharString name="f">
          98 callsubr
          hstemhm
          72 66 -66 190 hintmask 11110000
          21 callsubr
          hintmask 11101000
          -7 callgsubr
          hintmask 11110000
          -89 callgsubr
          321 vlineto
          endchar
        </CharString>
        <CharString name="five">
          -92 -10 34 316 51 168 56 hstem
          326 68 vstem
          394 187 rmoveto
          128 -101 76 -106 -32 -26 -4 -15 -32 vhcurveto
          23 61 27 66 23 60 rrcurveto
          209 hlineto
          20 56 rlineto
          -250 hlineto
          -128 -335 rlineto
          41 53 52 19 43 hhcurveto
          78 79 -54 -107 -88 -51 -67 -104 -57 -62 28 47 -35 hvcurveto
          -79 vlineto
          15 18 -5 -7 23 hvcurveto
          -8 31 35 -10 36 hhcurveto
          148 71 103 94 hvcurveto
          endchar
        </CharString>
        <CharString name="florin">
          -15 -147 34 499 34 210 34 hstem
          430 664 rmoveto
          -96 -23 -82 -81 -19 hvcurveto
          -21 -81 rlineto
          -98 hlineto
          -8 -34 rlineto
          98 hlineto
          -95 -384 rlineto
          -72 -19 -15 -43 -39 hhcurveto
          -27 -25 27 35 hvcurveto
          5 -9 vlineto
          -16 -72 rlineto
          7 4 -5 -4 7 hvcurveto
          -9 12 16 -11 35 hhcurveto
          96 21 83 80 21 hvcurveto
          92 370 rlineto
          114 hlineto
          7 34 rlineto
          -113 hlineto
          24 95 rlineto
          72 19 15 43 39 hhcurveto
          27 23 -28 -35 hvcurveto
          -5 9 vlineto
          18 73 rlineto
          -7 -4 4 4 -7 hvcurveto
          -1 1 rlineto
          9 -12 -17 11 -33 hhcurveto
          endchar
        </CharString>
        <CharString name="four">
          -111 0 211 -50 50 429 -20 hstemhm
          276 65 hintmask 10110000
          380 hmoveto
          10 vlineto
          -32 -7 26 27 hvcurveto
          hintmask 01110000
          98 61 50 -61 429 vlineto
          -338 -479 rlineto
          273 -98 hlineto
          -27 0 -26 -37 vhcurveto
          hintmask 10110000
          -10 vlineto
          37 211 rmoveto
          -199 hlineto
          199 280 rlineto
          endchar
        </CharString>
        <CharString name="fraction">
          -49 11 -21 669 -20 hstem
          470 659 rmoveto
          -51 hlineto
          -414 -669 rlineto
          50 hlineto
          endchar
        </CharString>
        <CharString name="franc">
          -71 0 228 -39 39 109 34 253 35 hstemhm
          83 68 hintmask 01111000
          45 189 rmoveto
          38 -126 hlineto
          -20 -12 -33 -21 vhcurveto
          hintmask 10111000
          -10 134 10 vlineto
          57 callgsubr
          hintmask 01111000
          126 230 39 -230 109 166 vlineto
          32 22 -20 -23 hvcurveto
          10 124 -10 hlineto
          -25 -23 -22 -31 vhcurveto
          -166 253 205 12 callgsubr
          -380 -10 hlineto
          -52 callgsubr
          -369 -38 vlineto
          endchar
        </CharString>
        <CharString name="g">
          -30 callsubr
          37 callsubr
          hintmask 11101010
          -82 callgsubr
          hintmask 11110100
          -97 callsubr
          hintmask 11110010
          -50 callgsubr
          hintmask 11101100
          -59 callgsubr
          endchar
        </CharString>
        <CharString name="gbreve">
          -30 callsubr
          66 39 65 -20 hstemhm
          44 36 -36 63 17 224 14 65 -25 43 hintmask 1111101101000000
          -82 callgsubr
          hintmask 1111110110000000
          -97 callsubr
          hintmask 1111110101000000
          -50 callgsubr
          hintmask 1111101110000000
          -59 callgsubr
          118 205 -94 callsubr
        </CharString>
        <CharString name="gcircumflex">
          -30 callsubr
          154 -20 37 callsubr
          hintmask 11110101
          -82 callgsubr
          hintmask 11111010
          -97 callsubr
          hintmask 11111001
          -50 callgsubr
          hintmask 11110110
          -59 callgsubr
          137 86 -99 callsubr
        </CharString>
        <CharString name="gdotaccent">
          -30 callsubr
          66 76 hstemhm
          44 36 -36 63 95 77 83 65 -25 43 hintmask 1111011010000000
          -82 callgsubr
          hintmask 1111101100000000
          -97 callsubr
          hintmask 1111101010000000
          -50 callgsubr
          hintmask 1111011100000000
          -59 callgsubr
          -22 139 -98 callsubr
        </CharString>
        <CharString name="germandbls">
          -8 21 -21 340 35 253 36 hstemhm
          76 67 242 67 -39 69 hintmask 11111000
          452 504 rmoveto
          109 -93 51 -91 -99 -93 -62 -118 vhcurveto
          -419 20 callgsubr
          -10 132 10 vlineto
          -20 -13 -80 callgsubr
          411 vlineto
          97 53 55 72 68 49 -45 -83 -79 -72 -46 -79 vhcurveto
          -26 -35 21 hlineto
          hintmask 11110100
          99 85 -77 -91 -77 -67 -85 -105 hvcurveto
          -10 vlineto
          154 87 80 104 72 -40 64 -89 39 hvcurveto
          hintmask 11111000
          63 35 36 46 64 vvcurveto
          endchar
        </CharString>
        <CharString name="grave">
          -40 callsubr
        </CharString>
        <CharString name="gravecomb">
          -40 callsubr
        </CharString>
        <CharString name="greater">
          95 callgsubr
          300 rmoveto
          53 vlineto
          -392 161 rlineto
          -60 vlineto
          320 -128 -320 -126 rlineto
          -61 vlineto
          endchar
        </CharString>
        <CharString name="greaterequal">
          97 callsubr
          392 rmoveto
          54 vlineto
          -392 156 rlineto
          -60 vlineto
          319 -123 -319 -123 rlineto
          -60 vlineto
          392 -103 rmoveto
          53 -392 -53 vlineto
          endchar
        </CharString>
        <CharString name="guillemotleft">
          -141 59 -21 357 -20 hstem
          256 217 rmoveto
          78 173 -6 5 -139 -179 136 -178 8 5 rlineto
          -214 174 rmoveto
          78 172 -8 5 -140 -178 138 -178 8 5 rlineto
          endchar
        </CharString>
        <CharString name="guillemotright">
          -141 61 -21 355 -20 hstem
          53 45 rmoveto
          8 -5 138 178 -140 177 -8 -4 78 -172 rlineto
          63 -174 rmoveto
          8 -5 136 178 -137 177 -8 -4 76 -172 rlineto
          endchar
        </CharString>
        <CharString name="guilsinglleft">
          -282 62 -21 357 -20 hstem
          118 221 rmoveto
          77 173 -6 4 -141 -178 139 -179 6 5 rlineto
          endchar
        </CharString>
        <CharString name="guilsinglright">
          -282 63 -21 355 -20 hstem
          52 47 rmoveto
          8 -5 137 178 -139 177 -8 -4 79 -172 rlineto
          endchar
        </CharString>
        <CharString name="h">
          18 callsubr
          234 -37 callgsubr
          289 -66 callgsubr
          -511 -88 callsubr
          213 vlineto
          69 60 47 -55 callgsubr
          endchar
        </CharString>
        <CharString name="hbar">
          18 callsubr
          65 36 133 32 callgsubr
          20 496 rmoveto
          58 -431 hlineto
          -20 -12 -35 18 callgsubr
          35 20 hvcurveto
          213 vlineto
          69 60 47 -55 callgsubr
          193 vlineto
          -63 callgsubr
          120 178 36 -178 133 -66 callgsubr
          -44 -58 vlineto
          endchar
        </CharString>
        <CharString name="hcircumflex">
          18 callsubr
          77 68 callsubr
          90 -37 callgsubr
          289 -66 callgsubr
          -511 -88 callsubr
          213 vlineto
          69 60 47 -55 callgsubr
          -22 427 -99 callsubr
        </CharString>
        <CharString name="hungarumlaut">
          -253 466 -21 171 -20 hstem
          33 446 -83 callgsubr
        </CharString>
        <CharString name="hyphen">
          -233 206 50 hstem
          256 206 rmoveto
          50 -227 -50 vlineto
          endchar
        </CharString>
        <CharString name="i">
          93 callsubr
          482 94 hstemhm
          64 93 -66 66 hintmask 11100000
          30 callsubr
          hintmask 11010000
          44 callsubr
          hintmask 11100000
          5 528 -22 callgsubr
        </CharString>
        <CharString name="iacute">
          -280 23 -21 553 -20 hstem
          93 62 vstem
          187 2 rmoveto
          6 vlineto
          -21 3 -11 34 20 5 callsubr
          -33 440 -97 callgsubr
        </CharString>
        <CharString name="ibreve">
          93 callsubr
          452 39 65 -20 hstemhm
          13 224 -146 66 hintmask 11101000
          -83 callsubr
          172 556 rmoveto
          -15 -5 -19 -50 -82 hhcurveto
          -80 -24 50 15 -2 hvcurveto
          hintmask 11110000
          -6 hlineto
          -48 50 -56 63 67 44 60 44 vhcurveto
          endchar
        </CharString>
        <CharString name="icircumflex">
          93 callsubr
          553 -20 hstem
          91 66 vstem
          -83 callsubr
          188 450 -99 callsubr
        </CharString>
        <CharString name="idieresis">
          -280 23 -21 444 64 hstemhm
          35 64 -6 62 -4 63 hintmask 11010000
          187 2 rmoveto
          6 vlineto
          -20 3 -12 35 19 5 callsubr
          hintmask 11101000
          153 476 rmoveto
          19 -14 13 -17 -19 -13 -13 -75 callgsubr
          17 -104 callsubr
        </CharString>
        <CharString name="igrave">
          93 callsubr
          555 -20 hstem
          91 66 vstem
          -83 callsubr
          142 -12 callsubr
        </CharString>
        <CharString name="imacron">
          93 callsubr
          474 40 hstem
          91 66 vstem
          -83 callsubr
          -34 474 -71 callsubr
        </CharString>
        <CharString name="iogonek">
          -280 -117 -21 159 -21 482 94 hstemhm
          50 48 -34 93 -66 66 hintmask 11110000
          165 52 callgsubr
          64 callsubr
          hvcurveto
          48 10 hlineto
          hintmask 11101000
          -89 callgsubr
          367 vlineto
          -100 -41 callsubr
          hintmask 11100100
          0 callsubr
          49 vlineto
          hintmask 11110000
          33 callsubr
          -29 26 -26 60 28 26 -32 callgsubr
          -12 -13 -2 -15 hhcurveto
          hintmask 11101000
          -101 652 -22 callgsubr
        </CharString>
        <CharString name="itilde">
          93 callsubr
          455 39 1 38 hstem
          91 66 vstem
          -83 callsubr
          176 529 -93 callsubr
        </CharString>
        <CharString name="j">
          -65 callsubr
        </CharString>
        <CharString name="jcircumflex">
          -322 -187 -21 762 -20 hstem
          86 66 vstem
          52 399 rmoveto
          -9 vlineto
          32 -1 2 -25 -23 vvcurveto
          -335 vlineto
          -72 -28 -51 -27 -33 vhcurveto
          -16 -20 -18 -16 -20 -13 4 -9 rcurveline
          31 13 29 18 25 22 rrcurveto
          43 37 43 56 83 vvcurveto
          410 vlineto
          74 20 -99 callsubr
        </CharString>
        <CharString name="k">
          -71 -10 callsubr
          256 -20 hstem
          81 66 vstem
          435 hmoveto
          10 vlineto
          -12 -18 -48 callgsubr
          -148 187 rcurveline
          142 132 40 callsubr
          -90 -10 vlineto
          5 2 -2 -5 -5 -2 -4 -3 -3 hvcurveto
          -162 -152 rlineto
          417 vlineto
          -99 -31 rlineto
          -10 vlineto
          20 -1 13 -23 -19 vvcurveto
          -509 vlineto
          -46 callgsubr
          129 -166 7 -9 8 -8 9 -7 rlinecurve
          -12 15 19 -12 23 hhcurveto
          endchar
        </CharString>
        <CharString name="kgreenlandic">
          -80 19 callsubr
          84 66 vstem
          299 168 rmoveto
          47 -25 -35 20 -57 hhcurveto
          60 51 60 53 60 51 5 4 6 3 5 3 rrcurveto
          5 9 10 5 7 hhcurveto
          10 -87 -10 vlineto
          3 2 -2 -3 hvcurveto
          -1 -2 -2 -1 vvcurveto
          -57 -51 -56 -45 -57 -51 rrcurveto
          103 vlineto
          20 11 33 19 75 callsubr
          23 9 -33 -20 hvcurveto
          -294 vlineto
          -20 67 callsubr
          128 79 callsubr
          -3 31 -25 11 -20 50 -94 rcurveline
          -35 19 38 -28 62 callsubr
        </CharString>
        <CharString name="l">
          -300 21 -21 666 -20 hstem
          82 66 vstem
          -70 callsubr
          endchar
        </CharString>
        <CharString name="lacute">
          -300 21 -21 794 -20 hstem
          82 66 vstem
          -70 callsubr
          -27 681 -97 callgsubr
        </CharString>
        <CharString name="lcaron">
          -232 21 -21 663 -20 23 -20 hstemhm
          82 66 54 97 -57 57 hintmask 10111000
          -70 callsubr
          hintmask 11011000
          194 663 29 callgsubr
          -23 13 -5 11 -7 hvcurveto
          hintmask 11010100
          -71 callgsubr
        </CharString>
        <CharString name="ldot">
          -262 0 240 -95 95 426 -20 hstemhm
          82 66 26 95 hintmask 10111000
          -70 callsubr
          125 192 rmoveto
          hintmask 01111000
          -27 20 -20 27 27 21 20 23 callsubr
        </CharString>
        <CharString name="less">
          95 callgsubr
          139 rmoveto
          61 vlineto
          -108 43 -105 42 -108 41 321 128 rcurveline
          60 vlineto
          -392 -161 rlineto
          -53 vlineto
          endchar
        </CharString>
        <CharString name="lessequal">
          97 callsubr
          236 rmoveto
          60 vlineto
          -320 123 320 123 rlineto
          60 vlineto
          -392 -156 rlineto
          -54 vlineto
          392 -259 rmoveto
          53 -392 -53 vlineto
          endchar
        </CharString>
        <CharString name="lira">
          -66 -3 45 -3 49 222 33 43 79 callgsubr
          hintmask 10111100
          347 310 rmoveto
          33 -112 43 36 callgsubr
          hintmask 01111010
          7 callsubr
          -43 -77 -33 77 vlineto
          -3 -128 -29 -76 -29 -43 -17 -26 -19 -18 -21 -11 8 callgsubr
          hintmask 10111100
          69 callsubr
          -9 6 rlineto
          -25 -21 -20 -12 -18 hhcurveto
          -23 -19 10 12 -19 hvcurveto
          hintmask 01111100
          70 callsubr
          33 43 30 82 5 108 rrcurveto
          endchar
        </CharString>
        <CharString name="logicalnot">
          -64 135 -21 116 48 hstem
          380 44 vstem
          424 114 rmoveto
          164 -387 -48 343 -116 vlineto
          endchar
        </CharString>
        <CharString name="lozenge">
          -174 -9 -21 713 -20 hstem
          344 327 rmoveto
          -166 356 -167 -356 167 -357 rlineto
          117 357 rmoveto
          -117 -252 -117 252 117 253 rlineto
          endchar
        </CharString>
        <CharString name="lslash">
          -297 21 -21 666 -20 hstem
          85 66 vstem
          21 151 rmoveto
          19 15 25 17 20 15 rrcurveto
          -133 vlineto
          -20 -12 -35 -21 vhcurveto
          -10 131 -88 callgsubr
          180 vlineto
          83 61 -22 29 -61 -44 rlineto
          375 vlineto
          -101 -31 1 -10 rlineto
          33 -1 1 -24 -23 vvcurveto
          -333 vlineto
          -87 -63 rlineto
          endchar
        </CharString>
        <CharString name="m">
          84 callgsubr
          2 -20 hstemhm
          80 65 205 65 204 66 hintmask 11011100
          685 252 rmoveto
          56 -10 122 -149 -77 -35 -48 -40 -21 vhcurveto
          41 -22 -40 47 -75 hhcurveto
          -57 -34 -26 -23 -20 hvcurveto
          hintmask 10111100
          51 vlineto
          -99 -33 2 callsubr
          32 2 -37 -21 hvcurveto
          -267 -68 callgsubr
          129 -88 callgsubr
          230 vlineto
          hintmask 11011100
          42 34 59 69 52 50 -44 -65 vhcurveto
          -222 -68 callgsubr
          129 -88 callgsubr
          221 vlineto
          32 31 78 72 65 36 -54 -61 vhcurveto
          -216 vlineto
          -20 -12 -35 -21 vhcurveto
          -10 130 10 vlineto
          43 callsubr
          endchar
        </CharString>
        <CharString name="macron">
          -14 callsubr
        </CharString>
        <CharString name="multiply">
          -64 194 -21 311 -20 hstem
          388 448 rmoveto
          -36 36 -121 -121 -120 121 -35 -35 18 -21 81 -81 22 -19 rlinecurve
          -120 -119 35 -36 120 120 120 -120 35 35 -120 119 rlineto
          endchar
        </CharString>
        <CharString name="n">
          18 callsubr
          -29 callsubr
          447 258 rmoveto
          -63 callgsubr
          -95 callgsubr
          endchar
        </CharString>
        <CharString name="nacute">
          18 callsubr
          84 -21 113 -37 callgsubr
          -95 callgsubr
          -263 429 -97 callgsubr
        </CharString>
        <CharString name="napostrophe">
          1 22 -21 394 37 229 -20 hstemhm
          79 66 -34 57 215 65 hintmask 11101100
          112 661 29 callgsubr
          hvcurveto
          -35 40 7 -27 vvcurveto
          -27 -4 -24 -53 -50 1 callgsubr
          336 -402 rmoveto
          77 -49 96 -125 vhcurveto
          hintmask 11110100
          -73 -37 -33 -22 -19 hvcurveto
          -95 callgsubr
          endchar
        </CharString>
        <CharString name="ncaron">
          18 callsubr
          73 -21 108 -37 callgsubr
          -95 callgsubr
          -305 522 -92 callgsubr
        </CharString>
        <CharString name="nine">
          -40 -12 43 -11 -21 202 35 345 35 hstemhm
          32 62 296 63 hintmask 01111100
          248 236 rmoveto
          -98 -56 94 91 81 46 79 91 101 58 -102 -93 -77 -45 -73 -97 hvcurveto
          -151 -165 rmoveto
          -72 vlineto
          -3 14 -2 -1 9 hvcurveto
          hintmask 10111100
          -3 16 33 -5 19 hhcurveto
          198 70 193 177 137 -64 121 -151 -136 -70 -105 -105 -104 67 -101 137 53 48 11 35 39 hvcurveto
          -91 -14 -58 -125 -116 hhcurveto
          -27 -5 -33 18 -21 27 rrcurveto
          endchar
        </CharString>
        <CharString name="notequal">
          -64 152 -21 99 48 102 50 94 -20 hstem
          379 524 rmoveto
          -52 hlineto
          -59 -94 rlineto
          -233 -50 203 hlineto
          -19 -35 -23 -32 -21 -35 rrcurveto
          -140 -48 110 hlineto
          -61 -99 rlineto
          51 hlineto
          19 32 23 35 20 32 rrcurveto
          228 48 -200 hlineto
          20 35 23 32 21 35 rrcurveto
          136 50 -105 hlineto
          endchar
        </CharString>
        <CharString name="ntilde">
          18 callsubr
          48 39 1 38 -29 callsubr
          447 258 rmoveto
          -63 callgsubr
          -95 callgsubr
          -72 488 -93 callsubr
        </CharString>
        <CharString name="numbersign">
          -28 21 -21 205 58 130 59 203 -20 hstem
          245 655 rmoveto
          -49 hlineto
          -32 -203 rlineto
          -110 -59 101 hlineto
          -18 -130 rlineto
          -110 -58 101 hlineto
          -29 -205 rlineto
          49 hlineto
          30 205 rlineto
          109 hlineto
          -29 -205 rlineto
          51 hlineto
          28 205 rlineto
          105 58 -98 hlineto
          19 130 rlineto
          106 59 -97 hlineto
          31 203 rlineto
          -50 hlineto
          -31 -203 rlineto
          -107 hlineto
          -9 -59 rmoveto
          109 hlineto
          -18 -130 rlineto
          -111 hlineto
          endchar
        </CharString>
        <CharString name="o">
          -16 callsubr
          hstem
          37 65 314 -104 callgsubr
          endchar
        </CharString>
        <CharString name="oacute">
          -16 callsubr
          81 -21 113 -20 hstem
          37 65 314 -104 callgsubr
          -69 93 -97 callgsubr
        </CharString>
        <CharString name="obreve">
          -16 callsubr
          64 39 65 -20 hstem
          37 65 47 224 43 -104 callgsubr
          118 201 -94 callsubr
        </CharString>
        <CharString name="ocircumflex">
          -16 callsubr
          74 42 callgsubr
          37 65 314 -104 callgsubr
          134 91 -99 callsubr
        </CharString>
        <CharString name="odieresis">
          -16 callsubr
          54 64 hstem
          37 65 69 -9 callsubr
          66 -104 callgsubr
          101 119 -106 callsubr
        </CharString>
        <CharString name="oe">
          309 -8 33 -11 -21 209 36 155 34 -1 -20 hstemhm
          45 64 294 63 265 62 hintmask 10110111
          632 27 rmoveto
          -99 -59 80 95 -8 hvcurveto
          327 hlineto
          130 -55 95 -133 -89 -49 -39 -56 -33 vhcurveto
          hintmask 10101111
          59 -37 -57 35 -81 hhcurveto
          -128 -86 -89 -131 -122 74 -92 134 88 56 45 56 36 hvcurveto
          hintmask 01110111
          -69 40 65 -31 80 hhcurveto
          75 37 23 16 23 hvcurveto
          8 12 9 6 9 hhcurveto
          75 -10 vlineto
          -59 -16 -66 -35 -59 hhcurveto
          -31 367 rmoveto
          91 36 -79 -77 3 hvcurveto
          -265 hlineto
          82 3 50 74 82 hhcurveto
          hintmask 10110111
          -338 -369 rmoveto
          -100 -54 93 99 85 41 91 97 112 44 -101 -88 -85 -41 -94 -99 hvcurveto
          endchar
        </CharString>
        <CharString name="ogonek">
          -334 -117 -21 143 -20 hstem
          26 48 vstem
          141 52 callgsubr
          29 22 31 28 21 hvcurveto
          -30 hlineto
          -36 -20 -32 -35 -33 vvcurveto
          -29 27 -26 59 28 26 -32 callgsubr
          -13 -13 -2 -14 hhcurveto
          endchar
        </CharString>
        <CharString name="ograve">
          -16 callsubr
          78 -21 113 -20 hstem
          37 65 314 -104 callgsubr
          96 96 -84 callsubr
        </CharString>
        <CharString name="ohungarumlaut">
          -16 callsubr
          53 -21 171 -20 hstem
          37 65 314 -104 callgsubr
          -99 66 -83 callgsubr
        </CharString>
        <CharString name="omacron">
          -16 callsubr
          46 40 hstem
          37 65 314 -104 callgsubr
          -88 79 -71 callsubr
        </CharString>
        <CharString name="one">
          -206 21 -21 626 -20 hstem
          141 65 vstem
          245 hmoveto
          10 vlineto
          -33 -6 25 28 hvcurveto
          479 vlineto
          -3 27 15 21 21 9 rrcurveto
          27 vlineto
          -233 -81 rlineto
          -36 vlineto
          114 36 rlineto
          2 5 3 1 3 hhcurveto
          7 3 -3 -7 hvcurveto
          -479 vlineto
          -27 -5 -22 -32 vhcurveto
          -10 vlineto
          endchar
        </CharString>
        <CharString name="oslash">
          96 callsubr
          hstemhm
          37 65 314 63 hintmask 10011100
          7 callgsubr
          hintmask 01101100
          -8 callsubr
          hintmask 10101100
          -51 callgsubr
          endchar
        </CharString>
        <CharString name="oslashacute">
          96 callsubr
          193 -20 hstemhm
          37 65 314 63 hintmask 10011110
          7 callgsubr
          hintmask 01101110
          -8 callsubr
          hintmask 10101110
          -51 callgsubr
          -69 96 -97 callgsubr
        </CharString>
        <CharString name="otilde">
          -16 callsubr
          55 39 1 38 hstem
          37 65 314 -104 callgsubr
          122 162 -93 callsubr
        </CharString>
        <CharString name="p">
          69 callgsubr
          hstemhm
          78 66 260 66 hintmask 11101100
          -3 callsubr
          hintmask 11011100
          44 -98 12 callsubr
          -506 -88 callsubr
          196 vlineto
          -33 35 46 -25 41 hhcurveto
          138 66 111 107 hvcurveto
          hintmask 11101100
          109 -69 107 -143 vhcurveto
          -69 callgsubr
          endchar
        </CharString>
        <CharString name="paragraph">
          -54 -128 -21 809 -20 hstemhm
          19 226 -61 61 69 61 hintmask 11101000
          407 660 rmoveto
          -222 hlineto
          -111 -55 -87 -84 hvcurveto
          hintmask 11011000
          -85 57 -82 108 -3 vhcurveto
          -404 vlineto
          -21 -11 -30 -20 -3 vhcurveto
          -10 254 10 vlineto
          -20 -12 34 20 hvcurveto
          682 vlineto
          20 14 32 18 vhcurveto
          -93 -734 rmoveto
          -20 -14 -34 -21 -17 -17 34 20 vhcurveto
          682 vlineto
          19 14 33 20 21 14 -33 -19 vhcurveto
          endchar
        </CharString>
        <CharString name="parenleft">
          -311 -70 -21 835 -20 hstem
          9 67 vstem
          181 -86 rmoveto
          -88 120 -17 149 143 vvcurveto
          150 18 143 85 120 vhcurveto
          -9 5 rlineto
          -105 -123 -56 -125 -169 vvcurveto
          -164 56 -130 107 -124 vhcurveto
          endchar
        </CharString>
        <CharString name="parenright">
          -311 -70 -21 835 -20 hstem
          114 66 vstem
          8 739 rmoveto
          88 -120 18 -147 -145 vvcurveto
          -149 -18 -143 -86 -121 vhcurveto
          9 -5 rlineto
          105 123 56 126 168 vvcurveto
          165 -55 130 -108 123 vhcurveto
          endchar
        </CharString>
        <CharString name="percent">
          237 47 callgsubr
          34 67 168 68 85 67 167 69 hintmask 0111111111000000
          575 655 rmoveto
          -51 58 callsubr
          29 46 45 53 40 -49 -75 vhcurveto
          hintmask 1011111111000000
          48 callsubr
          -220 333 rmoveto
          -75 -30 -48 -45 -51 -42 52 75 68 28 50 47 49 44 -54 -68 vhcurveto
          -235 2 rmoveto
          -84 67 -68 84 84 68 68 84 83 -68 69 -84 -84 -67 -69 -83 vhcurveto
          388 -338 22 callsubr
        </CharString>
        <CharString name="period">
          -330 -4 95 hstem
          52 95 vstem
          52 43 31 callgsubr
          endchar
        </CharString>
        <CharString name="periodcentered">
          -367 145 95 hstem
          41 95 vstem
          41 192 31 callgsubr
          endchar
        </CharString>
        <CharString name="perthousand">
          622 47 callgsubr
          36 68 166 70 83 68 167 70 72 67 167 69 hintmask 0111111111110000
          578 655 rmoveto
          -52 58 callsubr
          30 46 45 52 40 -49 -75 vhcurveto
          hintmask 1011111111110000
          48 callsubr
          -221 333 rmoveto
          -75 -29 -48 -45 -49 -43 53 74 68 28 50 47 48 43 -54 -68 vhcurveto
          -234 2 rmoveto
          -84 68 -68 83 84 69 68 84 83 -69 69 -84 -83 -68 -69 -83 vhcurveto
          387 -338 rmoveto
          -83 68 -68 85 83 69 68 83 85 -69 68 -83 -85 -68 -68 -85 vhcurveto
          444 3 rmoveto
          76 29 46 45 53 40 -49 -75 48 callsubr
          -67 -3 22 callsubr
        </CharString>
        <CharString name="plus">
          -64 155 -21 170 48 171 -20 hstem
          206 49 vstem
          255 523 rmoveto
          -49 -171 -171 -48 171 -170 49 170 170 48 -170 hlineto
          endchar
        </CharString>
        <CharString name="plusminus">
          -64 92 48 226 49 170 -20 hstem
          206 49 vstem
          427 92 rmoveto
          48 -392 -48 vlineto
          220 493 rmoveto
          -49 -170 -171 -49 171 -169 49 169 172 49 -172 hlineto
          endchar
        </CharString>
        <CharString name="q">
          -17 -189 -21 203 34 365 35 8 -20 hstemhm
          40 65 259 66 hintmask 11011100
          332 -210 rmoveto
          130 10 hlineto
          67 callgsubr
          580 vlineto
          -59 -63 rlineto
          hintmask 11101100
          29 -27 -50 26 -47 hhcurveto
          -128 -79 -108 -108 -109 67 -109 142 60 31 20 31 24 hvcurveto
          -189 -23 callgsubr
          -77 227 rmoveto
          -95 3 -55 101 93 vvcurveto
          83 49 85 88 59 63 -44 -77 vhcurveto
          -136 vlineto
          -60 -53 -48 -56 vhcurveto
          endchar
        </CharString>
        <CharString name="question">
          -122 -19 97 552 34 hstemhm
          101 96 -71 26 163 68 hintmask 11011000
          383 498 rmoveto
          85 -62 81 -139 -36 -53 -7 -9 -35 vhcurveto
          -1 -3 -3 0 -3 hhcurveto
          -24 -105 10 hlineto
          67 3 51 21 95 hhcurveto
          81 50 -53 -73 -47 -42 -26 -44 -27 hvcurveto
          -49 -32 -54 -31 -70 vvcurveto
          -8 -1 -12 3 -8 vhcurveto
          15 -112 rlineto
          9 hlineto
          63 19 61 25 37 vhcurveto
          27 37 34 18 32 19 rrcurveto
          51 27 43 27 78 vvcurveto
          hintmask 11101000
          -186 -468 rmoveto
          27 -20 21 -27 -28 -21 -21 -27 -27 21 -22 28 27 20 22 27 vhcurveto
          endchar
        </CharString>
        <CharString name="questiondown">
          -122 -10 34 543 97 hstemhm
          25 68 118 96 -51 26 hintmask 11101000
          25 156 rmoveto
          -85 62 -81 139 36 53 7 9 35 vhcurveto
          1 3 3 0 3 hhcurveto
          24 104 -10 hlineto
          -67 -3 -50 -20 -96 hhcurveto
          -81 -50 53 73 47 42 26 44 27 hvcurveto
          49 32 54 31 70 vvcurveto
          8 1 12 -3 8 vhcurveto
          -15 116 rlineto
          -9 hlineto
          hintmask 11110000
          -69 -18 -60 -27 -37 vhcurveto
          -25 -36 -35 -20 -32 -17 rrcurveto
          -50 -29 -44 -23 -80 vvcurveto
          186 459 rmoveto
          -27 20 -21 27 28 21 21 27 27 -21 22 -28 -27 -20 -22 -27 vhcurveto
          endchar
        </CharString>
        <CharString name="quotedbl">
          -272 420 244 hstem
          50 50 56 81 callgsubr
          106 -244 rmoveto
          50 244 -50 hlineto
          endchar
        </CharString>
        <CharString name="quotedblbase">
          -261 -94 -2 callsubr
          14 97 -57 57 51 97 -57 57 hintmask 11101000
          55 93 rmoveto
          38 callgsubr
          hintmask 11011000
          5 callgsubr
          148 hmoveto
          38 callgsubr
          hintmask 11100100
          5 callgsubr
          endchar
        </CharString>
        <CharString name="quotedblleft">
          -269 478 -2 callsubr
          -4 57 -57 97 36 56 -56 96 hintmask 11100100
          184 457 rmoveto
          23 18 19 24 23 -12 3 -12 8 hvcurveto
          hintmask 11011000
          -8 7 -8 2 11 vvcurveto
          29 5 23 53 50 vhcurveto
          -6 9 rlineto
          -92 -45 -16 -56 -41 vvcurveto
          -35 16 -31 39 vhcurveto
          -132 hmoveto
          24 17 63 callsubr
          hintmask 11101000
          -8 4 -7 4 -35 callsubr
        </CharString>
        <CharString name="quotedblright">
          -269 477 -2 callsubr
          14 97 -57 57 35 97 -57 57 hintmask 11101000
          55 664 29 callgsubr
          -23 13 -5 11 -7 hvcurveto
          hintmask 11011000
          9 -5 7 -4 -11 vvcurveto
          -29 -5 -21 -53 -51 vhcurveto
          6 -9 rlineto
          92 46 17 54 43 vvcurveto
          35 -17 30 -39 vhcurveto
          132 hmoveto
          38 callgsubr
          hintmask 11100100
          9 -5 7 -4 -11 vvcurveto
          -30 -6 -20 -51 -51 vhcurveto
          6 -9 rlineto
          91 45 17 55 43 vvcurveto
          35 -17 30 -39 vhcurveto
          endchar
        </CharString>
        <CharString name="quoteleft">
          -404 477 -2 callsubr
          5 57 -57 98 hintmask 11010000
          61 456 rmoveto
          24 18 63 callsubr
          hintmask 11100000
          -9 5 -7 3 -35 callsubr
        </CharString>
        <CharString name="quoteright">
          -404 476 -2 callsubr
          23 97 -57 57 hintmask 11100000
          64 663 29 callgsubr
          -23 13 -5 11 -7 hvcurveto
          hintmask 11010000
          -71 callgsubr
        </CharString>
        <CharString name="quotesinglbase">
          14 callgsubr
          hvcurveto
          hintmask 11010000
          -40 40 12 -27 10 callgsubr
        </CharString>
        <CharString name="quotesingle">
          -380 441 -21 244 -20 hstem
          50 81 callgsubr
          endchar
        </CharString>
        <CharString name="r">
          85 callgsubr
          hstem
          77 66 vstem
          319 408 rmoveto
          9 -19 -34 10 -19 hhcurveto
          -52 -29 -31 -29 -23 hvcurveto
          60 vlineto
          -101 -30 rlineto
          -8 vlineto
          23 -5 12 -22 -19 vvcurveto
          -279 vlineto
          -20 -12 -34 18 callgsubr
          34 20 hvcurveto
          260 vlineto
          22 22 40 31 29 hhcurveto
          23 16 -3 -27 16 hvcurveto
          endchar
        </CharString>
        <CharString name="racute">
          85 callgsubr
          83 -21 113 -20 hstem
          77 66 vstem
          319 408 rmoveto
          9 -19 -34 10 -19 hhcurveto
          -52 -29 -31 -29 -23 hvcurveto
          60 vlineto
          -101 -30 rlineto
          -8 vlineto
          23 -5 12 -22 -19 vvcurveto
          -279 vlineto
          -20 -12 -34 18 callgsubr
          34 20 hvcurveto
          260 vlineto
          22 22 40 31 29 hhcurveto
          23 16 -3 -27 16 hvcurveto
          -202 142 -97 callgsubr
        </CharString>
        <CharString name="rcaron">
          85 callgsubr
          74 42 callgsubr
          77 66 vstem
          319 408 rmoveto
          9 -19 -34 10 -19 hhcurveto
          -52 -29 -31 -29 -23 hvcurveto
          60 vlineto
          -101 -30 rlineto
          -8 vlineto
          23 -5 12 -22 -19 vvcurveto
          -279 vlineto
          -20 -12 -34 18 callgsubr
          34 20 hvcurveto
          260 vlineto
          22 22 40 31 29 hhcurveto
          23 16 -3 -27 16 hvcurveto
          -244 237 -92 callgsubr
        </CharString>
        <CharString name="registered">
          215 -1 38 -38 138 -9 224 145 30 91 37 hstemhm
          41 41 153 56 164 52 149 41 hintmask 1011111110000000
          -58 callgsubr
          292 -3 rmoveto
          77 8 56 49 52 vvcurveto
          48 -48 47 -116 vhcurveto
          -138 -9 hlineto
          19 11 -30 -19 hvcurveto
          -280 vlineto
          hintmask 0101111110000000
          -19 -11 -33 -19 vhcurveto
          hintmask 1011111110000000
          -9 116 vlineto
          hintmask 0101111110000000
          9 vlineto
          -19 -11 33 19 hvcurveto
          133 23 vlineto
          -1 20 -33 21 -33 vhcurveto
          42 -66 rlineto
          hintmask 1011111110000000
          -41 31 28 -20 48 hhcurveto
          21 hlineto
          hintmask 0101111110000000
          9 vlineto
          -27 -25 33 25 -16 hvcurveto
          -166 302 rmoveto
          54 hlineto
          71 39 -35 -35 hvcurveto
          hintmask 1011111110000000
          -36 -22 -39 -93 vhcurveto
          -49 hlineto
          endchar
        </CharString>
        <CharString name="ring">
          -45 callgsubr
        </CharString>
        <CharString name="s">
          3 callsubr
          hstem
          36 62 207 -101 callgsubr
          endchar
        </CharString>
        <CharString name="sacute">
          3 callsubr
          91 -21 113 -20 hstem
          36 62 207 -101 callgsubr
          -246 383 -97 callgsubr
        </CharString>
        <CharString name="scaron">
          3 callsubr
          91 42 callgsubr
          36 62 207 -101 callgsubr
          -288 487 -92 callgsubr
        </CharString>
        <CharString name="scedilla">
          -120 -179 207 -35 35 366 33 hstemhm
          36 62 134 49 24 65 hintmask 01111100
          221 -7 rmoveto
          83 8 66 50 63 vvcurveto
          77 -81 29 -75 24 vhcurveto
          -60 18 -56 21 43 vvcurveto
          31 28 37 67 52 55 -23 -44 24 vhcurveto
          8 70 hlineto
          -15 -11 3 7 -12 hvcurveto
          9 -19 -25 11 -52 hhcurveto
          -118 -44 -54 -61 -72 77 -27 70 -22 hvcurveto
          59 -19 63 -21 -51 vvcurveto
          -51 -61 -21 -47 -65 -74 57 37 -8 vhcurveto
          -10 -76 hlineto
          17 14 -8 -11 16 hvcurveto
          23 -15 28 -16 51 -3 -33 -54 rcurveline
          49 -7 27 -24 -21 vvcurveto
          -28 -41 -27 -51 vhcurveto
          -11 -8 hlineto
          4 6 -1 4 hhcurveto
          hintmask 10111100
          -1 9 8 -1 9 hhcurveto
          71 41 36 35 27 -25 24 -60 7 hvcurveto
          hintmask 01111100
          25 43 rlineto
          endchar
        </CharString>
        <CharString name="scircumflex">
          3 callsubr
          67 42 callgsubr
          36 62 207 -101 callgsubr
          -43 364 -99 callsubr
        </CharString>
        <CharString name="section">
          -154 -50 32 19 -21 689 33 -32 -20 hstemhm
          42 63 -44 44 176 45 -45 62 hintmask 10101010
          326 85 rmoveto
          47 -33 36 -31 27 vhcurveto
          hintmask 10101001
          44 20 37 35 63 vvcurveto
          73 -68 50 -61 45 vhcurveto
          -49 35 -50 38 41 vvcurveto
          39 33 35 47 49 59 -36 -43 5 vhcurveto
          10 hlineto
          hintmask 10011010
          80 vlineto
          -13 -13 4 8 -15 hvcurveto
          hintmask 10100110
          11 -21 -27 9 -31 hhcurveto
          -82 -55 -60 -75 -42 34 -43 32 -26 hvcurveto
          hintmask 10101010
          -44 -21 -41 -37 -61 vvcurveto
          -68 64 -43 59 -43 vhcurveto
          48 -37 59 -41 -48 vvcurveto
          -39 -32 -36 -48 -51 -62 38 41 -5 vhcurveto
          -9 hlineto
          hintmask 01101010
          -81 vlineto
          21 25 -6 -9 15 hvcurveto
          hintmask 10101010
          -8 19 21 -7 23 hhcurveto
          82 55 63 72 hvcurveto
          -221 278 rmoveto
          35 28 26 24 13 vhcurveto
          60 -39 64 -43 -66 vvcurveto
          -33 -28 -26 -24 -13 vhcurveto
          -69 48 -55 37 61 vvcurveto
          endchar
        </CharString>
        <CharString name="semicolon">
          -328 -92 -21 210 196 0 95 hstemhm
          52 97 -57 57 hintmask 11010000
          93 97 29 callgsubr
          -19 11 -6 12 -7 hvcurveto
          -1 hlineto
          hintmask 11001000
          9 -7 9 -4 -12 vvcurveto
          -27 -8 -24 -56 -51 vhcurveto
          10 -10 rlineto
          92 47 19 56 41 -17 callgsubr
          hintmask 10110000
          -41 243 31 callgsubr
          endchar
        </CharString>
        <CharString name="seven">
          -90 21 -21 559 56 hstem
          417 615 rmoveto
          -410 -112 10 hlineto
          52 39 4 32 vhcurveto
          261 hlineto
          -215 -559 rlineto
          47 hlineto
          endchar
        </CharString>
        <CharString name="six">
          -40 -10 35 345 35 174 37 hstem
          32 64 296 61 vstem
          237 370 rmoveto
          99 56 -94 -91 -81 -46 -79 -92 -100 -58 102 93 77 45 73 96 hvcurveto
          152 165 rmoveto
          72 vlineto
          -1 -11 2 1 -8 hvcurveto
          3 -16 -22 3 -19 hhcurveto
          -179 -101 -193 -175 -137 65 -121 150 136 70 105 105 104 -67 101 -137 -52 -49 -12 -35 -39 hvcurveto
          87 11 55 134 123 hhcurveto
          27 33 -17 -27 21 hvcurveto
          endchar
        </CharString>
        <CharString name="slash">
          -198 -40 -21 775 -20 hstem
          324 704 97 callgsubr
          endchar
        </CharString>
        <CharString name="space">
          -271 endchar
        </CharString>
        <CharString name="sterling">
          -66 -3 45 -3 49 298 79 callgsubr
          hintmask 10111000
          401 80 rmoveto
          -25 -22 -20 -13 -18 hhcurveto
          -23 -19 10 12 -19 hvcurveto
          hintmask 01111000
          70 callsubr
          36 47 33 90 121 vvcurveto
          51 36 callgsubr
          hintmask 01110100
          7 callsubr
          -59 vlineto
          -135 -30 -81 -29 -45 vhcurveto
          -17 -27 -20 -19 -22 -12 8 callgsubr
          hintmask 10111000
          69 callsubr
          endchar
        </CharString>
        <CharString name="t">
          -246 59 callgsubr
          hintmask 11101000
          51 callgsubr
          hintmask 11110000
          -76 callsubr
          hintmask 11101000
          -54 callgsubr
          hintmask 11110000
          99 callgsubr
        </CharString>
        <CharString name="tbar">
          -246 0 34 250 33 69 34 178 -20 hstemhm
          21 234 -178 66 -66 178 hintmask 11110010
          51 callgsubr
          hintmask 11110100
          -112 178 hlineto
          -100 -32 -10 callgsubr
          1 -23 -23 vvcurveto
          -89 vlineto
          hintmask 11111000
          -56 -34 hlineto
          hintmask 11110100
          56 -69 hlineto
          hintmask 11111000
          -56 -33 hlineto
          hintmask 11110100
          56 -125 hlineto
          -76 0 -83 97 39 16 14 9 11 vhcurveto
          hintmask 11111000
          -54 callgsubr
          hintmask 11110100
          -37 -3 41 70 hvcurveto
          139 vlineto
          hintmask 11111000
          112 33 hlineto
          hintmask 11110100
          -112 69 hlineto
          endchar
        </CharString>
        <CharString name="tcaron">
          -240 91 callsubr
          243 88 callgsubr
          -55 97 -57 57 hintmask 11101000
          51 callgsubr
          hintmask 11110010
          -76 callsubr
          hintmask 11101000
          -54 callgsubr
          hintmask 11110100
          10 callsubr
          hintmask 11101000
          98 277 rmoveto
          hintmask 11110100
          -9 callgsubr
          -23 13 -5 11 -7 hvcurveto
          hintmask 11110010
          -71 callgsubr
        </CharString>
        <CharString name="thorn">
          12 -188 87 callgsubr
          237 -20 hstem
          78 66 260 66 vstem
          258 428 rmoveto
          -49 -38 -19 -32 -27 hvcurveto
          288 vlineto
          -98 -30 rlineto
          12 callsubr
          -720 -88 callsubr
          196 vlineto
          -33 35 46 -25 41 hhcurveto
          138 66 111 107 109 -69 107 -143 hvcurveto
          -69 callgsubr
          endchar
        </CharString>
        <CharString name="three">
          -106 -10 33 307 33 231 31 hstemhm
          279 64 -24 65 hintmask 11110000
          28 518 rmoveto
          10 hlineto
          51 31 49 25 45 hhcurveto
          75 41 -57 -55 -60 -43 -59 -83 hvcurveto
          -51 -33 46 hlineto
          hintmask 11101000
          106 65 -76 -81 -77 -59 -73 -97 -55 -54 25 48 -35 hvcurveto
          -10 -77 9 hlineto
          12 11 -4 -5 15 hvcurveto
          -8 23 31 -12 51 hhcurveto
          136 87 85 111 75 -45 62 -92 27 hvcurveto
          hintmask 11110000
          65 29 31 52 52 vvcurveto
          76 -62 66 -107 -47 -30 -11 -8 -23 vhcurveto
          -5 -15 -11 -5 -11 hhcurveto
          -9 hlineto
          endchar
        </CharString>
        <CharString name="tilde">
          -247 454 39 1 38 hstem
          252 528 -59 callsubr
        </CharString>
        <CharString name="tildecomb">
          -247 454 39 1 38 hstem
          252 528 -59 callsubr
        </CharString>
        <CharString name="trademark">
          205 363 -21 284 34 hstemhm
          15 168 -56 56 -56 171 59 32 225 56 hintmask 11001110
          670 610 rmoveto
          15 7 25 11 vhcurveto
          10 -72 vlineto
          -105 -212 -108 212 rlineto
          -65 -10 hlineto
          19 -1 0 -23 -16 vvcurveto
          -209 vlineto
          -11 -7 -31 -12 vhcurveto
          -10 71 10 vlineto
          -12 -8 31 11 hvcurveto
          156 vlineto
          110 -215 115 229 rlineto
          -170 vlineto
          -12 -8 -30 -12 vhcurveto
          -10 94 10 vlineto
          -11 -7 31 11 hvcurveto
          -372 178 rmoveto
          81 vlineto
          hintmask 11100110
          -283 -81 10 hlineto
          21 3 16 26 27 hhcurveto
          hintmask 11010110
          56 -225 hlineto
          -12 -7 -31 -12 vhcurveto
          -10 95 10 vlineto
          -12 -8 31 12 hvcurveto
          225 59 vlineto
          27 18 -26 -21 1 hvcurveto
          endchar
        </CharString>
        <CharString name="two">
          -102 0 56 532 37 hstem
          27 70 221 64 vstem
          23 479 rmoveto
          10 hlineto
          64 32 53 45 68 hhcurveto
          65 67 -52 -88 -70 -61 -53 -64 -56 hvcurveto
          -77 -69 -89 -78 -122 vvcurveto
          370 114 -9 hlineto
          -41 -1 -31 -17 -51 hhcurveto
          -208 hlineto
          5 83 68 61 69 55 rrcurveto
          72 59 71 58 93 vvcurveto
          111 -87 49 -91 -73 -42 -31 -19 -28 vhcurveto
          -8 -12 -10 -8 -7 hhcurveto
          -9 hlineto
          endchar
        </CharString>
        <CharString name="u">
          -25 callsubr
          hstemhm
          84 66 225 66 hintmask 10111000
          -103 callsubr
          hintmask 01111000
          -53 callsubr
          endchar
        </CharString>
        <CharString name="uacute">
          -25 callsubr
          110 -21 113 52 callsubr
          hintmask 10111110
          -103 callsubr
          hintmask 01111110
          -53 callsubr
          -261 435 -97 callgsubr
        </CharString>
        <CharString name="ubreve">
          -25 callsubr
          83 39 65 -20 hstemhm
          84 66 -1 224 2 66 hintmask 10111101
          -103 callsubr
          hintmask 01111011
          -53 callsubr
          -74 533 -94 callsubr
        </CharString>
        <CharString name="ucircumflex">
          -25 callsubr
          93 -21 108 52 callsubr
          hintmask 10111110
          -103 callsubr
          hintmask 01111110
          -53 callsubr
          -58 423 -99 callsubr
        </CharString>
        <CharString name="udieresis">
          83 callgsubr
          171 -64 64 hstemhm
          84 66 22 -9 callsubr
          24 66 hintmask 10101111
          -103 callsubr
          hintmask 01011111
          -53 callsubr
          -90 464 -106 callsubr
        </CharString>
        <CharString name="ugrave">
          -25 callsubr
          90 -21 113 52 callsubr
          hintmask 10111110
          -103 callsubr
          hintmask 01111110
          -53 callsubr
          -96 421 -84 callsubr
        </CharString>
        <CharString name="uhungarumlaut">
          -25 callsubr
          82 -21 171 52 callsubr
          hintmask 10111110
          -103 callsubr
          hintmask 01111110
          -53 callsubr
          -290 408 -83 callgsubr
        </CharString>
        <CharString name="umacron">
          -25 callsubr
          79 40 20 callsubr
          hintmask 10111100
          -103 callsubr
          hintmask 01111100
          -53 callsubr
          -280 425 -71 callsubr
        </CharString>
        <CharString name="underscore">
          -107 -184 32 hstem
          421 -184 rmoveto
          32 -423 -32 vlineto
          endchar
        </CharString>
        <CharString name="uni00AD">
          -239 198 48 hstem
          262 198 rmoveto
          48 -226 -48 vlineto
          endchar
        </CharString>
        <CharString name="uni0122">
          126 -11 callsubr
          25 0 36 609 35 hstemhm
          37 67 190 96 -57 57 123 67 hintmask 11011101
          334 -34 rmoveto
          -23 -17 -18 -25 -11 9 -23 15 hvcurveto
          hintmask 11011011
          8 -5 7 -5 -11 vvcurveto
          -30 -5 -20 -51 -50 callsubr
          -17 31 -39 vhcurveto
          141 373 -39 callsubr
          hintmask 10111101
          -99 callgsubr
          endchar
        </CharString>
        <CharString name="uni0123">
          -30 callsubr
          55 -2 callsubr
          44 36 -36 63 54 57 -57 98 103 65 -25 43 hintmask 1111101100100000
          -82 callgsubr
          hintmask 1111110101000000
          -97 callsubr
          hintmask 1111110100100000
          -50 callgsubr
          hintmask 1111101011000000
          -59 callgsubr
          -7 69 rmoveto
          24 18 63 callsubr
          hintmask 1111110101000000
          -9 5 -7 3 -35 callsubr
        </CharString>
        <CharString name="uni0136">
          35 74 callgsubr
          660 -20 hstemhm
          83 67 93 96 -56 56 hintmask 11111000
          284 -34 29 callgsubr
          -11 9 -16 15 -7 hvcurveto
          hintmask 11110100
          11 -5 5 -7 -9 vvcurveto
          -29 -4 -21 -53 -50 callsubr
          -16 31 -39 vhcurveto
          -101 44 rmoveto
          -20 -13 -20 callsubr
          250 vlineto
          42 43 194 -293 rlineto
          -47 31 25 -18 80 hhcurveto
          24 10 hlineto
          -40 -41 55 6 -3 hvcurveto
          -221 335 210 209 rlineto
          -24 callgsubr
          5 10 -122 -10 5 hlineto
          8 4 -5 -11 -6 -2 -5 -4 -5 -42 callgsubr
          5 10 -143 -10 5 hlineto
          30 callgsubr
          hlineto
          endchar
        </CharString>
        <CharString name="uni0137">
          -71 74 callgsubr
          420 -20 256 -20 hstemhm
          82 66 42 96 -57 57 hintmask 11111100
          230 -34 rmoveto
          -23 -17 54 callgsubr
          -5 hvcurveto
          hintmask 11111010
          8 -5 7 -5 -11 vvcurveto
          -30 -5 -21 -51 -50 callsubr
          -17 31 -39 vhcurveto
          206 34 rmoveto
          10 vlineto
          -12 -18 -48 callgsubr
          -148 187 rcurveline
          142 132 40 callsubr
          -90 -10 vlineto
          5 2 -2 -5 -5 -2 -4 -3 -3 hvcurveto
          -162 -152 rlineto
          417 vlineto
          -99 -31 rlineto
          -10 vlineto
          20 -1 13 -23 -19 vvcurveto
          -509 vlineto
          -46 callgsubr
          129 -166 7 -9 8 -8 9 -7 rlinecurve
          -12 15 19 -12 23 hhcurveto
          endchar
        </CharString>
        <CharString name="uni013B">
          -66 -11 callsubr
          34 660 -20 hstemhm
          84 67 41 97 -57 57 hintmask 11111000
          233 -34 29 callgsubr
          -11 9 -16 15 -7 hvcurveto
          hintmask 11110100
          11 -5 5 -7 -9 vvcurveto
          -29 -4 -21 -53 -51 1 callgsubr
          -188 34 rmoveto
          33 callgsubr
          hintmask 11111000
          4 callgsubr
          561 hlineto
          -6 callgsubr
          -94 callgsubr
          endchar
        </CharString>
        <CharString name="uni013C">
          -300 -11 callsubr
          34 666 -20 hstemhm
          82 66 -33 56 hintmask 11101000
          116 -34 rmoveto
          -18 callgsubr
          -28 callsubr
          93 42 15 61 39 vvcurveto
          90 callgsubr
          64 34 rmoveto
          10 vlineto
          hintmask 11110000
          -89 callgsubr
          601 vlineto
          -101 -31 -10 callgsubr
          2 -24 -23 vvcurveto
          -512 vlineto
          -20 -12 -35 -21 vhcurveto
          -10 vlineto
          endchar
        </CharString>
        <CharString name="uni0145">
          97 74 callgsubr
          660 -20 hstemhm
          82 35 157 96 -56 56 136 35 hintmask 11111010
          315 -34 29 callgsubr
          -21 13 -6 11 -7 hvcurveto
          hintmask 11110110
          45 callgsubr
          43 16 59 40 vvcurveto
          90 callgsubr
          -165 44 -77 callsubr
          endchar
        </CharString>
        <CharString name="uni0146">
          1 -11 callsubr
          35 394 37 hstemhm
          79 66 81 96 -57 57 61 65 hintmask 11111010
          266 -34 rmoveto
          -23 -17 -18 -25 -21 12 -7 11 -5 hvcurveto
          hintmask 11110110
          8 -5 8 -5 -11 vvcurveto
          -30 -5 -21 -51 -50 callsubr
          -17 31 -39 vhcurveto
          182 293 rmoveto
          -63 callgsubr
          -95 callgsubr
          endchar
        </CharString>
        <CharString name="uni0156">
          9 74 callgsubr
          626 34 hstemhm
          82 67 81 96 -56 56 33 69 hintmask 11111010
          271 -34 29 callgsubr
          hvcurveto
          hintmask 11110110
          -35 40 7 -27 vvcurveto
          -29 -4 -21 -53 -50 callsubr
          -16 31 -39 vhcurveto
          -90 44 -96 callsubr
          endchar
        </CharString>
        <CharString name="uni0157">
          -194 -11 callsubr
          35 377 50 hstemhm
          77 66 -31 57 hintmask 11101000
          113 -34 rmoveto
          -18 callgsubr
          -28 callsubr
          94 43 15 60 39 -17 callgsubr
          206 443 rmoveto
          9 -19 -34 10 -19 hhcurveto
          hintmask 11110000
          -52 -29 -31 -29 -23 hvcurveto
          60 vlineto
          -101 -30 rlineto
          -8 vlineto
          23 -5 12 -22 -19 vvcurveto
          -279 vlineto
          -20 -12 -34 18 callgsubr
          34 20 hvcurveto
          260 vlineto
          22 22 40 31 29 hhcurveto
          23 16 -3 -27 16 hvcurveto
          endchar
        </CharString>
        <CharString name="uni0162">
          -73 callsubr
        </CharString>
        <CharString name="uni0163">
          -81 callgsubr
        </CharString>
        <CharString name="uni01F4">
          27 callsubr
          65 -21 113 -20 hstem
          37 67 409 67 vstem
          475 338 -39 callsubr
          -99 callgsubr
          -198 366 -97 callgsubr
        </CharString>
        <CharString name="uni01F5">
          -30 callsubr
          70 -21 113 -20 37 callsubr
          hintmask 1111101010000000
          -82 callgsubr
          hintmask 1111110100000000
          -97 callsubr
          hintmask 1111110010000000
          -50 callgsubr
          hintmask 1111101100000000
          -59 callgsubr
          -58 84 -97 callgsubr
        </CharString>
        <CharString name="uni0218">
          -41 -11 callsubr
          26 0 35 608 35 hstemhm
          36 68 84 97 -57 57 96 69 hintmask 11011101
          229 -34 29 callgsubr
          hvcurveto
          hintmask 11011011
          -35 40 7 -27 vvcurveto
          -29 -4 -21 -53 -51 1 callgsubr
          221 211 rmoveto
          124 -102 38 -92 35 vhcurveto
          -80 29 -72 30 74 vvcurveto
          46 25 82 107 92 54 -20 -69 3 vhcurveto
          10 103 hlineto
          -20 -21 4 5 -23 hvcurveto
          7 -28 -30 5 -35 hhcurveto
          -102 -100 -55 -117 -112 93 -34 91 -35 hvcurveto
          80 -32 81 -28 -88 vvcurveto
          hintmask 10111101
          -68 -49 -74 -115 -33 -122 13 101 vhcurveto
          -10 -114 hlineto
          17 17 -5 -7 21 hvcurveto
          -9 32 37 -14 -33 callsubr
          endchar
        </CharString>
        <CharString name="uni0219">
          -120 -11 callsubr
          27 0 36 366 33 hstemhm
          36 62 67 96 -56 56 44 65 hintmask 11011101
          206 -34 rmoveto
          -18 callgsubr
          hintmask 11011011
          15 callgsubr
          90 callgsubr
          164 149 rmoveto
          77 -81 29 -75 24 vhcurveto
          -60 18 -56 21 43 vvcurveto
          31 28 37 67 52 55 -23 -44 24 vhcurveto
          8 70 hlineto
          -15 -11 3 7 -12 hvcurveto
          9 -19 -25 11 -52 hhcurveto
          -118 -44 -54 -61 -72 77 -27 70 -22 hvcurveto
          59 -19 63 -21 -51 vvcurveto
          hintmask 10111101
          -51 -61 -21 -47 -65 -74 57 37 -8 vhcurveto
          -10 -76 hlineto
          17 14 -8 -11 17 hvcurveto
          -16 25 34 -19 57 hhcurveto
          92 74 54 68 hvcurveto
          endchar
        </CharString>
        <CharString name="uni021A">
          -73 callsubr
        </CharString>
        <CharString name="uni021B">
          -81 callgsubr
        </CharString>
        <CharString name="uni02C9">
          -14 callsubr
        </CharString>
        <CharString name="uni02CB">
          -40 callsubr
        </CharString>
        <CharString name="uni0302">
          -263 466 42 callgsubr
          258 450 -99 callsubr
        </CharString>
        <CharString name="uni0304">
          -14 callsubr
        </CharString>
        <CharString name="uni0306">
          -250 451 39 65 -20 hstem
          28 224 vstem
          246 555 -94 callsubr
        </CharString>
        <CharString name="uni0307">
          -12 callgsubr
        </CharString>
        <CharString name="uni030A">
          -45 callgsubr
        </CharString>
        <CharString name="uni030B">
          -253 466 -21 171 -20 hstem
          33 446 -83 callgsubr
        </CharString>
        <CharString name="uni030C">
          -231 463 42 callgsubr
          12 546 -92 callgsubr
        </CharString>
        <CharString name="uni0401">
          -58 callsubr
          26 64 hstem
          84 67 15 -9 callsubr
          vstem
          345 718 rmoveto
          19 -14 13 -17 -19 -13 -13 -75 callgsubr
          17 -103 callgsubr
          -185 -718 rmoveto
          -105 callgsubr
          endchar
        </CharString>
        <CharString name="uni0402">
          79 80 callgsubr
          206 67 224 67 vstem
          306 10 rmoveto
          -20 -13 -80 callgsubr
          221 vlineto
          59 35 callsubr
          -16 -21 -18 -18 -20 -14 5 -9 rcurveline
          31 15 29 18 25 22 rrcurveto
          43 38 43 59 84 vvcurveto
          90 vlineto
          88 -42 97 -133 -63 -32 -28 -25 -21 vhcurveto
          246 128 vlineto
          43 21 -42 -32 hvcurveto
          10 109 -458 -109 9 hlineto
          32 21 42 44 vhcurveto
          115 -560 hlineto
          -72 callsubr
          -5 -10 142 10 -5 hlineto
          endchar
        </CharString>
        <CharString name="uni0403">
          -71 21 -21 625 35 132 -20 hstem
          83 68 vstem
          169 678 rmoveto
          165 68 -26 46 -142 -108 rlineto
          18 -674 rmoveto
          57 callgsubr
          562 205 vlineto
          26 callsubr
          -385 -39 callgsubr
          -10 144 10 hlineto
          endchar
        </CharString>
        <CharString name="uni0404">
          71 -10 36 306 35 267 36 hstem
          39 68 vstem
          572 142 rmoveto
          -91 -29 -89 -25 -49 hhcurveto
          -163 -130 151 155 -5 hvcurveto
          267 hlineto
          35 20 -20 -23 hvcurveto
          9 125 -9 hlineto
          -25 -23 -22 -32 vhcurveto
          -266 hlineto
          128 16 93 139 180 hhcurveto
          61 76 -19 -84 16 hvcurveto
          10 111 hlineto
          -16 -16 3 7 -20 hvcurveto
          8 -28 -35 10 -44 hhcurveto
          -245 -117 -176 -165 -164 118 -175 233 47 42 11 9 35 hvcurveto
          7 27 21 5 20 hhcurveto
          120 vlineto
          endchar
        </CharString>
        <CharString name="uni0405">
          34 callsubr
          hstem
          36 68 277 69 vstem
          450 177 rmoveto
          124 -102 38 -92 35 vhcurveto
          -80 30 -72 28 75 vvcurveto
          46 26 82 106 91 55 -20 -69 3 vhcurveto
          10 103 hlineto
          -20 -21 4 5 -23 hvcurveto
          6 -28 -30 6 -35 hhcurveto
          -102 -100 -54 -118 -111 93 -36 91 -34 hvcurveto
          81 -31 80 -30 -87 vvcurveto
          -68 -50 -74 -114 -33 -122 13 101 vhcurveto
          -10 -114 hlineto
          17 17 -5 -7 21 hvcurveto
          -10 31 38 -13 -33 callsubr
          endchar
        </CharString>
        <CharString name="uni0406">
          -288 -16 callgsubr
          87 68 vstem
          -84 callgsubr
          144 10 -8 hlineto
          -19 -11 -80 callgsubr
          533 vlineto
          19 11 30 58 callgsubr
          10 -144 hlineto
          endchar
        </CharString>
        <CharString name="uni0407">
          -288 -44 callgsubr
          46 64 hstemhm
          34 64 -11 68 -5 64 hintmask 11110100
          214 718 rmoveto
          19 -14 13 -17 -19 -14 -13 -19 -19 14 -13 19 17 14 -62 callsubr
          -116 hmoveto
          19 -13 13 -19 -19 -13 -13 -75 callgsubr
          19 13 -62 callsubr
          -49 -68 rmoveto
          5 hlineto
          hintmask 11101000
          -92 callsubr
          144 10 -8 hlineto
          -19 -11 -80 callgsubr
          533 vlineto
          19 11 30 58 callgsubr
          10 -144 hlineto
          endchar
        </CharString>
        <CharString name="uni0408">
          -261 -189 -21 870 -20 hstem
          112 68 vstem
          75 84 callsubr
          -34 -19 hvcurveto
          -572 vlineto
          -73 -32 -56 -31 -39 vhcurveto
          -18 -23 -21 -19 -23 -17 5 -8 rcurveline
          35 17 32 20 27 25 rrcurveto
          47 42 47 62 84 vvcurveto
          557 vlineto
          19 14 34 20 vhcurveto
          5 10 -144 hlineto
          endchar
        </CharString>
        <CharString name="uni0409">
          318 90 callsubr
          288 -20 hstem
          448 65 224 67 vstem
          410 hmoveto
          135 hlineto
          178 81 93 96 149 -122 34 -124 hvcurveto
          -45 226 hlineto
          20 13 32 20 vhcurveto
          7 10 -143 -10 8 hlineto
          9 -1 3 -5 -7 vvcurveto
          -8 -4 -10 -4 -8 vhcurveto
          -8 -14 -333 -550 -15 -19 -16 -17 -31 -1 rlinecurve
          -10 34 vlineto
          19 28 11 32 20 hvcurveto
          328 544 rlineto
          -522 -47 callsubr
          hlineto
          103 328 rmoveto
          22 hlineto
          131 71 -61 -95 -93 -80 -54 -144 hvcurveto
          endchar
        </CharString>
        <CharString name="uni040A">
          299 90 callsubr
          288 -20 hstem
          83 66 284 66 214 68 vstem
          397 hmoveto
          152 hlineto
          132 100 72 117 144 -124 39 -122 hvcurveto
          -36 226 hlineto
          16 8 33 20 3 vhcurveto
          8 10 -138 -10 8 hlineto
          18 -3 10 -33 -16 vvcurveto
          -226 -284 226 vlineto
          16 8 33 58 callgsubr
          10 -138 -10 5 hlineto
          21 11 -33 -19 hvcurveto
          -533 28 callgsubr
          -10 138 10 -7 hlineto
          -17 -11 -20 callsubr
          273 284 48 callgsubr
          hlineto
          102 328 rmoveto
          13 hlineto
          132 69 -58 -95 -92 -77 -55 -137 -3 hvcurveto
          endchar
        </CharString>
        <CharString name="uni040B">
          111 21 -21 397 36 192 35 hstem
          206 68 223 67 vstem
          169 hmoveto
          142 10 -7 hlineto
          -19 -11 -20 callsubr
          252 vlineto
          35 11 43 45 55 hhcurveto
          61 53 -51 -96 hvcurveto
          -185 vlineto
          -19 -12 -36 -20 vhcurveto
          -5 -10 142 10 -7 hlineto
          -20 -11 -20 callsubr
          178 vlineto
          87 -41 103 -132 -59 -35 -27 -28 -23 vhcurveto
          247 127 vlineto
          43 21 -45 -32 hvcurveto
          10 112 -458 -112 10 hlineto
          32 20 45 44 vhcurveto
          115 -560 hlineto
          -20 -11 -35 -21 vhcurveto
          -5 hlineto
          endchar
        </CharString>
        <CharString name="uni040C">
          34 21 -21 650 78 -68 -20 49 39 66 -20 hstemhm
          83 67 24 224 hintmask 10111110
          392 794 -36 callgsubr
          -215 -784 rmoveto
          -20 -13 -20 callsubr
          250 vlineto
          42 43 194 -293 rlineto
          -47 31 25 -18 80 hhcurveto
          24 10 hlineto
          -40 -41 55 6 -3 hvcurveto
          -221 335 210 209 rlineto
          hintmask 11001110
          -24 callgsubr
          5 hlineto
          hintmask 10111110
          10 -122 vlineto
          hintmask 11001110
          -10 5 vlineto
          8 4 -5 -11 -6 -2 -5 -4 -5 -42 callgsubr
          5 hlineto
          hintmask 10111110
          10 -143 vlineto
          hintmask 11001110
          -10 5 vlineto
          30 callgsubr
          hlineto
          endchar
        </CharString>
        <CharString name="uni040D">
          104 -44 callgsubr
          63 -21 113 -20 hstem
          83 66 332 -95 callsubr
          -42 678 -84 callsubr
        </CharString>
        <CharString name="uni040E">
          13 -9 46 613 79 -69 -20 50 39 66 -20 hstemhm
          181 224 hintmask 10111100
          399 795 -36 callgsubr
          hintmask 11001100
          -398 -145 rmoveto
          20 -1 15 -11 9 -20 208 -459 rcurveline
          -39 -95 rlineto
          -19 -9 -14 -8 -12 hhcurveto
          -19 -18 15 25 -11 hvcurveto
          -25 -55 rlineto
          -1 25 -29 41 -1 vhcurveto
          31 28 17 39 16 hvcurveto
          241 574 rlineto
          13 7 10 16 24 hhcurveto
          hintmask 10111100
          10 -107 vlineto
          hintmask 11001100
          -10 vlineto
          7 18 -6 -19 -8 -4 -10 -1 -3 hvcurveto
          -153 -363 -171 374 rlineto
          -1 3 -2 5 7 vvcurveto
          9 4 11 15 vhcurveto
          6 hlineto
          hintmask 10111100
          10 -139 vlineto
          endchar
        </CharString>
        <CharString name="uni040F">
          81 64 callgsubr
          81 67 310 67 vstem
          557 10 rmoveto
          -20 -12 33 19 hvcurveto
          533 vlineto
          20 9 32 20 3 vhcurveto
          8 10 -140 -10 5 hlineto
          20 11 -35 -20 hvcurveto
          -560 -310 560 vlineto
          20 8 32 20 3 vhcurveto
          9 10 -140 -10 5 hlineto
          20 11 -35 -20 hvcurveto
          -40 callgsubr
          -19 99 callsubr
          -5 -10 178 hlineto
          45 29 -57 -33 hvcurveto
          10 hlineto
          33 29 57 44 vhcurveto
          182 10 -5 hlineto
          endchar
        </CharString>
        <CharString name="uni0410">
          -24 callsubr
          354 -20 hstem
          -107 callgsubr
          endchar
        </CharString>
        <CharString name="uni0411">
          -32 65 callgsubr
          243 37 hstem
          84 67 233 68 vstem
          45 hmoveto
          182 hlineto
          132 93 72 117 149 -132 42 -123 hvcurveto
          -46 243 185 hlineto
          44 21 -27 -31 hvcurveto
          10 95 -366 -94 callgsubr
          106 25 rmoveto
          311 33 vlineto
          128 72 -69 -97 -83 -61 -62 -133 hvcurveto
          endchar
        </CharString>
        <CharString name="uni0412">
          -75 callsubr
        </CharString>
        <CharString name="uni0413">
          -86 21 -21 625 35 hstem
          83 68 vstem
          184 10 rmoveto
          57 callgsubr
          562 205 vlineto
          44 20 -23 -48 hvcurveto
          10 106 -385 -39 callgsubr
          -10 144 10 -5 hlineto
          endchar
        </CharString>
        <CharString name="uni0414">
          165 -69 -21 90 35 640 -20 hstem
          618 35 rmoveto
          -21 -17 20 20 -9 hvcurveto
          -232 600 -230 -603 rlineto
          -25 -9 -15 -12 -21 hhcurveto
          -44 -125 10 hlineto
          33 3 33 57 44 hhcurveto
          461 hlineto
          45 31 -54 -36 3 -26 callgsubr
          hlineto
          -337 497 rmoveto
          193 -497 rlineto
          -385 hlineto
          endchar
        </CharString>
        <CharString name="uni0415">
          -58 callsubr
          hstem
          84 67 vstem
          45 hmoveto
          -105 callgsubr
          endchar
        </CharString>
        <CharString name="uni0416">
          300 21 -21 346 26 288 -20 hstem
          379 66 vstem
          -52 callsubr
          65 callsubr
          8 4 -4 -7 -3 -1 -3 -3 -3 hvcurveto
          -223 -238 rlineto
          206 vlineto
          19 11 30 58 callgsubr
          10 -141 -10 5 hlineto
          6 callsubr
          10 -109 -49 callgsubr
          endchar
        </CharString>
        <CharString name="uni0416.alt">
          298 -16 callgsubr
          380 68 vstem
          526 403 rmoveto
          61 69 68 73 60 69 rrcurveto
          19 17 20 24 callsubr
          -76 -84 -73 -83 -76 -84 rrcurveto
          93 callgsubr
          13 33 19 vhcurveto
          10 -131 -10 vlineto
          -48 callsubr
          19 vlineto
          72 29 21 44 26 hvcurveto
          174 290 35 -40 rlineto
          -250 -22 callsubr
          131 -88 callgsubr
          252 -1 vlineto
          7 2 25 30 4 4 174 -288 rcurveline
          -46 27 26 -19 72 hhcurveto
          21 10 hlineto
          -19 -19 15 15 -15 hvcurveto
          -9 9 -8 10 -8 12 rrcurveto
          endchar
        </CharString>
        <CharString name="uni0417">
          -68 -10 83 callsubr
          hstemhm
          318 72 -51 81 hintmask 11110000
          37 531 rmoveto
          -27 callsubr
          hintmask 11101000
          -44 callsubr
          32 -11 56 hhcurveto
          154 89 92 105 72 -40 65 -91 40 hvcurveto
          hintmask 11110000
          -37 callsubr
          hlineto
          endchar
        </CharString>
        <CharString name="uni0418">
          104 -16 callgsubr
          83 66 332 -95 callsubr
          endchar
        </CharString>
        <CharString name="uni0419">
          104 21 -21 650 75 -65 -20 46 39 66 -20 hstemhm
          83 66 53 224 55 66 hintmask 10111111
          420 791 -36 callgsubr
          17 -791 rmoveto
          142 11 callgsubr
          533 vlineto
          hintmask 11001111
          19 13 33 20 vhcurveto
          5 hlineto
          hintmask 10111111
          10 -142 vlineto
          hintmask 11001111
          -10 5 vlineto
          -52 callgsubr
          -13 vlineto
          -332 -449 rlineto
          462 vlineto
          18 11 31 58 callgsubr
          hlineto
          hintmask 10111111
          10 -142 vlineto
          hintmask 11001111
          -10 5 vlineto
          -92 callsubr
          -29 callgsubr
          -80 callgsubr
          9 vlineto
          332 449 rlineto
          -458 -47 callsubr
          hlineto
          endchar
        </CharString>
        <CharString name="uni041A">
          29 21 -21 339 33 288 -20 hstem
          83 66 vstem
          45 hmoveto
          142 10 -7 hlineto
          -20 3 -11 31 21 vvcurveto
          274 vlineto
          60 -3 46 -26 25 -49 81 -161 rcurveline
          -49 24 33 -51 77 hhcurveto
          50 10 hlineto
          -53 -44 63 39 -18 hvcurveto
          -79 160 -31 61 -50 36 -87 3 rlinecurve
          237 237 24 24 18 16 27 1 rlinecurve
          10 -108 -10 vlineto
          5 3 -3 -6 -7 -3 -7 -5 -5 hvcurveto
          -232 -231 rlineto
          207 vlineto
          19 14 -46 callsubr
          -142 -10 -74 callgsubr
          -40 callgsubr
          55 callsubr
          hlineto
          endchar
        </CharString>
        <CharString name="uni041A.alt">
          34 -16 callgsubr
          82 67 vstem
          240 406 rmoveto
          -21 callsubr
          14 33 20 vhcurveto
          10 -133 -10 76 callsubr
          -40 callgsubr
          -20 -12 -35 -21 vhcurveto
          -10 133 10 vlineto
          -20 -13 -20 callsubr
          250 vlineto
          42 43 194 -293 rlineto
          -47 31 25 -18 80 hhcurveto
          24 10 hlineto
          -40 -41 55 6 -3 hvcurveto
          endchar
        </CharString>
        <CharString name="uni041B">
          115 -16 callgsubr
          309 561 rmoveto
          188 -518 rlineto
          1 -4 1 -3 -2 vvcurveto
          -15 -14 -9 -11 vhcurveto
          -10 143 10 vlineto
          -23 1 -20 18 -7 19 -224 612 rcurveline
          -82 -10 hlineto
          12 14 -12 -20 -5 -2 -8 -3 -10 hvcurveto
          -189 -518 rlineto
          -50 -21 -41 -17 -16 hhcurveto
          -10 31 vlineto
          49 23 35 35 12 hvcurveto
          endchar
        </CharString>
        <CharString name="uni041C">
          246 2 -21 40 -23 callsubr
          hstem
          82 35 503 67 vstem
          583 hmoveto
          142 10 -5 hlineto
          -38 callgsubr
          533 vlineto
          19 12 33 21 vhcurveto
          5 10 -113 hlineto
          -232 -547 -232 547 rlineto
          -102 -10 5 hlineto
          41 callgsubr
          9 callgsubr
          109 10 -5 hlineto
          -60 callsubr
          endchar
        </CharString>
        <CharString name="uni041D">
          91 21 51 callsubr
          hstem
          94 67 320 67 vstem
          444 hmoveto
          140 10 -5 hlineto
          -18 -13 -80 callgsubr
          533 vlineto
          19 10 33 21 vhcurveto
          5 10 -140 -10 5 hlineto
          -81 callsubr
          -272 28 callgsubr
          hlineto
          endchar
        </CharString>
        <CharString name="uni041E">
          28 callsubr
          hstem
          37 67 546 -107 callsubr
          endchar
        </CharString>
        <CharString name="uni041F">
          76 21 -21 625 35 hstem
          82 67 305 67 vstem
          45 hmoveto
          140 10 -5 hlineto
          -21 -10 -80 callgsubr
          560 305 -560 vlineto
          -20 -8 -13 callgsubr
          -9 -10 140 10 -8 hlineto
          -20 -8 -20 callsubr
          533 vlineto
          17 10 35 18 vhcurveto
          8 10 -512 -10 5 hlineto
          19 13 -69 callsubr
          -11 -34 -21 vhcurveto
          -5 hlineto
          endchar
        </CharString>
        <CharString name="uni0420">
          17 callsubr
          hstem
          80 68 197 -91 callsubr
          endchar
        </CharString>
        <CharString name="uni0421">
          56 callgsubr
          hstem
          39 68 vstem
          397 -101 callsubr
          endchar
        </CharString>
        <CharString name="uni0422">
          -63 21 -21 623 37 hstem
          199 67 vstem
          298 10 rmoveto
          -90 callgsubr
          -5 hlineto
          endchar
        </CharString>
        <CharString name="uni0423">
          13 -9 46 623 -20 hstem
          7 -15 callsubr
          20 -1 15 -11 9 -20 208 -459 rcurveline
          -39 -95 rlineto
          -19 -9 -14 -8 -12 hhcurveto
          -19 -18 15 25 -11 hvcurveto
          -25 -55 rlineto
          -1 28 -32 1 39 hvcurveto
          31 28 17 39 16 hvcurveto
          240 574 rlineto
          13 7 11 16 24 57 callsubr
          7 18 -6 -19 -8 -4 -10 -1 -3 hvcurveto
          -153 -363 -171 374 rlineto
          -1 3 -2 5 7 vvcurveto
          9 4 11 15 vhcurveto
          6 10 -139 hlineto
          endchar
        </CharString>
        <CharString name="uni0424">
          233 0 100 -33 33 457 33 -33 103 hstemhm
          37 65 245 65 243 66 hintmask 01101110
          309 -15 callsubr
          6 hlineto
          19 -3 13 -32 -20 vvcurveto
          -5 vlineto
          -171 -5 -139 -99 -156 vvcurveto
          -146 124 -112 186 -5 vhcurveto
          -5 vlineto
          -19 -13 -33 -20 vhcurveto
          -5 hlineto
          hintmask 10101110
          -10 141 10 -5 vlineto
          -21 -12 33 19 hvcurveto
          hintmask 01101110
          5 vlineto
          162 3 147 104 156 vvcurveto
          144 -126 111 -183 5 vhcurveto
          5 vlineto
          20 11 32 58 callgsubr
          hlineto
          hintmask 10011110
          10 -141 vlineto
          -207 -320 rmoveto
          102 84 112 161 3 vhcurveto
          -457 vlineto
          -127 5 -118 117 118 vvcurveto
          553 -20 rmoveto
          -108 -94 -107 -149 -5 vhcurveto
          457 vlineto
          135 -5 108 -114 -118 vvcurveto
          endchar
        </CharString>
        <CharString name="uni0425">
          -78 callgsubr
        </CharString>
        <CharString name="uni0426">
          94 64 callgsubr
          80 67 301 67 vstem
          44 hmoveto
          471 hlineto
          56 26 -56 -34 3 -26 callgsubr
          -50 hlineto
          -8 callgsubr
          560 vlineto
          20 7 32 21 3 vhcurveto
          10 10 -141 -10 5 hlineto
          24 7 -35 -20 hvcurveto
          -530 vlineto
          -20 -7 -35 -24 vhcurveto
          -5 hlineto
          endchar
        </CharString>
        <CharString name="uni0427">
          19 21 -21 286 43 331 -20 hstem
          73 67 255 67 vstem
          358 hmoveto
          143 10 -8 hlineto
          -20 3 -11 31 19 vvcurveto
          535 vlineto
          18 11 31 20 3 vhcurveto
          8 10 -142 -10 8 hlineto
          18 -3 10 -31 -18 vvcurveto
          -226 vlineto
          -23 -32 -39 -20 -36 hhcurveto
          -72 -76 59 88 hvcurveto
          122 vlineto
          19 14 -46 callsubr
          -139 -10 5 hlineto
          17 11 -82 callsubr
          -116 vlineto
          -107 75 -89 121 51 48 23 20 27 vhcurveto
          -266 vlineto
          -20 -12 -33 -20 vhcurveto
          -5 hlineto
          endchar
        </CharString>
        <CharString name="uni0428">
          318 0 36 624 -20 hstem
          82 66 240 66 240 66 cntrmask 00111000
          353 -6 callsubr
          10 -35 -20 hvcurveto
          -559 -240 559 vlineto
          20 7 32 21 3 vhcurveto
          7 77 callsubr
          5 hlineto
          23 8 -35 -20 hvcurveto
          -40 callgsubr
          -19 99 callsubr
          -5 -10 750 10 -5 hlineto
          -18 -13 33 19 hvcurveto
          533 vlineto
          20 8 35 23 vhcurveto
          5 77 callsubr
          7 hlineto
          21 -3 7 -32 -20 vvcurveto
          -559 -240 564 vlineto
          16 10 34 21 vhcurveto
          5 10 -137 hlineto
          endchar
        </CharString>
        <CharString name="uni0429">
          339 64 callgsubr
          82 66 241 66 240 66 vstem
          47 hmoveto
          713 hlineto
          47 35 -50 -40 3 -26 callgsubr
          -49 hlineto
          -33 -12 27 27 hvcurveto
          506 vlineto
          19 7 33 21 3 vhcurveto
          7 77 callsubr
          5 hlineto
          23 8 -36 -19 hvcurveto
          -560 -240 565 vlineto
          13 10 37 20 vhcurveto
          5 77 callsubr
          6 hlineto
          22 -3 8 -33 -19 vvcurveto
          -560 -241 560 vlineto
          19 8 36 22 vhcurveto
          5 77 callsubr
          5 hlineto
          23 8 -36 -19 hvcurveto
          -40 callgsubr
          -19 -7 -33 -23 vhcurveto
          -5 hlineto
          endchar
        </CharString>
        <CharString name="uni042A">
          27 65 callgsubr
          243 37 hstemhm
          11 194 -67 67 231 71 hintmask 11110100
          101 hmoveto
          174 hlineto
          132 100 72 117 149 -122 42 -124 hvcurveto
          -56 215 hlineto
          19 13 36 20 vhcurveto
          5 10 -232 -100 10 hlineto
          31 21 32 44 vhcurveto
          hintmask 11101100
          52 -561 hlineto
          -19 -11 -33 -21 vhcurveto
          -5 hlineto
          104 25 rmoveto
          311 34 vlineto
          129 68 -66 -95 -96 -68 -54 -148 hvcurveto
          endchar
        </CharString>
        <CharString name="uni042B">
          96 callgsubr
          hstem
          84 67 232 70 104 67 vstem
          47 -78 callsubr
          354 615 rmoveto
          5 hlineto
          21 11 -69 callsubr
          -11 -34 -21 vhcurveto
          -5 -10 141 10 -7 hlineto
          -19 3 -11 31 21 vvcurveto
          533 vlineto
          18 10 31 58 callgsubr
          10 -141 hlineto
          endchar
        </CharString>
        <CharString name="uni042C">
          -43 65 callgsubr
          280 -20 hstem
          82 67 232 70 vstem
          45 -78 callsubr
          endchar
        </CharString>
        <CharString name="uni042D">
          70 -15 38 315 34 263 35 hstem
          494 67 vstem
          203 670 rmoveto
          -49 -36 -10 -8 -28 hvcurveto
          -5 -17 -16 -4 -16 hhcurveto
          -102 10 vlineto
          84 15 69 10 61 -28 callgsubr
          -49 -97 11 90 -31 80 callsubr
          30 43 -15 63 hhcurveto
          202 160 164 199 164 -112 158 -246 hvcurveto
          endchar
        </CharString>
        <CharString name="uni042E">
          387 -10 20 -20 35 -4 -21 338 34 263 35 -10 -20 hstemhm
          82 67 63 66 529 66 hintmask 0011101110000000
          47 hmoveto
          141 hlineto
          hintmask 1001101110000000
          10 -7 vlineto
          -19 -13 -20 callsubr
          273 63 -15 vlineto
          -172 117 -161 204 192 148 142 200 180 -118 158 -208 -190 -118 -146 -152 -24 vhcurveto
          -66 226 hlineto
          16 11 33 58 callgsubr
          hlineto
          hintmask 1001011110000000
          10 -141 -10 5 vlineto
          18 13 -82 callsubr
          -40 callgsubr
          -20 -11 -35 -19 vhcurveto
          -5 hlineto
          hintmask 0011101110000000
          hintmask 0101101110000000
          499 15 rmoveto
          -159 -109 1 callsubr
          136 92 162 164 170 103 -168 -147 -133 -81 -154 -180 -8 hvcurveto
          endchar
        </CharString>
        <CharString name="uni042F">
          28 21 -21 337 34 255 34 hstem
          125 63 218 67 vstem
          368 hmoveto
          141 10 -5 hlineto
          43 callsubr
          533 vlineto
          19 11 -46 callsubr
          -144 hlineto
          -147 -93 -70 -100 -78 66 -67 112 -8 hvcurveto
          -45 -19 -17 -32 -19 -32 -79 -142 rcurveline
          -43 -24 -49 -59 -61 hhcurveto
          -10 53 vlineto
          68 53 46 59 32 hvcurveto
          17 31 18 30 15 27 38 73 44 65 59 5 rrcurveto
          -271 vlineto
          -20 -13 -13 callgsubr
          -5 hlineto
          -180 495 rmoveto
          76 74 45 129 vhcurveto
          15 -255 -63 hlineto
          -87 -68 57 77 hvcurveto
          endchar
        </CharString>
        <CharString name="uni0430">
          -55 callsubr
          54 callsubr
          hintmask 01111000
          -38 callsubr
          hintmask 10111000
          -77 callgsubr
          hintmask 01111000
          -20 callgsubr
          hintmask 10111000
          -93 callgsubr
          endchar
        </CharString>
        <CharString name="uni0431">
          -8 -7 34 365 35 101 64 hstem
          38 64 315 62 vstem
          261 427 rmoveto
          -76 -43 -28 -44 -36 hvcurveto
          109 35 89 64 86 hhcurveto
          104 hlineto
          39 64 rlineto
          -127 hlineto
          -88 -91 -54 -88 -56 hvcurveto
          -40 -66 -19 -55 -82 vvcurveto
          -144 82 -110 135 128 96 89 131 122 -84 92 -134 vhcurveto
          6 -400 rmoveto
          -101 -64 103 85 86 52 91 97 99 67 -91 -99 -85 -51 -85 -99 -5 hvcurveto
          endchar
        </CharString>
        <CharString name="uni0432">
          -76 0 32 172 33 151 32 hstemhm
          78 65 180 61 -34 34 -34 63 hintmask 11111000
          384 320 rmoveto
          44 -39 56 -96 vhcurveto
          -204 -10 hlineto
          21 12 -32 -21 hvcurveto
          -292 vlineto
          -20 -12 -35 -21 vhcurveto
          -10 220 vlineto
          hintmask 11110010
          119 29 76 37 71 -60 32 -45 8 hvcurveto
          hintmask 11111000
          36 14 40 37 45 vvcurveto
          -241 68 rmoveto
          77 hlineto
          64 39 -41 -32 -40 -27 -38 -76 hvcurveto
          -77 hlineto
          -205 vmoveto
          172 67 vlineto
          hintmask 11110100
          36 104 -12 -78 -73 -77 -9 -32 hvcurveto
          endchar
        </CharString>
        <CharString name="uni0433">
          87 callsubr
          hstem
          78 66 vstem
          45 420 rmoveto
          -10 vlineto
          -52 callgsubr
          -295 21 callgsubr
          -10 133 10 vlineto
          -20 -14 33 20 hvcurveto
          324 39 callsubr
          hlineto
          endchar
        </CharString>
        <CharString name="uni0434">
          -27 -69 -21 90 33 405 -20 hstem
          451 33 rmoveto
          -16 -7 13 23 -11 hvcurveto
          -169 369 -40 -91 -80 -176 -40 -90 rlinecurve
          -19 -11 -16 -29 -15 hhcurveto
          -38 -123 10 hlineto
          32 3 27 58 43 hhcurveto
          318 hlineto
          44 22 -58 -32 5 hvcurveto
          10 123 hlineto
          -259 285 rmoveto
          130 -285 rlineto
          -260 hlineto
          endchar
        </CharString>
        <CharString name="uni0435">
          -60 callgsubr
          hstem
          385 -106 callgsubr
          endchar
        </CharString>
        <CharString name="uni0436">
          96 0 236 -21 21 -21 205 hstemhm
          280 62 hintmask 10010000
          6 callgsubr
          hintmask 00110000
          -56 callgsubr
          rrcurveto
          hintmask 10010000
          -14 callgsubr
          rlineto
          hintmask 01010000
          15 31 30 25 35 3 rrcurveto
          -149 vlineto
          -20 -12 -33 -21 -3 vhcurveto
          hintmask 10010000
          -10 128 10 vlineto
          -21 3 -12 33 20 vvcurveto
          hintmask 01010000
          71 callsubr
          hintmask 10010000
          44 callgsubr
          endchar
        </CharString>
        <CharString name="uni0436.alt">
          102 21 -21 421 -20 21 -20 hstemhm
          283 66 hintmask 11010000
          520 107 rmoveto
          -36 51 -38 49 -35 51 55 56 rcurveline
          74 77 9 callsubr
          -145 -150 rlineto
          120 19 callgsubr
          hintmask 10110000
          10 -132 -10 vlineto
          -52 callgsubr
          -120 vlineto
          -145 150 71 callgsubr
          hintmask 11010000
          36 callsubr
          -133 -135 -187 -24 -31 rlineto
          -15 -13 -16 -15 -9 hhcurveto
          -10 48 vlineto
          44 26 42 6 6 hvcurveto
          39 53 39 60 39 52 18 -18 rcurveline
          -130 -36 callsubr
          -10 132 10 55 callgsubr
          129 vlineto
          19 19 37 -53 40 -59 39 46 callsubr
          48 10 hlineto
          -11 -14 15 15 -13 hvcurveto
          -24 31 rlineto
          endchar
        </CharString>
        <CharString name="uni0437">
          -150 -4 86 callgsubr
          hstemhm
          253 65 -40 67 hintmask 11110000
          -64 callgsubr
          hintmask 11101000
          -13 callsubr
          hintmask 11110000
          48 21 30 42 32 vvcurveto
          endchar
        </CharString>
        <CharString name="uni0438">
          -2 19 callsubr
          77 66 238 65 vstem
          -18 callsubr
          10 -128 -63 callsubr
          10 -127 -87 callsubr
          endchar
        </CharString>
        <CharString name="uni0439">
          -2 21 -21 410 80 -70 75 callgsubr
          77 66 2 224 12 65 hintmask 11001111
          -18 callsubr
          hintmask 10111111
          10 -128 vlineto
          hintmask 11001111
          -63 callsubr
          hintmask 10111111
          10 -127 vlineto
          hintmask 11001111
          -87 callsubr
          -83 490 46 callgsubr
          hintmask 10111111
          82 callgsubr
        </CharString>
        <CharString name="uni043A">
          -80 19 callsubr
          84 66 vstem
          299 168 rmoveto
          47 -25 -35 20 -57 hhcurveto
          60 51 60 53 60 51 5 4 6 3 5 3 rrcurveto
          5 9 10 5 7 hhcurveto
          10 -87 -10 vlineto
          3 2 -2 -3 hvcurveto
          -1 -2 -2 -1 vvcurveto
          -57 -51 -56 -45 -57 -51 rrcurveto
          103 vlineto
          20 11 33 19 75 callsubr
          23 9 -33 -20 hvcurveto
          -294 vlineto
          -20 -11 -33 -21 vhcurveto
          -10 129 79 callsubr
          38 -24 -28 15 hvcurveto
          47 -89 rlineto
          -35 19 30 -29 62 callsubr
        </CharString>
        <CharString name="uni043A.alt">
          -82 21 -21 421 -20 hstem
          75 66 vstem
          210 258 rmoveto
          47 43 48 47 47 43 14 10 rcurveline
          13 callgsubr
          -153 rlineto
          119 73 callgsubr
          39 callgsubr
          -295 vlineto
          -46 callgsubr
          43 -55 45 -55 41 -56 rlinecurve
          53 callgsubr
          rrcurveto
          -12 15 21 -12 23 hhcurveto
          54 10 hlineto
          -12 -18 -48 callgsubr
          rrcurveto
          endchar
        </CharString>
        <CharString name="uni043B">
          -38 19 callsubr
          345 hmoveto
          133 10 hlineto
          -16 -21 30 20 -9 hvcurveto
          -154 360 rlineto
          -81 -10 hlineto
          11 5 -4 -8 -5 -2 -7 -3 -9 hvcurveto
          -136 -318 rlineto
          -27 -13 -25 -22 -19 hhcurveto
          -10 22 vlineto
          33 23 14 27 11 hvcurveto
          132 315 127 -300 rlineto
          5 -11 2 -9 -3 vvcurveto
          -15 -16 -8 -9 vhcurveto
          endchar
        </CharString>
        <CharString name="uni043C">
          58 12 -21 30 60 callsubr
          hstemhm
          77 34 327 65 hintmask 01111000
          503 358 rmoveto
          20 13 32 20 vhcurveto
          10 -95 vlineto
          -153 -313 -153 313 rlineto
          -89 -10 hlineto
          29 2 -28 -24 hvcurveto
          -293 vlineto
          -20 -10 -35 -21 vhcurveto
          -10 97 25 callsubr
          250 vlineto
          hintmask 10111000
          160 -324 167 344 rlineto
          -270 vlineto
          -21 -11 -34 -21 vhcurveto
          hintmask 01111000
          -10 130 10 55 callgsubr
          endchar
        </CharString>
        <CharString name="uni043D">
          -12 0 237 -33 216 hstemhm
          77 66 228 66 hintmask 01110000
          143 204 rmoveto
          228 -139 hlineto
          -21 -11 -34 -19 vhcurveto
          hintmask 10110000
          -10 126 -54 callsubr
          293 vlineto
          19 9 33 21 vhcurveto
          hintmask 01110000
          10 -126 89 callgsubr
          hintmask 10110000
          -11 callgsubr
          hintmask 01110000
          -19 callgsubr
          hintmask 10110000
          -10 126 -54 callsubr
          endchar
        </CharString>
        <CharString name="uni043E">
          -16 callsubr
          hstem
          37 65 314 -104 callgsubr
          endchar
        </CharString>
        <CharString name="uni043F">
          -20 21 -21 385 35 hstem
          77 66 220 66 vstem
          143 385 rmoveto
          220 -320 hlineto
          -21 -8 -34 -23 vhcurveto
          -10 129 25 callsubr
          293 vlineto
          20 11 32 21 vhcurveto
          10 -415 -10 vlineto
          20 11 -32 -20 hvcurveto
          -293 vlineto
          -21 -10 -34 -21 vhcurveto
          -10 127 10 vlineto
          -20 -10 -80 callgsubr
          endchar
        </CharString>
        <CharString name="uni0440">
          -16 -199 -21 213 34 366 34 -7 89 callsubr
          hintmask 11101100
          -3 callsubr
          hintmask 11011100
          44 -98 12 callsubr
          -516 -88 callsubr
          206 vlineto
          -33 35 46 -25 41 hhcurveto
          138 66 111 107 hvcurveto
          hintmask 11101100
          109 -69 107 -143 vhcurveto
          -69 callgsubr
          endchar
        </CharString>
        <CharString name="uni0441">
          32 callsubr
          hstem
          36 65 vstem
          414 114 rmoveto
          -10 hlineto
          -38 -5 -53 -49 -76 hhcurveto
          -107 -62 -53 callgsubr
          -123 96 -94 136 56 36 18 13 23 hvcurveto
          7 12 8 5 11 hhcurveto
          endchar
        </CharString>
        <CharString name="uni0442">
          -127 21 -21 387 33 hstemhm
          7 224 -65 65 -65 226 hintmask 11001000
          392 315 rmoveto
          105 vlineto
          hintmask 11100000
          -385 -105 10 hlineto
          30 20 42 43 vhcurveto
          hintmask 11010000
          86 -322 hlineto
          -20 -12 -35 -21 vhcurveto
          -10 130 10 vlineto
          -20 -12 -20 callsubr
          322 88 vlineto
          43 21 -42 -30 hvcurveto
          endchar
        </CharString>
        <CharString name="uni0443">
          50 callgsubr
          hstem
          -86 callgsubr
          endchar
        </CharString>
        <CharString name="uni0444">
          166 -220 247 -34 34 365 35 -35 177 hstemhm
          29 62 225 64 226 61 hintmask 10101110
          486 427 rmoveto
          -63 -28 -24 -13 -15 hvcurveto
          118 vlineto
          19 68 callgsubr
          hintmask 10011110
          41 callsubr
          21 11 -33 -18 hvcurveto
          -119 vlineto
          hintmask 01101110
          15 -15 -27 23 -64 hhcurveto
          -131 -50 -104 -106 -111 61 -113 131 53 29 24 13 13 hvcurveto
          -185 vlineto
          -21 -11 -34 -21 vhcurveto
          hintmask 10101110
          -10 128 -88 callgsubr
          185 vlineto
          9 -7 10 -7 11 -5 rrcurveto
          hintmask 01101110
          -9 19 22 -9 25 hhcurveto
          131 60 113 107 109 -49 105 -132 hvcurveto
          -258 -400 rmoveto
          -88 -49 104 99 84 35 79 92 50 48 -45 -58 hvcurveto
          -169 vlineto
          -40 -37 -54 -51 vhcurveto
          244 hmoveto
          -49 -43 53 42 hvcurveto
          169 vlineto
          59 40 42 56 88 42 -101 -98 -84 -42 -82 -92 vhcurveto
          endchar
        </CharString>
        <CharString name="uni0445">
          -65 19 callsubr
          302 hmoveto
          143 10 hlineto
          -20 -23 21 24 -17 hvcurveto
          -134 181 97 128 rlineto
          19 13 21 27 -41 callgsubr
          5 4 vvcurveto
          15 11 4 8 vhcurveto
          10 -144 -10 vlineto
          19 25 -29 -16 13 -49 callsubr
          104 141 33 -45 32 45 callsubr
          endchar
        </CharString>
        <CharString name="uni0446">
          -18 -67 -21 88 66 callgsubr
          76 66 218 66 vstem
          467 -4 callgsubr
          322 vlineto
          21 8 34 23 53 callsubr
          24 6 -35 -20 hvcurveto
          -293 vlineto
          23 callgsubr
        </CharString>
        <CharString name="uni0447">
          -67 0 195 -43 43 225 -20 hstemhm
          54 66 194 66 hintmask 01111000
          380 358 rmoveto
          19 13 33 18 vhcurveto
          10 -127 82 callsubr
          -112 vlineto
          -35 -29 -27 -16 -35 hhcurveto
          -44 -59 32 91 hvcurveto
          40 vlineto
          19 11 33 17 vhcurveto
          10 -117 -10 vlineto
          14 9 -82 callsubr
          -40 vlineto
          -84 51 -82 97 51 30 17 32 31 vhcurveto
          -138 vlineto
          -20 -11 -33 -19 vhcurveto
          hintmask 10111000
          -10 127 10 vlineto
          -18 -13 33 20 hvcurveto
          endchar
        </CharString>
        <CharString name="uni0448">
          176 0 66 callgsubr
          74 65 181 64 182 65 vstem
          139 355 rmoveto
          20 8 35 22 74 callsubr
          21 8 -35 -20 hvcurveto
          -293 vlineto
          -19 -11 -33 -18 vhcurveto
          -10 615 10 vlineto
          -19 -10 33 19 hvcurveto
          293 vlineto
          20 9 35 21 14 callsubr
          20 74 callsubr
          20 10 -35 -20 hvcurveto
          -322 -181 vlineto
          endchar
        </CharString>
        <CharString name="uni0449">
          197 -69 -21 90 66 callgsubr
          75 64 181 64 182 65 vstem
          658 33 rmoveto
          -24 -3 38 17 hvcurveto
          267 vlineto
          20 7 35 23 14 callsubr
          21 74 callsubr
          20 9 -35 -20 hvcurveto
          -322 -181 322 vlineto
          20 8 35 22 74 callsubr
          22 8 -35 -20 hvcurveto
          -293 vlineto
          -16 -7 -36 -19 vhcurveto
          -10 567 vlineto
          43 33 -58 -32 5 hvcurveto
          10 123 hlineto
          endchar
        </CharString>
</ttFont>
